<svg width="1218" height="86" fill="none" xmlns="http://www.w3.org/2000/svg"><path d="M10 18a4 4 0 014-4h12a4 4 0 014 4v12a4 4 0 01-4 4H14a4 4 0 01-4-4V18z" fill="#253981"/><path d="M17 20.648v6.704c0 .511.515.822.91.544l4.815-3.352c.367-.253.367-.835 0-1.094l-4.814-3.346c-.396-.278-.911.033-.911.544z" fill="#fff"/><path d="M54 15c-3.675 0-7 2.945-7 7.501 0 2.909 2.144 6.33 6.422 10.273a.86.86 0 001.164 0C58.856 28.83 61 25.41 61 22.5c0-4.555-3.325-7.5-7-7.5zm0 9.148c-.962 0-1.75-.824-1.75-1.83 0-1.006.788-1.83 1.75-1.83s1.75.824 1.75 1.83c0 1.006-.788 1.83-1.75 1.83zm36.041 6.892v-4.804h3.913v4.803c0 .529.44.961.979.961h2.934a.972.972 0 00.979-.96v-6.725h1.663c.45 0 .665-.548.322-.836l-8.178-7.234a1 1 0 00-1.31 0l-8.179 7.234c-.332.288-.127.836.323.836h1.663v6.724c0 .529.44.961.978.961h2.935a.972.972 0 00.978-.96zM130 16c-4.416 0-8 3.584-8 8s3.584 8 8 8 8-3.584 8-8-3.584-8-8-8zm0 2.4c1.328 0 2.4 1.072 2.4 2.4 0 1.328-1.072 2.4-2.4 2.4a2.397 2.397 0 01-2.4-2.4c0-1.328 1.072-2.4 2.4-2.4zm0 11.36a5.76 5.76 0 01-4.8-2.576c.024-1.592 3.2-2.464 4.8-2.464 1.592 0 4.776.872 4.8 2.464a5.76 5.76 0 01-4.8 2.576zm35 .24l6-6-6-6v12zm37-10.19v8.38c0 .639.686 1.027 1.214.68l6.419-4.19a.82.82 0 000-1.367l-6.419-4.182c-.528-.348-1.214.04-1.214.679zm40.178.4a.806.806 0 000 1.01l2.357 2.78-2.357 2.78a.806.806 0 000 1.01c.237.28.619.28.856 0l2.788-3.288a.807.807 0 000-1.01l-2.788-3.289a.546.546 0 00-.856.008zm35.464 4.446h7.168l-3.132 3.216a.677.677 0 000 .935.628.628 0 00.905 0l4.229-4.342a.667.667 0 000-.93l-4.229-4.342a.628.628 0 00-.905 0 .67.67 0 000 .929l3.132 3.216h-7.168a.653.653 0 00-.642.659c0 .362.289.659.642.659zm45.469-1.032a.575.575 0 00-.824 0l-3.384 3.48-1.236-1.272a.576.576 0 00-.825 0 .617.617 0 000 .848l1.509 1.552a.76.76 0 001.097 0l3.655-3.76a.607.607 0 00.008-.848zm2.333-6.024h-.777v-.8c0-.44-.35-.8-.778-.8a.791.791 0 00-.778.8v.8h-6.222v-.8c0-.44-.35-.8-.778-.8a.791.791 0 00-.778.8v.8h-.777c-.864 0-1.548.72-1.548 1.6L313 30.4c0 .88.692 1.6 1.556 1.6h10.888c.856 0 1.556-.72 1.556-1.6V19.2c0-.88-.7-1.6-1.556-1.6zm-.777 12.8h-9.334a.791.791 0 01-.777-.8v-8h10.888v8c0 .44-.35.8-.777.8zM361.889 16a.791.791 0 00-.778.8v.8h-6.222v-.8c0-.44-.35-.8-.778-.8a.791.791 0 00-.778.8v.8h-.777c-.864 0-1.548.72-1.548 1.6L351 30.4c0 .88.692 1.6 1.556 1.6h10.888c.856 0 1.556-.72 1.556-1.6V19.2c0-.88-.7-1.6-1.556-1.6h-.777v-.8c0-.44-.35-.8-.778-.8zm1.555 14.4h-10.888v-8h10.888v8zm-6.222-5.6c0-.44.35-.8.778-.8.428 0 .778.36.778.8 0 .44-.35.8-.778.8a.791.791 0 01-.778-.8zm-3.111 0c0-.44.35-.8.778-.8.428 0 .778.36.778.8 0 .44-.35.8-.778.8a.791.791 0 01-.778-.8zm6.222 0c0-.44.35-.8.778-.8.428 0 .778.36.778.8 0 .44-.35.8-.778.8a.791.791 0 01-.778-.8zm-3.111 3.2c0-.44.35-.8.778-.8.428 0 .778.36.778.8 0 .44-.35.8-.778.8a.791.791 0 01-.778-.8zm-3.111 0c0-.44.35-.8.778-.8.428 0 .778.36.778.8 0 .44-.35.8-.778.8a.791.791 0 01-.778-.8zm6.222 0c0-.44.35-.8.778-.8.428 0 .778.36.778.8 0 .44-.35.8-.778.8a.791.791 0 01-.778-.8zm30.096-9.037h1.43v.74c0 .815.643 1.482 1.429 1.482h4.289c.786 0 1.429-.667 1.429-1.482v-.74h1.43v3.703h1.429v-3.703c0-.815-.643-1.482-1.429-1.482h-2.988c-.3-.859-1.086-1.481-2.015-1.481-.93 0-1.716.622-2.016 1.481h-2.988c-.786 0-1.429.667-1.429 1.482v10.369c0 .814.643 1.481 1.429 1.481h3.574v-1.481h-3.574v-10.37zm5.004-1.482c.393 0 .714.334.714.741s-.321.74-.714.74a.73.73 0 01-.715-.74.73.73 0 01.715-.74z" fill="#494949"/><path d="M402.794 30.739l-1.429-1.481c.415-.748.679-1.652.365-2.704-.379-1.274-1.459-2.259-2.745-2.385-2.051-.207-3.738 1.534-3.538 3.667a3.364 3.364 0 002.301 2.844c1.022.326 1.887.052 2.609-.378l1.43 1.481a.685.685 0 001 0 .756.756 0 00.007-1.044zm-4.145-1.407c-1.001 0-1.787-.815-1.787-1.852 0-1.037.786-1.852 1.787-1.852s1.787.815 1.787 1.852c0 1.037-.786 1.852-1.787 1.852zM426 30h16c.55 0 1-.45 1-1s-.45-1-1-1h-16c-.55 0-1 .45-1 1s.45 1 1 1zm0-5h16c.55 0 1-.45 1-1s-.45-1-1-1h-16c-.55 0-1 .45-1 1s.45 1 1 1zm-1-6c0 .55.45 1 1 1h16c.55 0 1-.45 1-1s-.45-1-1-1h-16c-.55 0-1 .45-1 1zm47.001 13c.87 0 1.582-.738 1.582-1.641h-3.164c0 .902.704 1.641 1.582 1.641zm4.746-4.923v-4.103c0-2.519-1.297-4.627-3.56-5.185v-.558c0-.681-.529-1.231-1.186-1.231-.657 0-1.187.55-1.187 1.23v.559c-2.27.558-3.559 2.658-3.559 5.185v4.103l-1.02 1.058c-.499.517-.151 1.403.553 1.403h10.418c.704 0 1.06-.886.561-1.403l-1.02-1.058zM516.171 24c0-.184-.008-.36-.025-.544l1.53-1.128c.33-.24.42-.688.214-1.04l-1.538-2.584a.824.824 0 00-1.029-.336l-1.769.728a6.277 6.277 0 00-.962-.544l-.239-1.848a.817.817 0 00-.814-.704h-3.069a.82.82 0 00-.823.704l-.239 1.848a6.277 6.277 0 00-.962.544l-1.769-.728a.824.824 0 00-1.029.336l-1.538 2.592a.79.79 0 00.214 1.04l1.53 1.128a5.824 5.824 0 000 1.08l-1.53 1.128a.789.789 0 00-.214 1.04l1.538 2.584a.824.824 0 001.029.336l1.769-.728c.304.208.625.392.962.544l.239 1.848c.049.4.403.704.814.704h3.069a.817.817 0 00.815-.704l.238-1.848a6.24 6.24 0 00.963-.544l1.769.728a.824.824 0 001.029-.336l1.538-2.584a.792.792 0 00-.214-1.04l-1.53-1.128c.025-.184.033-.36.033-.544zm-6.138 2.8c-1.588 0-2.88-1.256-2.88-2.8 0-1.544 1.292-2.8 2.88-2.8 1.588 0 2.88 1.256 2.88 2.8 0 1.544-1.292 2.8-2.88 2.8zM552.5 24c1.38 0 2.49-1.12 2.49-2.5s-1.11-2.5-2.49-2.5a2.5 2.5 0 000 5zm-7.5-1c1.66 0 2.99-1.34 2.99-3s-1.33-3-2.99-3c-1.66 0-3 1.34-3 3s1.34 3 3 3zm7.5 3c-1.83 0-5.5.92-5.5 2.75V30c0 .55.45 1 1 1h9c.55 0 1-.45 1-1v-1.25c0-1.83-3.67-2.75-5.5-2.75zm-7.5-1c-2.33 0-7 1.17-7 3.5V30c0 .55.45 1 1 1h6v-2.25c0-.85.33-2.34 2.37-3.47-.87-.18-1.71-.28-2.37-.28zm41-9c-4.416 0-8 3.584-8 8s3.584 8 8 8 8-3.584 8-8-3.584-8-8-8zm0 12c-.44 0-.8-.36-.8-.8V24c0-.44.36-.8.8-.8.44 0 .8.36.8.8v3.2c0 .44-.36.8-.8.8zm.8-6.4h-1.6V20h1.6v1.6zM624 16c-4.416 0-8 3.584-8 8s3.584 8 8 8 8-3.584 8-8-3.584-8-8-8zm0 14.4a6.408 6.408 0 01-6.4-6.4c0-3.528 2.872-6.4 6.4-6.4 3.528 0 6.4 2.872 6.4 6.4 0 3.528-2.872 6.4-6.4 6.4zm-.8-3.2h1.6v1.6h-1.6v-1.6zm1.288-7.968a3.202 3.202 0 00-3.544 2.232.725.725 0 00.696.936h.16c.328 0 .592-.232.704-.536a1.602 1.602 0 011.84-1.024c.76.16 1.32.904 1.256 1.68-.08 1.072-1.296 1.304-1.96 2.304 0 .008-.008.008-.008.016-.008.016-.016.024-.024.04-.072.12-.144.256-.2.4-.008.024-.024.04-.032.064-.008.016-.008.032-.016.056-.096.272-.16.6-.16 1h1.6a1.7 1.7 0 01.224-.856c.016-.024.024-.048.04-.072.064-.112.144-.216.224-.312.008-.008.016-.024.024-.032.08-.096.168-.184.264-.272.768-.728 1.808-1.32 1.592-2.848-.192-1.392-1.288-2.568-2.68-2.776zm32.187 1.54h-2.756a.923.923 0 010-1.846h2.756a.924.924 0 010 1.846zm0 2.768h-2.756a.923.923 0 000 1.846h2.756a.924.924 0 000-1.846zm12.752 5.805l-2.867-2.88a4.559 4.559 0 01-2.756.757c-2.177-.101-4.042-1.809-4.336-3.977-.404-3.092 2.251-5.703 5.356-5.177 1.791.304 3.28 1.707 3.675 3.488a4.63 4.63 0 01-.643 3.6l2.875 2.888a.92.92 0 11-1.304 1.3zm-2.646-6.728a2.77 2.77 0 00-2.756-2.768 2.771 2.771 0 00-2.757 2.768 2.771 2.771 0 002.757 2.769 2.77 2.77 0 002.756-2.769zM653.919 30h7.349a.923.923 0 000-1.846h-7.349a.923.923 0 000 1.846zm49.813-3.682h-.741l-.263-.253a6.096 6.096 0 001.389-5.009c-.441-2.607-2.619-4.69-5.246-5.009a6.103 6.103 0 00-6.823 6.82c.319 2.626 2.402 4.802 5.011 5.243a6.104 6.104 0 005.012-1.388l.253.262v.741l3.989 3.987a.991.991 0 001.398 0 .99.99 0 000-1.398l-3.979-3.996zm-5.631 0a4.216 4.216 0 01-4.223-4.22 4.216 4.216 0 014.223-4.221 4.216 4.216 0 014.223 4.22 4.216 4.216 0 01-4.223 4.221zM738 16c-4.416 0-8 3.584-8 8s3.584 8 8 8 8-3.584 8-8-3.584-8-8-8zm3.2 8.8h-2.4v2.4c0 .44-.36.8-.8.8-.44 0-.8-.36-.8-.8v-2.4h-2.4c-.44 0-.8-.36-.8-.8 0-.44.36-.8.8-.8h2.4v-2.4c0-.44.36-.8.8-.8.44 0 .8.36.8.8v2.4h2.4c.44 0 .8.36.8.8 0 .44-.36.8-.8.8zm41.022-8.8h-12.444c-.978 0-1.769.8-1.769 1.778L768 30.222c0 .978.8 1.778 1.778 1.778h12.444c.978 0 1.778-.8 1.778-1.778V17.778c0-.978-.8-1.778-1.778-1.778zm-1.778 9.778h-2.666v2.666c0 .49-.4.89-.889.89h-1.778a.892.892 0 01-.889-.89v-2.666h-2.666a.892.892 0 01-.889-.89v-1.777c0-.489.4-.889.889-.889h2.666v-2.666c0-.49.4-.89.889-.89h1.778c.489 0 .889.4.889.89v2.666h2.666c.489 0 .889.4.889.89v1.777c0 .489-.4.889-.889.889zm30.887 1.327l-2.919-2.783a.85.85 0 00-1.168 0 .757.757 0 000 1.113l3.495 3.332a.86.86 0 001.176 0l8.841-8.421a.757.757 0 000-1.113.85.85 0 00-1.168 0l-8.257 7.872zM852 16c-4.416 0-8 3.584-8 8s3.584 8 8 8 8-3.584 8-8-3.584-8-8-8zm-2.168 11.432l-2.872-2.872a.797.797 0 111.128-1.128l2.312 2.304 5.504-5.504a.797.797 0 111.128 1.128l-6.072 6.072a.797.797 0 01-1.128 0zm46.857-10.111a1.057 1.057 0 00-1.497 0L890 22.503l-5.192-5.192a1.057 1.057 0 00-1.497 0 1.056 1.056 0 000 1.497L888.503 24l-5.192 5.192a1.056 1.056 0 000 1.497 1.057 1.057 0 001.497 0L890 25.497l5.192 5.192a1.057 1.057 0 001.497 0 1.056 1.056 0 000-1.497L891.497 24l5.192-5.192a1.063 1.063 0 000-1.487zm35.245 4.62h-1.363v-4.117c0-.453-.385-.824-.857-.824h-3.428c-.472 0-.857.37-.857.823v4.118h-1.363c-.763 0-1.149.89-.609 1.408l3.934 3.78a.879.879 0 001.209 0l3.934-3.78c.54-.518.163-1.408-.6-1.408zM922 30.177c0 .452.386.823.857.823h10.286c.471 0 .857-.37.857-.823 0-.453-.386-.824-.857-.824h-10.286c-.471 0-.857.37-.857.823zm40.057-7.614h1.363v4.218c0 .464.386.844.857.844h3.429c.471 0 .857-.38.857-.844v-4.218h1.363c.763 0 1.148-.912.608-1.443l-3.934-3.873a.864.864 0 00-1.209 0l-3.934 3.873c-.54.531-.163 1.442.6 1.442zM960 30.155c0 .464.386.844.857.844h10.286c.471 0 .857-.38.857-.844a.853.853 0 00-.857-.843h-10.286a.853.853 0 00-.857.843zM1003.99 16c-4.414 0-7.99 3.584-7.99 8s3.576 8 7.99 8c4.43 0 8.01-3.584 8.01-8s-3.58-8-8.01-8zm.01 14.4c-3.54 0-6.4-2.864-6.4-6.4 0-3.536 2.86-6.4 6.4-6.4 3.54 0 6.4 2.864 6.4 6.4 0 3.536-2.86 6.4-6.4 6.4zm-.18-10.4h-.04c-.32 0-.58.256-.58.576v3.776c0 .28.14.544.39.688l3.32 1.992c.27.16.63.08.79-.192a.575.575 0 00-.2-.792l-3.1-1.84v-3.632c0-.32-.26-.576-.58-.576z" fill="#494949"/><path d="M1042.63 30.489h-7.85a.77.77 0 00-.78.755c0 .416.35.756.78.756h7.85c.44 0 .79-.34.79-.756 0-.415-.35-.755-.79-.755zm-3.08-11.909l-2.22 2.138 9.99 9.62c.61.589 1.61.589 2.22 0 .61-.59.61-1.55 0-2.139l-9.99-9.62zm6.66 0l-2.22-2.139c-.61-.59-1.61-.59-2.22.008l-1.11 1.065 4.44 4.277 1.11-1.073c.62-.59.62-1.549 0-2.138zm-5.55 7.48l-4.44-4.276-1.11 1.065c-.61.59-.61 1.55 0 2.139l2.23 2.138c.61.59 1.6.59 2.22 0l1.1-1.065zm48.34-5.469c0-.54-.41-.982-.92-.982h-6.43c-.51 0-.92.442-.92.982 0 .541.41.983.92.983h6.43c.51 0 .92-.442.92-.983zm-8.27 7.861c0 .541.41.983.92.983h6.43c.51 0 .92-.442.92-.982s-.41-.983-.92-.983h-6.43c-.51 0-.92.442-.92.983zm-2.32-11.172c.36.383.36 1.002 0 1.386l-3.89 4.176a.879.879 0 01-1.3 0l-1.95-2.093a1.024 1.024 0 010-1.386.867.867 0 011.29 0l1.31 1.396 3.25-3.479a.883.883 0 011.29 0zm.01 7.87c.35.384.35 1.003 0 1.386l-3.89 4.177a.879.879 0 01-1.3 0l-1.96-2.103a1.024 1.024 0 010-1.386.867.867 0 011.29 0l1.31 1.396 3.25-3.479a.886.886 0 011.3.01zm44.25-7.696h-2.79c-.28-.843-1.01-1.454-1.88-1.454-.87 0-1.6.61-1.88 1.454h-2.79c-.73 0-1.33.655-1.33 1.455v11.637c0 .8.6 1.454 1.33 1.454h9.34c.73 0 1.33-.654 1.33-1.454V18.909c0-.8-.6-1.454-1.33-1.454zm-4.67 0c.37 0 .67.328.67.728 0 .4-.3.727-.67.727-.37 0-.67-.327-.67-.727 0-.4.3-.727.67-.727zm4 13.091h-8c-.37 0-.67-.327-.67-.727V19.636c0-.4.3-.727.67-.727h.67v.727c0 .8.6 1.455 1.33 1.455h4c.73 0 1.33-.655 1.33-1.455v-.727h.67c.37 0 .67.327.67.727v10.182c0 .4-.3.727-.67.727zm39.6-10.045h-3.5v-2.1c0-.77-.63-1.4-1.4-1.4h-1.4c-.77 0-1.4.63-1.4 1.4v2.1h-3.5c-.77 0-1.4.63-1.4 1.4v7.7c0 .77.63 1.4 1.4 1.4h11.2c.77 0 1.4-.63 1.4-1.4v-7.7c0-.77-.63-1.4-1.4-1.4zm-6.3-2.1h1.4v3.5h-1.4v-3.5zm-2.8 8.4h-.7a.699.699 0 110-1.4h.7v-.7a.699.699 0 111.4 0v.7h.7a.699.699 0 110 1.4h-.7v.7a.699.699 0 11-1.4 0v-.7zm4.72-1.05a.53.53 0 01-.52-.525.53.53 0 01.52-.525h3.16c.28 0 .52.238.52.525a.53.53 0 01-.52.525h-3.16zm0 2.1a.53.53 0 01-.52-.525.53.53 0 01.52-.525h1.75c.29 0 .53.238.53.525 0 .287-.24.525-.53.525h-1.75zm40.42-4.707c1.51 0 2.71-1.149 2.71-2.572 0-1.422-1.2-2.571-2.71-2.571s-2.73 1.149-2.73 2.571c0 1.423 1.22 2.572 2.73 2.572zm-7.28 0c1.51 0 2.72-1.149 2.72-2.572 0-1.422-1.21-2.571-2.72-2.571-1.51 0-2.72 1.149-2.72 2.571 0 1.423 1.21 2.572 2.72 2.572zm0 1.714c-2.11 0-6.36 1.003-6.36 3v1.286c0 .471.41.857.91.857h10.91c.5 0 .91-.386.91-.857v-1.286c0-1.997-4.25-3-6.37-3zm7.28 0c-.27 0-.57.017-.89.043.02.009.03.026.04.034 1.04.712 1.76 1.663 1.76 2.923v1.286c0 .3-.07.591-.17.857h4.71c.5 0 .91-.386.91-.857v-1.286c0-1.997-4.25-3-6.36-3zM10 56a4 4 0 014-4h12a4 4 0 014 4v12a4 4 0 01-4 4H14a4 4 0 01-4-4V56z" fill="#fff"/><path d="M17 58.648v6.704c0 .511.515.822.91.544l4.815-3.352c.367-.253.367-.835 0-1.094l-4.814-3.346c-.396-.278-.911.033-.911.544z" fill="#253981"/><path d="M54 53c-3.675 0-7 2.946-7 7.501 0 2.909 2.144 6.33 6.422 10.273a.86.86 0 001.164 0C58.856 66.83 61 63.41 61 60.5c0-4.554-3.325-7.5-7-7.5zm0 9.148c-.962 0-1.75-.824-1.75-1.83 0-1.006.788-1.83 1.75-1.83s1.75.824 1.75 1.83c0 1.006-.788 1.83-1.75 1.83zm36.041 6.892v-4.804h3.913v4.803c0 .529.44.961.979.961h2.934a.972.972 0 00.979-.96v-6.725h1.663c.45 0 .665-.548.322-.836l-8.178-7.234a1 1 0 00-1.31 0l-8.179 7.234c-.332.288-.127.836.323.836h1.663v6.724c0 .529.44.961.978.961h2.935a.972.972 0 00.978-.96zM130 54c-4.416 0-8 3.584-8 8s3.584 8 8 8 8-3.584 8-8-3.584-8-8-8zm0 2.4c1.328 0 2.4 1.072 2.4 2.4 0 1.328-1.072 2.4-2.4 2.4a2.397 2.397 0 01-2.4-2.4c0-1.328 1.072-2.4 2.4-2.4zm0 11.36a5.76 5.76 0 01-4.8-2.576c.024-1.592 3.2-2.464 4.8-2.464 1.592 0 4.776.872 4.8 2.464a5.76 5.76 0 01-4.8 2.576zm35 .24l6-6-6-6v12zm37-10.19v8.38c0 .639.686 1.027 1.214.68l6.419-4.19a.82.82 0 000-1.367l-6.419-4.182c-.528-.348-1.214.04-1.214.679zm40.178.4a.806.806 0 000 1.01l2.357 2.78-2.357 2.78a.806.806 0 000 1.01c.237.28.619.28.856 0l2.788-3.288a.807.807 0 000-1.01l-2.788-3.289a.546.546 0 00-.856.008zm35.464 4.446h7.168l-3.132 3.215a.677.677 0 000 .936.628.628 0 00.905 0l4.229-4.342a.667.667 0 000-.93l-4.229-4.342a.628.628 0 00-.905 0 .67.67 0 000 .929l3.132 3.216h-7.168a.653.653 0 00-.642.659c0 .362.289.659.642.659zm45.469-1.032a.575.575 0 00-.824 0l-3.384 3.48-1.236-1.272a.576.576 0 00-.825 0 .617.617 0 000 .848l1.509 1.552a.76.76 0 001.097 0l3.655-3.76a.607.607 0 00.008-.848zm2.333-6.024h-.777v-.8c0-.44-.35-.8-.778-.8a.791.791 0 00-.778.8v.8h-6.222v-.8c0-.44-.35-.8-.778-.8a.791.791 0 00-.778.8v.8h-.777c-.864 0-1.548.72-1.548 1.6L313 68.4c0 .88.692 1.6 1.556 1.6h10.888c.856 0 1.556-.72 1.556-1.6V57.2c0-.88-.7-1.6-1.556-1.6zm-.777 12.8h-9.334a.791.791 0 01-.777-.8v-8h10.888v8c0 .44-.35.8-.777.8zM361.889 54a.791.791 0 00-.778.8v.8h-6.222v-.8c0-.44-.35-.8-.778-.8a.791.791 0 00-.778.8v.8h-.777c-.864 0-1.548.72-1.548 1.6L351 68.4c0 .88.692 1.6 1.556 1.6h10.888c.856 0 1.556-.72 1.556-1.6V57.2c0-.88-.7-1.6-1.556-1.6h-.777v-.8c0-.44-.35-.8-.778-.8zm1.555 14.4h-10.888v-8h10.888v8zm-6.222-5.6c0-.44.35-.8.778-.8.428 0 .778.36.778.8 0 .44-.35.8-.778.8a.791.791 0 01-.778-.8zm-3.111 0c0-.44.35-.8.778-.8.428 0 .778.36.778.8 0 .44-.35.8-.778.8a.791.791 0 01-.778-.8zm6.222 0c0-.44.35-.8.778-.8.428 0 .778.36.778.8 0 .44-.35.8-.778.8a.791.791 0 01-.778-.8zm-3.111 3.2c0-.44.35-.8.778-.8.428 0 .778.36.778.8 0 .44-.35.8-.778.8a.791.791 0 01-.778-.8zm-3.111 0c0-.44.35-.8.778-.8.428 0 .778.36.778.8 0 .44-.35.8-.778.8a.791.791 0 01-.778-.8zm6.222 0c0-.44.35-.8.778-.8.428 0 .778.36.778.8 0 .44-.35.8-.778.8a.791.791 0 01-.778-.8zm30.096-9.037h1.43v.74c0 .815.643 1.482 1.429 1.482h4.289c.786 0 1.429-.667 1.429-1.482v-.74h1.43v3.703h1.429v-3.703c0-.815-.643-1.482-1.429-1.482h-2.988c-.3-.859-1.086-1.481-2.015-1.481-.93 0-1.716.622-2.016 1.481h-2.988c-.786 0-1.429.667-1.429 1.482v10.369c0 .815.643 1.481 1.429 1.481h3.574v-1.481h-3.574v-10.37zm5.004-1.482c.393 0 .714.334.714.741s-.321.74-.714.74a.73.73 0 01-.715-.74.73.73 0 01.715-.74z" fill="#fff"/><path d="M402.794 68.739l-1.429-1.481c.415-.748.679-1.652.365-2.704-.379-1.274-1.459-2.259-2.745-2.385-2.051-.207-3.738 1.534-3.538 3.667a3.364 3.364 0 002.301 2.844c1.022.326 1.887.052 2.609-.378l1.43 1.481a.685.685 0 001 0 .756.756 0 00.007-1.044zm-4.145-1.407c-1.001 0-1.787-.815-1.787-1.852 0-1.037.786-1.852 1.787-1.852s1.787.815 1.787 1.852c0 1.037-.786 1.852-1.787 1.852zM426 68h16c.55 0 1-.45 1-1s-.45-1-1-1h-16c-.55 0-1 .45-1 1s.45 1 1 1zm0-5h16c.55 0 1-.45 1-1s-.45-1-1-1h-16c-.55 0-1 .45-1 1s.45 1 1 1zm-1-6c0 .55.45 1 1 1h16c.55 0 1-.45 1-1s-.45-1-1-1h-16c-.55 0-1 .45-1 1zm47.001 13c.87 0 1.582-.739 1.582-1.641h-3.164c0 .903.704 1.641 1.582 1.641zm4.746-4.923v-4.103c0-2.519-1.297-4.627-3.56-5.185v-.558c0-.681-.529-1.231-1.186-1.231-.657 0-1.187.55-1.187 1.23v.559c-2.27.558-3.559 2.658-3.559 5.185v4.103l-1.02 1.058c-.499.517-.151 1.403.553 1.403h10.418c.704 0 1.06-.886.561-1.403l-1.02-1.058zM516.171 62c0-.184-.008-.36-.025-.544l1.53-1.128c.33-.24.42-.688.214-1.04l-1.538-2.584a.824.824 0 00-1.029-.336l-1.769.728a6.277 6.277 0 00-.962-.544l-.239-1.848a.817.817 0 00-.814-.704h-3.069a.82.82 0 00-.823.704l-.239 1.848a6.277 6.277 0 00-.962.544l-1.769-.728a.824.824 0 00-1.029.336l-1.538 2.592a.79.79 0 00.214 1.04l1.53 1.128a5.824 5.824 0 000 1.08l-1.53 1.128a.789.789 0 00-.214 1.04l1.538 2.584a.824.824 0 001.029.336l1.769-.728c.304.208.625.392.962.544l.239 1.848c.049.4.403.704.814.704h3.069a.817.817 0 00.815-.704l.238-1.848a6.24 6.24 0 00.963-.544l1.769.728a.824.824 0 001.029-.336l1.538-2.584a.792.792 0 00-.214-1.04l-1.53-1.128c.025-.184.033-.36.033-.544zm-6.138 2.8c-1.588 0-2.88-1.256-2.88-2.8 0-1.544 1.292-2.8 2.88-2.8 1.588 0 2.88 1.256 2.88 2.8 0 1.544-1.292 2.8-2.88 2.8zM552.5 62c1.38 0 2.49-1.12 2.49-2.5s-1.11-2.5-2.49-2.5a2.5 2.5 0 000 5zm-7.5-1c1.66 0 2.99-1.34 2.99-3s-1.33-3-2.99-3c-1.66 0-3 1.34-3 3s1.34 3 3 3zm7.5 3c-1.83 0-5.5.92-5.5 2.75V68c0 .55.45 1 1 1h9c.55 0 1-.45 1-1v-1.25c0-1.83-3.67-2.75-5.5-2.75zm-7.5-1c-2.33 0-7 1.17-7 3.5V68c0 .55.45 1 1 1h6v-2.25c0-.85.33-2.34 2.37-3.47-.87-.18-1.71-.28-2.37-.28zm41-9c-4.416 0-8 3.584-8 8s3.584 8 8 8 8-3.584 8-8-3.584-8-8-8zm0 12c-.44 0-.8-.36-.8-.8V62c0-.44.36-.8.8-.8.44 0 .8.36.8.8v3.2c0 .44-.36.8-.8.8zm.8-6.4h-1.6V58h1.6v1.6zM624 54c-4.416 0-8 3.584-8 8s3.584 8 8 8 8-3.584 8-8-3.584-8-8-8zm0 14.4a6.408 6.408 0 01-6.4-6.4c0-3.528 2.872-6.4 6.4-6.4 3.528 0 6.4 2.872 6.4 6.4 0 3.528-2.872 6.4-6.4 6.4zm-.8-3.2h1.6v1.6h-1.6v-1.6zm1.288-7.968a3.202 3.202 0 00-3.544 2.232.725.725 0 00.696.936h.16c.328 0 .592-.232.704-.536a1.602 1.602 0 011.84-1.024c.76.16 1.32.904 1.256 1.68-.08 1.072-1.296 1.304-1.96 2.304 0 .008-.008.008-.008.016-.008.016-.016.024-.024.04-.072.12-.144.256-.2.4-.008.024-.024.04-.032.064-.008.016-.008.032-.016.056-.096.272-.16.6-.16 1h1.6a1.7 1.7 0 01.224-.856c.016-.024.024-.048.04-.072.064-.112.144-.216.224-.312.008-.008.016-.024.024-.032.08-.096.168-.184.264-.272.768-.728 1.808-1.32 1.592-2.848-.192-1.392-1.288-2.568-2.68-2.776zm32.187 1.54h-2.756a.923.923 0 010-1.846h2.756a.924.924 0 010 1.846zm0 2.768h-2.756a.923.923 0 000 1.846h2.756a.924.924 0 000-1.846zm12.752 5.805l-2.867-2.88a4.559 4.559 0 01-2.756.757c-2.177-.101-4.042-1.808-4.336-3.977-.404-3.092 2.251-5.703 5.356-5.177 1.791.304 3.28 1.707 3.675 3.488a4.63 4.63 0 01-.643 3.6l2.875 2.888a.92.92 0 11-1.304 1.3zm-2.646-6.728a2.77 2.77 0 00-2.756-2.768 2.771 2.771 0 00-2.757 2.768 2.771 2.771 0 002.757 2.769 2.77 2.77 0 002.756-2.769zM653.919 68h7.349a.923.923 0 000-1.846h-7.349a.923.923 0 000 1.846zm49.813-3.682h-.741l-.263-.253a6.096 6.096 0 001.389-5.009c-.441-2.607-2.619-4.69-5.246-5.008a6.103 6.103 0 00-6.823 6.819c.319 2.626 2.402 4.802 5.011 5.243a6.104 6.104 0 005.012-1.388l.253.262v.741l3.989 3.987a.991.991 0 001.398 0 .99.99 0 000-1.398l-3.979-3.996zm-5.631 0a4.216 4.216 0 01-4.223-4.22 4.216 4.216 0 014.223-4.221 4.216 4.216 0 014.223 4.22 4.216 4.216 0 01-4.223 4.221zM738 54c-4.416 0-8 3.584-8 8s3.584 8 8 8 8-3.584 8-8-3.584-8-8-8zm3.2 8.8h-2.4v2.4c0 .44-.36.8-.8.8-.44 0-.8-.36-.8-.8v-2.4h-2.4c-.44 0-.8-.36-.8-.8 0-.44.36-.8.8-.8h2.4v-2.4c0-.44.36-.8.8-.8.44 0 .8.36.8.8v2.4h2.4c.44 0 .8.36.8.8 0 .44-.36.8-.8.8zm41.022-8.8h-12.444c-.978 0-1.769.8-1.769 1.778L768 68.222c0 .978.8 1.778 1.778 1.778h12.444c.978 0 1.778-.8 1.778-1.778V55.778c0-.978-.8-1.778-1.778-1.778zm-1.778 9.778h-2.666v2.666c0 .49-.4.89-.889.89h-1.778a.892.892 0 01-.889-.89v-2.666h-2.666a.892.892 0 01-.889-.89v-1.777c0-.489.4-.889.889-.889h2.666v-2.666c0-.49.4-.89.889-.89h1.778c.489 0 .889.4.889.89v2.666h2.666c.489 0 .889.4.889.89v1.777c0 .489-.4.889-.889.889zm30.887 1.327l-2.919-2.783a.85.85 0 00-1.168 0 .757.757 0 000 1.113l3.495 3.332a.86.86 0 001.176 0l8.841-8.421a.757.757 0 000-1.113.85.85 0 00-1.168 0l-8.257 7.872zM852 54c-4.416 0-8 3.584-8 8s3.584 8 8 8 8-3.584 8-8-3.584-8-8-8zm-2.168 11.432l-2.872-2.872a.797.797 0 111.128-1.128l2.312 2.304 5.504-5.504a.797.797 0 111.128 1.128l-6.072 6.072a.797.797 0 01-1.128 0zm46.857-10.111a1.057 1.057 0 00-1.497 0L890 60.503l-5.192-5.192a1.057 1.057 0 00-1.497 0 1.056 1.056 0 000 1.497L888.503 62l-5.192 5.192a1.056 1.056 0 000 1.497 1.057 1.057 0 001.497 0L890 63.497l5.192 5.192a1.057 1.057 0 001.497 0 1.056 1.056 0 000-1.497L891.497 62l5.192-5.192a1.063 1.063 0 000-1.487zm35.245 4.62h-1.363v-4.117c0-.453-.385-.824-.857-.824h-3.428c-.472 0-.857.37-.857.824v4.117h-1.363c-.763 0-1.149.89-.609 1.408l3.934 3.78a.879.879 0 001.209 0l3.934-3.78c.54-.518.163-1.408-.6-1.408zM922 68.177c0 .452.386.823.857.823h10.286c.471 0 .857-.37.857-.823 0-.454-.386-.824-.857-.824h-10.286c-.471 0-.857.37-.857.824zm40.057-7.614h1.363v4.218c0 .464.386.844.857.844h3.429c.471 0 .857-.38.857-.844v-4.219h1.363c.763 0 1.148-.91.608-1.442l-3.934-3.873a.864.864 0 00-1.209 0l-3.934 3.873c-.54.531-.163 1.443.6 1.443zM960 68.156c0 .464.386.844.857.844h10.286c.471 0 .857-.38.857-.844a.853.853 0 00-.857-.844h-10.286a.853.853 0 00-.857.844zM1003.99 54c-4.414 0-7.99 3.584-7.99 8s3.576 8 7.99 8c4.43 0 8.01-3.584 8.01-8s-3.58-8-8.01-8zm.01 14.4c-3.54 0-6.4-2.864-6.4-6.4 0-3.536 2.86-6.4 6.4-6.4 3.54 0 6.4 2.864 6.4 6.4 0 3.536-2.86 6.4-6.4 6.4zm-.18-10.4h-.04c-.32 0-.58.256-.58.576v3.776c0 .28.14.544.39.688l3.32 1.992c.27.16.63.08.79-.192a.575.575 0 00-.2-.792l-3.1-1.84v-3.632c0-.32-.26-.576-.58-.576z" fill="#fff"/><path d="M1042.63 68.489h-7.85a.77.77 0 00-.78.755c0 .416.35.756.78.756h7.85c.44 0 .79-.34.79-.756 0-.415-.35-.755-.79-.755zm-3.08-11.909l-2.22 2.138 9.99 9.62c.61.589 1.61.589 2.22 0 .61-.59.61-1.55 0-2.139l-9.99-9.62zm6.66 0l-2.22-2.139c-.61-.59-1.61-.59-2.22.008l-1.11 1.065 4.44 4.277 1.11-1.073c.62-.59.62-1.549 0-2.138zm-5.55 7.48l-4.44-4.276-1.11 1.065c-.61.59-.61 1.55 0 2.139l2.23 2.138c.61.59 1.6.59 2.22 0l1.1-1.065zm48.34-5.468c0-.54-.41-.983-.92-.983h-6.43c-.51 0-.92.442-.92.983 0 .54.41.982.92.982h6.43c.51 0 .92-.442.92-.982zm-8.27 7.86c0 .541.41.983.92.983h6.43c.51 0 .92-.442.92-.983 0-.54-.41-.982-.92-.982h-6.43c-.51 0-.92.442-.92.983zm-2.32-11.172c.36.383.36 1.002 0 1.386l-3.89 4.176a.879.879 0 01-1.3 0l-1.95-2.093a1.024 1.024 0 010-1.386.867.867 0 011.29 0l1.31 1.396 3.25-3.479a.883.883 0 011.29 0zm.01 7.87c.35.384.35 1.003 0 1.386l-3.89 4.177a.879.879 0 01-1.3 0l-1.96-2.103a1.024 1.024 0 010-1.386.867.867 0 011.29 0l1.31 1.396 3.25-3.479a.886.886 0 011.3.01zm44.25-7.695h-2.79c-.28-.844-1.01-1.455-1.88-1.455-.87 0-1.6.61-1.88 1.455h-2.79c-.73 0-1.33.654-1.33 1.454v11.637c0 .8.6 1.454 1.33 1.454h9.34c.73 0 1.33-.654 1.33-1.454V56.909c0-.8-.6-1.454-1.33-1.454zm-4.67 0c.37 0 .67.327.67.727 0 .4-.3.727-.67.727-.37 0-.67-.327-.67-.727 0-.4.3-.727.67-.727zm4 13.09h-8c-.37 0-.67-.327-.67-.727V57.636c0-.4.3-.727.67-.727h.67v.727c0 .8.6 1.455 1.33 1.455h4c.73 0 1.33-.655 1.33-1.455v-.727h.67c.37 0 .67.327.67.727v10.182c0 .4-.3.728-.67.728zm39.6-10.045h-3.5v-2.1c0-.77-.63-1.4-1.4-1.4h-1.4c-.77 0-1.4.63-1.4 1.4v2.1h-3.5c-.77 0-1.4.63-1.4 1.4v7.7c0 .77.63 1.4 1.4 1.4h11.2c.77 0 1.4-.63 1.4-1.4v-7.7c0-.77-.63-1.4-1.4-1.4zm-6.3-2.1h1.4v3.5h-1.4v-3.5zm-2.8 8.4h-.7a.699.699 0 110-1.4h.7v-.7a.699.699 0 111.4 0v.7h.7a.699.699 0 110 1.4h-.7v.7a.699.699 0 11-1.4 0v-.7zm4.72-1.05a.53.53 0 01-.52-.525.53.53 0 01.52-.525h3.16c.28 0 .52.238.52.525a.53.53 0 01-.52.525h-3.16zm0 2.1a.53.53 0 01-.52-.525.53.53 0 01.52-.525h1.75c.29 0 .53.238.53.525 0 .287-.24.525-.53.525h-1.75zm40.42-4.707c1.51 0 2.71-1.149 2.71-2.572 0-1.422-1.2-2.571-2.71-2.571s-2.73 1.149-2.73 2.571c0 1.423 1.22 2.572 2.73 2.572zm-7.28 0c1.51 0 2.72-1.149 2.72-2.572 0-1.422-1.21-2.571-2.72-2.571-1.51 0-2.72 1.149-2.72 2.571 0 1.423 1.21 2.572 2.72 2.572zm0 1.714c-2.11 0-6.36 1.003-6.36 3v1.286c0 .471.41.857.91.857h10.91c.5 0 .91-.386.91-.857v-1.286c0-1.997-4.25-3-6.37-3zm7.28 0c-.27 0-.57.017-.89.043.02.009.03.026.04.034 1.04.712 1.76 1.663 1.76 2.923v1.286c0 .3-.07.591-.17.857h4.71c.5 0 .91-.386.91-.857v-1.286c0-1.997-4.25-3-6.36-3z" fill="#253981"/></svg>