<svg width="122" height="66" fill="none" xmlns="http://www.w3.org/2000/svg"><rect x="10.5" y="10.5" width="17" height="17" rx="3.5" fill="#fff"/><rect x="10.5" y="10.5" width="17" height="17" rx="3.5" stroke="#D2D2D1"/><rect x="38.5" y="10.5" width="17" height="17" rx="3.5" fill="#E9E9E9"/><rect x="38.5" y="10.5" width="17" height="17" rx="3.5" stroke="#D2D2D1"/><rect x="66.5" y="10.5" width="17" height="17" rx="3.5" fill="#253981"/><path d="M72.712 21.795L70.21 19.29a.703.703 0 00-1 0 .705.705 0 000 1.002l2.995 2.999a.712.712 0 001.008 0l7.578-7.58a.705.705 0 000-1.002.703.703 0 00-1.001 0l-7.078 7.086z" fill="#fff"/><rect x="66.5" y="10.5" width="17" height="17" rx="3.5" stroke="#D2D2D1"/><rect x="94.5" y="10.5" width="17" height="17" rx="3.5" fill="#D2D2D1"/><path d="M99.95 22.726l-3.337-3.34a.937.937 0 00-1.334 0 .94.94 0 000 1.337l3.994 3.998a.949.949 0 001.344 0l10.104-10.106a.94.94 0 000-1.336.937.937 0 00-1.334 0l-9.437 9.447z" fill="#fff"/><rect x="94.5" y="10.5" width="17" height="17" rx="3.5" stroke="#D2D2D1"/><rect x="10.5" y="38.5" width="17" height="17" rx="8.5" fill="#fff"/><rect x="10.5" y="38.5" width="17" height="17" rx="8.5" stroke="#D2D2D1"/><rect x="38.5" y="38.5" width="17" height="17" rx="8.5" fill="#A4A4A4"/><rect x="38.5" y="38.5" width="17" height="17" rx="8.5" stroke="#D2D2D1"/><rect x="66.5" y="38.5" width="17" height="17" rx="8.5" fill="#fff"/><rect x="69" y="41" width="12" height="12" rx="6" fill="#253981"/><rect x="66.5" y="38.5" width="17" height="17" rx="8.5" stroke="#D2D2D1"/><rect x="94.5" y="38.5" width="17" height="17" rx="8.5" fill="#fff"/><rect x="97" y="41" width="12" height="12" rx="6" fill="#A4A4A4"/><rect x="94.5" y="38.5" width="17" height="17" rx="8.5" stroke="#D2D2D1"/></svg>