<svg width="1206" height="218" viewBox="0 0 1206 218" fill="none" xmlns="http://www.w3.org/2000/svg">
<path d="M14 18.7574C14.2526 18.7574 14.4631 18.6698 14.6316 18.4946C14.8 18.3195 14.8842 18.1053 14.8842 17.852C14.8842 17.6 14.7966 17.3861 14.6214 17.2103C14.4456 17.0352 14.2314 16.9476 13.9788 16.9476C13.7262 16.9476 13.5156 17.0352 13.3472 17.2103C13.1788 17.3861 13.0946 17.6 13.0946 17.852C13.0946 18.1053 13.1825 18.3195 13.3583 18.4946C13.5335 18.6698 13.7474 18.7574 14 18.7574ZM14.0424 10.4421C14.4776 10.4421 14.8283 10.5546 15.0944 10.7796C15.3611 11.0039 15.4945 11.2986 15.4945 11.6638C15.4945 11.9022 15.4244 12.1478 15.2843 12.4004C15.1435 12.653 14.933 12.8986 14.6528 13.137C14.2176 13.5156 13.9054 13.8595 13.7161 14.1687C13.5268 14.4773 13.425 14.7929 13.4109 15.1156C13.3967 15.2698 13.4422 15.4032 13.5473 15.5157C13.6524 15.6282 13.7962 15.6845 13.9788 15.6845C14.1472 15.6845 14.2947 15.6316 14.4214 15.5258C14.5473 15.4207 14.6245 15.2769 14.6528 15.0944C14.6945 14.87 14.7858 14.6561 14.9266 14.4527C15.0667 14.2493 15.2911 13.9933 15.5996 13.6847C16.0489 13.263 16.3507 12.8979 16.505 12.5894C16.6593 12.2808 16.7364 11.9369 16.7364 11.5577C16.7364 10.8699 16.4945 10.3158 16.0109 9.89542C15.5265 9.47371 14.8912 9.26285 14.1051 9.26285C13.5857 9.26285 13.1155 9.37535 12.6945 9.60035C12.2734 9.82468 11.9016 10.1544 11.5789 10.5896C11.4947 10.7021 11.4738 10.8284 11.5162 10.9685C11.558 11.1087 11.6422 11.2279 11.7689 11.3263C11.8948 11.4388 12.0525 11.4775 12.2418 11.4425C12.4317 11.4074 12.5897 11.3057 12.7157 11.1373C12.8841 10.9264 13.07 10.758 13.2735 10.6321C13.4769 10.5054 13.7332 10.4421 14.0424 10.4421ZM14 22C12.8912 22 11.8527 21.7895 10.8847 21.3684C9.91596 20.9474 9.07019 20.3788 8.34735 19.6628C7.62452 18.9473 7.05259 18.1019 6.63155 17.1264C6.21052 16.151 6 15.1088 6 14C6 12.8912 6.21052 11.849 6.63155 10.8736C7.05259 9.89811 7.62452 9.05267 8.34735 8.33725C9.07019 7.62115 9.91596 7.05259 10.8847 6.63155C11.8527 6.21052 12.8912 6 14 6C15.123 6 16.1685 6.21052 17.1365 6.63155C18.1053 7.05259 18.951 7.62115 19.6739 8.33725C20.3967 9.05267 20.9649 9.89811 21.3786 10.8736C21.7929 11.849 22 12.8912 22 14C22 15.1088 21.7929 16.151 21.3786 17.1264C20.9649 18.1019 20.3967 18.9473 19.6739 19.6628C18.951 20.3788 18.1053 20.9474 17.1365 21.3684C16.1685 21.7895 15.123 22 14 22ZM14 20.652C15.8667 20.652 17.442 20.0029 18.726 18.7048C20.01 17.4067 20.652 15.8384 20.652 14C20.652 12.1616 20.01 10.5933 18.726 9.29519C17.442 7.99705 15.8667 7.34799 14 7.34799C12.1616 7.34799 10.5933 7.99705 9.29519 9.29519C7.99705 10.5933 7.34799 12.1616 7.34799 14C7.34799 15.8384 7.99705 17.4067 9.29519 18.7048C10.5933 20.0029 12.1616 20.652 14 20.652Z" fill="#A4A4A4"/>
<path d="M14 56.7574C14.2526 56.7574 14.4631 56.6698 14.6316 56.4946C14.8 56.3195 14.8842 56.1053 14.8842 55.852C14.8842 55.6 14.7966 55.3861 14.6214 55.2103C14.4456 55.0352 14.2314 54.9476 13.9788 54.9476C13.7262 54.9476 13.5156 55.0352 13.3472 55.2103C13.1788 55.3861 13.0946 55.6 13.0946 55.852C13.0946 56.1053 13.1825 56.3195 13.3583 56.4946C13.5335 56.6698 13.7474 56.7574 14 56.7574ZM14.0424 48.4421C14.4776 48.4421 14.8283 48.5546 15.0944 48.7796C15.3611 49.0039 15.4945 49.2986 15.4945 49.6638C15.4945 49.9022 15.4244 50.1478 15.2843 50.4004C15.1435 50.653 14.933 50.8986 14.6528 51.137C14.2176 51.5156 13.9054 51.8595 13.7161 52.1687C13.5268 52.4773 13.425 52.7929 13.4109 53.1156C13.3967 53.2698 13.4422 53.4032 13.5473 53.5157C13.6524 53.6282 13.7962 53.6845 13.9788 53.6845C14.1472 53.6845 14.2947 53.6316 14.4214 53.5258C14.5473 53.4207 14.6245 53.2769 14.6528 53.0944C14.6945 52.87 14.7858 52.6561 14.9266 52.4527C15.0667 52.2493 15.2911 51.9933 15.5996 51.6847C16.0489 51.263 16.3507 50.8979 16.505 50.5894C16.6593 50.2808 16.7364 49.9369 16.7364 49.5577C16.7364 48.8699 16.4945 48.3158 16.0109 47.8954C15.5265 47.4737 14.8912 47.2629 14.1051 47.2629C13.5857 47.2629 13.1155 47.3754 12.6945 47.6004C12.2734 47.8247 11.9016 48.1544 11.5789 48.5896C11.4947 48.7021 11.4738 48.8284 11.5162 48.9685C11.558 49.1087 11.6422 49.2279 11.7689 49.3263C11.8948 49.4388 12.0525 49.4775 12.2418 49.4425C12.4317 49.4074 12.5897 49.3057 12.7157 49.1373C12.8841 48.9264 13.07 48.758 13.2735 48.6321C13.4769 48.5054 13.7332 48.4421 14.0424 48.4421ZM14 60C12.8912 60 11.8527 59.7895 10.8847 59.3684C9.91596 58.9474 9.07019 58.3788 8.34735 57.6628C7.62452 56.9473 7.05259 56.1019 6.63155 55.1264C6.21052 54.151 6 53.1088 6 52C6 50.8912 6.21052 49.849 6.63155 48.8736C7.05259 47.8981 7.62452 47.0527 8.34735 46.3372C9.07019 45.6212 9.91596 45.0526 10.8847 44.6316C11.8527 44.2105 12.8912 44 14 44C15.123 44 16.1685 44.2105 17.1365 44.6316C18.1053 45.0526 18.951 45.6212 19.6739 46.3372C20.3967 47.0527 20.9649 47.8981 21.3786 48.8736C21.7929 49.849 22 50.8912 22 52C22 53.1088 21.7929 54.151 21.3786 55.1264C20.9649 56.1019 20.3967 56.9473 19.6739 57.6628C18.951 58.3788 18.1053 58.9474 17.1365 59.3684C16.1685 59.7895 15.123 60 14 60ZM14 58.652C15.8667 58.652 17.442 58.0029 18.726 56.7048C20.01 55.4067 20.652 53.8384 20.652 52C20.652 50.1616 20.01 48.5933 18.726 47.2952C17.442 45.9971 15.8667 45.348 14 45.348C12.1616 45.348 10.5933 45.9971 9.29519 47.2952C7.99705 48.5933 7.34799 50.1616 7.34799 52C7.34799 53.8384 7.99705 55.4067 9.29519 56.7048C10.5933 58.0029 12.1616 58.652 14 58.652Z" fill="#2F7AD3"/>
<path d="M14 93.568C14.1895 93.568 14.3474 93.5023 14.4737 93.371C14.6 93.2396 14.6631 93.0789 14.6631 92.889C14.6631 92.7 14.5974 92.5396 14.4661 92.4077C14.3342 92.2764 14.1736 92.2107 13.9841 92.2107C13.7946 92.2107 13.6367 92.2764 13.5104 92.4077C13.3841 92.5396 13.321 92.7 13.321 92.889C13.321 93.0789 13.3869 93.2396 13.5188 93.371C13.6501 93.5023 13.8105 93.568 14 93.568ZM14.0318 87.3316C14.3582 87.3316 14.6212 87.4159 14.8208 87.5847C15.0208 87.7529 15.1209 87.974 15.1209 88.2478C15.1209 88.4267 15.0683 88.6108 14.9632 88.8003C14.8576 88.9898 14.6998 89.1739 14.4896 89.3528C14.1632 89.6367 13.929 89.8947 13.787 90.1266C13.6451 90.358 13.5688 90.5947 13.5582 90.8367C13.5476 90.9524 13.5817 91.0524 13.6605 91.1368C13.7393 91.2212 13.8472 91.2634 13.9841 91.2634C14.1104 91.2634 14.221 91.2237 14.316 91.1444C14.4105 91.0656 14.4684 90.9577 14.4896 90.8208C14.5209 90.6525 14.5894 90.4921 14.695 90.3395C14.8001 90.1869 14.9683 89.9949 15.1997 89.7635C15.5367 89.4473 15.763 89.1734 15.8787 88.942C15.9944 88.7106 16.0523 88.4527 16.0523 88.1682C16.0523 87.6524 15.8709 87.2368 15.5081 86.9216C15.1449 86.6053 14.6684 86.4471 14.0788 86.4471C13.6893 86.4471 13.3366 86.5315 13.0208 86.7003C12.7051 86.8685 12.4262 87.1158 12.1842 87.4422C12.121 87.5266 12.1053 87.6213 12.1372 87.7264C12.1685 87.8315 12.2317 87.9209 12.3266 87.9947C12.4211 88.0791 12.5393 88.1081 12.6813 88.0818C12.8238 88.0556 12.9423 87.9793 13.0368 87.853C13.1631 87.6948 13.3025 87.5685 13.4551 87.474C13.6077 87.3791 13.7999 87.3316 14.0318 87.3316ZM14 96C13.1684 96 12.3895 95.8421 11.6635 95.5263C10.937 95.2106 10.3026 94.7841 9.76052 94.2471C9.21839 93.7105 8.78944 93.0764 8.47366 92.3448C8.15789 91.6132 8 90.8316 8 90C8 89.1684 8.15789 88.3868 8.47366 87.6552C8.78944 86.9236 9.21839 86.2895 9.76052 85.7529C10.3026 85.2159 10.937 84.7894 11.6635 84.4737C12.3895 84.1579 13.1684 84 14 84C14.8422 84 15.6264 84.1579 16.3524 84.4737C17.0789 84.7894 17.7133 85.2159 18.2554 85.7529C18.7975 86.2895 19.2237 86.9236 19.5339 87.6552C19.8446 88.3868 20 89.1684 20 90C20 90.8316 19.8446 91.6132 19.5339 92.3448C19.2237 93.0764 18.7975 93.7105 18.2554 94.2471C17.7133 94.7841 17.0789 95.2106 16.3524 95.5263C15.6264 95.8421 14.8422 96 14 96ZM14 94.989C15.4 94.989 16.5815 94.5022 17.5445 93.5286C18.5075 92.555 18.989 91.3788 18.989 90C18.989 88.6212 18.5075 87.445 17.5445 86.4714C16.5815 85.4978 15.4 85.011 14 85.011C12.6212 85.011 11.445 85.4978 10.4714 86.4714C9.49779 87.445 9.01099 88.6212 9.01099 90C9.01099 91.3788 9.49779 92.555 10.4714 93.5286C11.445 94.5022 12.6212 94.989 14 94.989Z" fill="#A4A4A4"/>
<path d="M51.1 9.5H52.9V11.3H51.1V9.5ZM51.1 13.1H52.9V18.5H51.1V13.1ZM52 5C47.032 5 43 9.032 43 14C43 18.968 47.032 23 52 23C56.968 23 61 18.968 61 14C61 9.032 56.968 5 52 5ZM52 21.2C48.031 21.2 44.8 17.969 44.8 14C44.8 10.031 48.031 6.8 52 6.8C55.969 6.8 59.2 10.031 59.2 14C59.2 17.969 55.969 21.2 52 21.2Z" fill="#2F7AD3"/>
<path d="M93.7895 12.1777C93.5101 11.9408 93.0588 11.9408 92.7794 12.1777L89.9995 14.5345L87.2197 12.1777C86.9403 11.9408 86.489 11.9408 86.2096 12.1777C85.9301 12.4146 85.9301 12.7973 86.2096 13.0342L89.498 15.8223C89.7775 16.0592 90.2288 16.0592 90.5082 15.8223L93.7967 13.0342C94.0689 12.8033 94.0689 12.4146 93.7895 12.1777Z" fill="#A4A4A4"/>
<path d="M93.7895 50.1777C93.5101 49.9408 93.0588 49.9408 92.7794 50.1777L89.9995 52.5345L87.2197 50.1777C86.9403 49.9408 86.489 49.9408 86.2096 50.1777C85.9301 50.4146 85.9301 50.7973 86.2096 51.0342L89.498 53.8223C89.7775 54.0592 90.2288 54.0592 90.5082 53.8223L93.7967 51.0342C94.0689 50.8033 94.0689 50.4146 93.7895 50.1777Z" fill="#2F7AD3"/>
<path d="M93.7895 88.1777C93.5101 87.9408 93.0588 87.9408 92.7794 88.1777L89.9995 90.5345L87.2197 88.1777C86.9403 87.9408 86.489 87.9408 86.2096 88.1777C85.9301 88.4146 85.9301 88.7973 86.2096 89.0342L89.498 91.8223C89.7775 92.0592 90.2288 92.0592 90.5082 91.8223L93.7967 89.0342C94.0689 88.8033 94.0689 88.4146 93.7895 88.1777Z" fill="#253981"/>
<path d="M93.7895 126.178C93.5101 125.941 93.0588 125.941 92.7794 126.178L89.9995 128.535L87.2197 126.178C86.9403 125.941 86.489 125.941 86.2096 126.178C85.9301 126.415 85.9301 126.797 86.2096 127.034L89.498 129.822C89.7775 130.059 90.2288 130.059 90.5082 129.822L93.7967 127.034C94.0689 126.803 94.0689 126.415 93.7895 126.178Z" fill="white"/>
<path d="M93.7895 164.178C93.5101 163.941 93.0588 163.941 92.7794 164.178L89.9995 166.535L87.2197 164.178C86.9403 163.941 86.489 163.941 86.2096 164.178C85.9301 164.415 85.9301 164.797 86.2096 165.034L89.498 167.822C89.7775 168.059 90.2288 168.059 90.5082 167.822L93.7967 165.034C94.0689 164.803 94.0689 164.415 93.7895 164.178Z" fill="#1C1C1B"/>
<path d="M131.79 10.1777C131.51 9.94077 131.059 9.94077 130.779 10.1777L128 12.5345L125.22 10.1777C124.94 9.94077 124.489 9.94077 124.21 10.1777C123.93 10.4146 123.93 10.7973 124.21 11.0342L127.498 13.8223C127.777 14.0592 128.229 14.0592 128.508 13.8223L131.797 11.0342C132.069 10.8033 132.069 10.4146 131.79 10.1777Z" fill="#A4A4A4"/>
<path d="M131.79 14.1777C131.51 13.9408 131.059 13.9408 130.779 14.1777L128 16.5345L125.22 14.1777C124.94 13.9408 124.489 13.9408 124.21 14.1777C123.93 14.4146 123.93 14.7973 124.21 15.0342L127.498 17.8223C127.777 18.0592 128.229 18.0592 128.508 17.8223L131.797 15.0342C132.069 14.8033 132.069 14.4146 131.79 14.1777Z" fill="#A4A4A4"/>
<path d="M176.421 9.44419C175.653 8.85194 174.412 8.85194 173.643 9.44419L165.999 15.3364L158.354 9.44419C157.586 8.85194 156.345 8.85194 155.576 9.44419C154.808 10.0364 154.808 10.9932 155.576 11.5854L164.62 18.5558C165.388 19.1481 166.629 19.1481 167.398 18.5558L176.441 11.5854C177.19 11.0084 177.19 10.0364 176.421 9.44419Z" fill="white"/>
<path d="M176.421 47.4442C175.653 46.8519 174.412 46.8519 173.643 47.4442L165.999 53.3364L158.354 47.4442C157.586 46.8519 156.345 46.8519 155.576 47.4442C154.808 48.0364 154.808 48.9932 155.576 49.5854L164.62 56.5558C165.388 57.1481 166.629 57.1481 167.398 56.5558L176.441 49.5854C177.19 49.0084 177.19 48.0364 176.421 47.4442Z" fill="#E9E9E9"/>
<path d="M176.421 85.4442C175.653 84.8519 174.412 84.8519 173.643 85.4442L165.999 91.3364L158.354 85.4442C157.586 84.8519 156.345 84.8519 155.576 85.4442C154.808 86.0364 154.808 86.9932 155.576 87.5854L164.62 94.5558C165.388 95.1481 166.629 95.1481 167.398 94.5558L176.441 87.5854C177.19 87.0084 177.19 86.0364 176.421 85.4442Z" fill="#A4A4A4"/>
<path d="M192 2.26804V25.732C192 27.5212 194.058 28.6083 195.643 27.6344L214.9 15.9025C216.367 15.0192 216.367 12.9808 214.9 12.0749L195.643 0.365558C194.058 -0.608331 192 0.478801 192 2.26804Z" fill="#ECF1F8"/>
<path d="M192 40.268V63.732C192 65.5212 194.058 66.6083 195.643 65.6344L214.9 53.9025C216.367 53.0192 216.367 50.9808 214.9 50.0749L195.643 38.3656C194.058 37.3917 192 38.4788 192 40.268Z" fill="#253981"/>
<path d="M245.333 7C244.967 7 244.667 7.315 244.667 7.7V8.4H239.333V7.7C239.333 7.315 239.033 7 238.667 7C238.3 7 238 7.315 238 7.7V8.4H237.333C236.593 8.4 236.007 9.03 236.007 9.8L236 19.6C236 20.37 236.593 21 237.333 21H246.667C247.4 21 248 20.37 248 19.6V9.8C248 9.03 247.4 8.4 246.667 8.4H246V7.7C246 7.315 245.7 7 245.333 7ZM246.667 19.6H237.333V12.6H246.667V19.6ZM241.333 14.7C241.333 14.315 241.633 14 242 14C242.367 14 242.667 14.315 242.667 14.7C242.667 15.085 242.367 15.4 242 15.4C241.633 15.4 241.333 15.085 241.333 14.7ZM238.667 14.7C238.667 14.315 238.967 14 239.333 14C239.7 14 240 14.315 240 14.7C240 15.085 239.7 15.4 239.333 15.4C238.967 15.4 238.667 15.085 238.667 14.7ZM244 14.7C244 14.315 244.3 14 244.667 14C245.033 14 245.333 14.315 245.333 14.7C245.333 15.085 245.033 15.4 244.667 15.4C244.3 15.4 244 15.085 244 14.7ZM241.333 17.5C241.333 17.115 241.633 16.8 242 16.8C242.367 16.8 242.667 17.115 242.667 17.5C242.667 17.885 242.367 18.2 242 18.2C241.633 18.2 241.333 17.885 241.333 17.5ZM238.667 17.5C238.667 17.115 238.967 16.8 239.333 16.8C239.7 16.8 240 17.115 240 17.5C240 17.885 239.7 18.2 239.333 18.2C238.967 18.2 238.667 17.885 238.667 17.5ZM244 17.5C244 17.115 244.3 16.8 244.667 16.8C245.033 16.8 245.333 17.115 245.333 17.5C245.333 17.885 245.033 18.2 244.667 18.2C244.3 18.2 244 17.885 244 17.5Z" fill="#A4A4A4"/>
<path d="M279.993 7C276.129 7 273 10.136 273 14C273 17.864 276.129 21 279.993 21C283.864 21 287 17.864 287 14C287 10.136 283.864 7 279.993 7ZM280 19.6C276.906 19.6 274.4 17.094 274.4 14C274.4 10.906 276.906 8.4 280 8.4C283.094 8.4 285.6 10.906 285.6 14C285.6 17.094 283.094 19.6 280 19.6ZM279.846 10.5H279.804C279.524 10.5 279.3 10.724 279.3 11.004V14.308C279.3 14.553 279.426 14.784 279.643 14.91L282.548 16.653C282.786 16.793 283.094 16.723 283.234 16.485C283.381 16.247 283.304 15.932 283.059 15.792L280.35 14.182V11.004C280.35 10.724 280.126 10.5 279.846 10.5Z" fill="#A4A4A4"/>
<path d="M321.266 16.0285H320.617L320.387 15.8069C321.372 14.6579 321.881 13.0903 321.602 11.4242C321.216 9.1426 319.311 7.3206 317.012 7.04155C313.538 6.61477 310.615 9.53655 311.042 13.0082C311.321 15.3062 313.144 17.2103 315.427 17.596C317.094 17.8751 318.662 17.3662 319.812 16.3814L320.034 16.6112V17.2596L323.524 20.7476C323.861 21.0841 324.411 21.0841 324.747 20.7476C325.084 20.4111 325.084 19.8612 324.747 19.5247L321.266 16.0285ZM316.338 16.0285C314.294 16.0285 312.643 14.3788 312.643 12.3352C312.643 10.2916 314.294 8.64196 316.338 8.64196C318.383 8.64196 320.034 10.2916 320.034 12.3352C320.034 14.3788 318.383 16.0285 316.338 16.0285Z" fill="#A4A4A4"/>
<path d="M362.689 7.3212C362.275 6.90709 361.606 6.90709 361.192 7.3212L356 12.5028L350.808 7.31058C350.394 6.89647 349.725 6.89647 349.311 7.31058C348.896 7.72469 348.896 8.39363 349.311 8.80774L354.503 14L349.311 19.1923C348.896 19.6064 348.896 20.2753 349.311 20.6894C349.725 21.1035 350.394 21.1035 350.808 20.6894L356 15.4972L361.192 20.6894C361.606 21.1035 362.275 21.1035 362.689 20.6894C363.104 20.2753 363.104 19.6064 362.689 19.1923L357.497 14L362.689 8.80774C363.093 8.40425 363.093 7.72469 362.689 7.3212Z" fill="#A4A4A4"/>
<path d="M362.689 45.3212C362.275 44.9071 361.606 44.9071 361.192 45.3212L356 50.5028L350.808 45.3106C350.394 44.8965 349.725 44.8965 349.311 45.3106C348.896 45.7247 348.896 46.3936 349.311 46.8077L354.503 52L349.311 57.1923C348.896 57.6064 348.896 58.2753 349.311 58.6894C349.725 59.1035 350.394 59.1035 350.808 58.6894L356 53.4972L361.192 58.6894C361.606 59.1035 362.275 59.1035 362.689 58.6894C363.104 58.2753 363.104 57.6064 362.689 57.1923L357.497 52L362.689 46.8077C363.093 46.4042 363.093 45.7247 362.689 45.3212Z" fill="#2F7AD3"/>
<path d="M361.734 84.2753C361.379 83.9204 360.805 83.9204 360.451 84.2753L356 88.7167L351.549 84.2662C351.195 83.9113 350.621 83.9113 350.266 84.2662C349.911 84.6212 349.911 85.1945 350.266 85.5495L354.717 90L350.266 94.4505C349.911 94.8055 349.911 95.3788 350.266 95.7338C350.621 96.0887 351.195 96.0887 351.549 95.7338L356 91.2833L360.451 95.7338C360.805 96.0887 361.379 96.0887 361.734 95.7338C362.089 95.3788 362.089 94.8055 361.734 94.4505L357.283 90L361.734 85.5495C362.08 85.2036 362.08 84.6212 361.734 84.2753Z" fill="#A4A4A4"/>
<path d="M389.28 19.6407H391.8V14.5848H396.2V19.6407H398.72V12.1201L394 8.33892L389.28 12.1201V19.6407ZM389.28 21C388.933 21 388.634 20.8657 388.38 20.5972C388.127 20.328 388 20.0092 388 19.6407V12.1201C388 11.9073 388.047 11.7054 388.14 11.5144C388.234 11.3234 388.36 11.1639 388.52 11.0361L393.24 7.25493C393.347 7.16996 393.467 7.10639 393.6 7.06424C393.733 7.02141 393.867 7 394 7C394.147 7 394.283 7.02141 394.41 7.06424C394.537 7.10639 394.653 7.16996 394.76 7.25493L399.48 11.0361C399.64 11.1639 399.766 11.3234 399.86 11.5144C399.953 11.7054 400 11.9073 400 12.1201V19.6407C400 20.0092 399.873 20.328 399.62 20.5972C399.366 20.8657 399.067 21 398.72 21H394.92V15.9441H393.08V21H389.28Z" fill="#A4A4A4"/>
<path d="M432 4C426.48 4 422 8.48 422 14C422 19.52 426.48 24 432 24C437.52 24 442 19.52 442 14C442 8.48 437.52 4 432 4ZM432 7C433.66 7 435 8.34 435 10C435 11.66 433.66 13 432 13C430.34 13 429 11.66 429 10C429 8.34 430.34 7 432 7ZM432 21.2C429.5 21.2 427.29 19.92 426 17.98C426.03 15.99 430 14.9 432 14.9C433.99 14.9 437.97 15.99 438 17.98C436.71 19.92 434.5 21.2 432 21.2Z" fill="white"/>
<path d="M470.634 20.4887H462.785C462.353 20.4887 462 20.8287 462 21.2443C462 21.66 462.353 22 462.785 22H470.634C471.065 22 471.419 21.66 471.419 21.2443C471.419 20.8287 471.065 20.4887 470.634 20.4887Z" fill="white" fill-opacity="0.6"/>
<path d="M467.549 8.57961L465.328 10.7181L475.32 20.3376C475.932 20.927 476.929 20.927 477.541 20.3376C478.153 19.7482 478.153 18.7885 477.541 18.1991L467.549 8.57961Z" fill="white" fill-opacity="0.6"/>
<path d="M474.213 8.57961L471.992 6.44112C471.379 5.85171 470.383 5.85171 469.77 6.44867L468.664 7.51414L473.098 11.7911L474.213 10.7181C474.825 10.1287 474.825 9.16902 474.213 8.57961Z" fill="white" fill-opacity="0.6"/>
<path d="M468.664 16.0606L464.221 11.7836L463.115 12.849C462.502 13.4385 462.502 14.3981 463.115 14.9875L465.336 17.126C465.948 17.7155 466.945 17.7155 467.557 17.126L468.664 16.0606Z" fill="white" fill-opacity="0.6"/>
<path d="M470.634 58.4887H462.785C462.353 58.4887 462 58.8287 462 59.2443C462 59.66 462.353 60 462.785 60H470.634C471.065 60 471.419 59.66 471.419 59.2443C471.419 58.8287 471.065 58.4887 470.634 58.4887Z" fill="#253981"/>
<path d="M467.549 46.5796L465.328 48.7181L475.32 58.3376C475.932 58.927 476.929 58.927 477.541 58.3376C478.153 57.7482 478.153 56.7885 477.541 56.1991L467.549 46.5796Z" fill="#253981"/>
<path d="M474.213 46.5796L471.992 44.4411C471.379 43.8517 470.383 43.8517 469.77 44.4487L468.664 45.5141L473.098 49.7911L474.213 48.7181C474.825 48.1287 474.825 47.169 474.213 46.5796Z" fill="#253981"/>
<path d="M468.664 54.0606L464.221 49.7836L463.115 50.849C462.502 51.4385 462.502 52.3981 463.115 52.9875L465.336 55.126C465.948 55.7155 466.945 55.7155 467.557 55.126L468.664 54.0606Z" fill="#253981"/>
<path d="M470.634 96.4887H462.785C462.353 96.4887 462 96.8287 462 97.2443C462 97.66 462.353 98 462.785 98H470.634C471.065 98 471.419 97.66 471.419 97.2443C471.419 96.8287 471.065 96.4887 470.634 96.4887Z" fill="white"/>
<path d="M467.549 84.5796L465.328 86.7181L475.32 96.3376C475.932 96.927 476.929 96.927 477.541 96.3376C478.153 95.7482 478.153 94.7885 477.541 94.1991L467.549 84.5796Z" fill="white"/>
<path d="M474.213 84.5796L471.992 82.4411C471.379 81.8517 470.383 81.8517 469.77 82.4487L468.664 83.5141L473.098 87.7911L474.213 86.7181C474.825 86.1287 474.825 85.169 474.213 84.5796Z" fill="white"/>
<path d="M468.664 92.0606L464.221 87.7836L463.115 88.849C462.502 89.4385 462.502 90.3981 463.115 90.9875L465.336 93.126C465.948 93.7155 466.945 93.7155 467.557 93.126L468.664 92.0606Z" fill="white"/>
<path d="M517 10.5915C517 10.0511 516.587 9.60888 516.081 9.60888H509.65C509.145 9.60888 508.732 10.0511 508.732 10.5915C508.732 11.132 509.145 11.5741 509.65 11.5741H516.081C516.587 11.5741 517 11.132 517 10.5915ZM508.732 18.4525C508.732 18.993 509.145 19.4352 509.65 19.4352H516.081C516.587 19.4352 517 18.993 517 18.4525C517 17.9121 516.587 17.4699 516.081 17.4699H509.65C509.145 17.4699 508.732 17.9121 508.732 18.4525ZM506.407 7.28005C506.765 7.66327 506.765 8.28233 506.407 8.66556L502.521 12.8417C502.163 13.225 501.584 13.225 501.216 12.8417L499.269 10.7487C498.91 10.3655 498.91 9.74645 499.269 9.36322C499.627 8.98 500.206 8.98 500.564 9.36322L501.869 10.7586L505.121 7.28005C505.47 6.90665 506.058 6.90665 506.407 7.28005ZM506.416 15.1509C506.775 15.5341 506.775 16.1532 506.416 16.5364L502.53 20.7126C502.172 21.0958 501.593 21.0958 501.226 20.7126L499.269 18.6098C498.91 18.2265 498.91 17.6075 499.269 17.2242C499.627 16.841 500.206 16.841 500.564 17.2242L501.869 18.6196L505.121 15.1411C505.47 14.7677 506.058 14.7677 506.416 15.1509Z" fill="white" fill-opacity="0.6"/>
<path d="M517 48.5915C517 48.0511 516.587 47.6089 516.081 47.6089H509.65C509.145 47.6089 508.732 48.0511 508.732 48.5915C508.732 49.132 509.145 49.5741 509.65 49.5741H516.081C516.587 49.5741 517 49.132 517 48.5915ZM508.732 56.4525C508.732 56.993 509.145 57.4352 509.65 57.4352H516.081C516.587 57.4352 517 56.993 517 56.4525C517 55.9121 516.587 55.4699 516.081 55.4699H509.65C509.145 55.4699 508.732 55.9121 508.732 56.4525ZM506.407 45.28C506.765 45.6633 506.765 46.2823 506.407 46.6656L502.521 50.8417C502.163 51.225 501.584 51.225 501.216 50.8417L499.269 48.7487C498.91 48.3655 498.91 47.7464 499.269 47.3632C499.627 46.98 500.206 46.98 500.564 47.3632L501.869 48.7586L505.121 45.28C505.47 44.9067 506.058 44.9067 506.407 45.28ZM506.416 53.1509C506.775 53.5341 506.775 54.1532 506.416 54.5364L502.53 58.7126C502.172 59.0958 501.593 59.0958 501.226 58.7126L499.269 56.6098C498.91 56.2265 498.91 55.6075 499.269 55.2242C499.627 54.841 500.206 54.841 500.564 55.2242L501.869 56.6196L505.121 53.1411C505.47 52.7677 506.058 52.7677 506.416 53.1509Z" fill="#253981"/>
<path d="M517 86.5915C517 86.0511 516.587 85.6089 516.081 85.6089H509.65C509.145 85.6089 508.732 86.0511 508.732 86.5915C508.732 87.132 509.145 87.5741 509.65 87.5741H516.081C516.587 87.5741 517 87.132 517 86.5915ZM508.732 94.4525C508.732 94.993 509.145 95.4352 509.65 95.4352H516.081C516.587 95.4352 517 94.993 517 94.4525C517 93.9121 516.587 93.4699 516.081 93.4699H509.65C509.145 93.4699 508.732 93.9121 508.732 94.4525ZM506.407 83.28C506.765 83.6633 506.765 84.2823 506.407 84.6656L502.521 88.8417C502.163 89.225 501.584 89.225 501.216 88.8417L499.269 86.7487C498.91 86.3655 498.91 85.7464 499.269 85.3632C499.627 84.98 500.206 84.98 500.564 85.3632L501.869 86.7586L505.121 83.28C505.47 82.9067 506.058 82.9067 506.407 83.28ZM506.416 91.1509C506.775 91.5341 506.775 92.1532 506.416 92.5364L502.53 96.7126C502.172 97.0958 501.593 97.0958 501.226 96.7126L499.269 94.6098C498.91 94.2265 498.91 93.6075 499.269 93.2242C499.627 92.841 500.206 92.841 500.564 93.2242L501.869 94.6196L505.121 91.1411C505.47 90.7677 506.058 90.7677 506.416 91.1509Z" fill="white"/>
<path d="M550.667 7.45455H547.88C547.6 6.61091 546.867 6 546 6C545.133 6 544.4 6.61091 544.12 7.45455H541.333C540.6 7.45455 540 8.10909 540 8.90909V20.5455C540 21.3455 540.6 22 541.333 22H550.667C551.4 22 552 21.3455 552 20.5455V8.90909C552 8.10909 551.4 7.45455 550.667 7.45455ZM546 7.45455C546.367 7.45455 546.667 7.78182 546.667 8.18182C546.667 8.58182 546.367 8.90909 546 8.90909C545.633 8.90909 545.333 8.58182 545.333 8.18182C545.333 7.78182 545.633 7.45455 546 7.45455ZM550 20.5455H542C541.633 20.5455 541.333 20.2182 541.333 19.8182V9.63636C541.333 9.23636 541.633 8.90909 542 8.90909H542.667V9.63636C542.667 10.4364 543.267 11.0909 544 11.0909H548C548.733 11.0909 549.333 10.4364 549.333 9.63636V8.90909H550C550.367 8.90909 550.667 9.23636 550.667 9.63636V19.8182C550.667 20.2182 550.367 20.5455 550 20.5455Z" fill="white" fill-opacity="0.6"/>
<path d="M550.667 45.4545H547.88C547.6 44.6109 546.867 44 546 44C545.133 44 544.4 44.6109 544.12 45.4545H541.333C540.6 45.4545 540 46.1091 540 46.9091V58.5455C540 59.3455 540.6 60 541.333 60H550.667C551.4 60 552 59.3455 552 58.5455V46.9091C552 46.1091 551.4 45.4545 550.667 45.4545ZM546 45.4545C546.367 45.4545 546.667 45.7818 546.667 46.1818C546.667 46.5818 546.367 46.9091 546 46.9091C545.633 46.9091 545.333 46.5818 545.333 46.1818C545.333 45.7818 545.633 45.4545 546 45.4545ZM550 58.5455H542C541.633 58.5455 541.333 58.2182 541.333 57.8182V47.6364C541.333 47.2364 541.633 46.9091 542 46.9091H542.667V47.6364C542.667 48.4364 543.267 49.0909 544 49.0909H548C548.733 49.0909 549.333 48.4364 549.333 47.6364V46.9091H550C550.367 46.9091 550.667 47.2364 550.667 47.6364V57.8182C550.667 58.2182 550.367 58.5455 550 58.5455Z" fill="#253981"/>
<path d="M550.667 83.4545H547.88C547.6 82.6109 546.867 82 546 82C545.133 82 544.4 82.6109 544.12 83.4545H541.333C540.6 83.4545 540 84.1091 540 84.9091V96.5455C540 97.3455 540.6 98 541.333 98H550.667C551.4 98 552 97.3455 552 96.5455V84.9091C552 84.1091 551.4 83.4545 550.667 83.4545ZM546 83.4545C546.367 83.4545 546.667 83.7818 546.667 84.1818C546.667 84.5818 546.367 84.9091 546 84.9091C545.633 84.9091 545.333 84.5818 545.333 84.1818C545.333 83.7818 545.633 83.4545 546 83.4545ZM550 96.5455H542C541.633 96.5455 541.333 96.2182 541.333 95.8182V85.6364C541.333 85.2364 541.633 84.9091 542 84.9091H542.667V85.6364C542.667 86.4364 543.267 87.0909 544 87.0909H548C548.733 87.0909 549.333 86.4364 549.333 85.6364V84.9091H550C550.367 84.9091 550.667 85.2364 550.667 85.6364V95.8182C550.667 96.2182 550.367 96.5455 550 96.5455Z" fill="white"/>
<path d="M589.6 10.5H586.1V8.4C586.1 7.63 585.47 7 584.7 7H583.3C582.53 7 581.9 7.63 581.9 8.4V10.5H578.4C577.63 10.5 577 11.13 577 11.9V19.6C577 20.37 577.63 21 578.4 21H589.6C590.37 21 591 20.37 591 19.6V11.9C591 11.13 590.37 10.5 589.6 10.5ZM583.3 8.4H584.7V11.9H583.3V8.4ZM580.5 16.8H579.8C579.415 16.8 579.1 16.485 579.1 16.1C579.1 15.715 579.415 15.4 579.8 15.4H580.5V14.7C580.5 14.315 580.815 14 581.2 14C581.585 14 581.9 14.315 581.9 14.7V15.4H582.6C582.985 15.4 583.3 15.715 583.3 16.1C583.3 16.485 582.985 16.8 582.6 16.8H581.9V17.5C581.9 17.885 581.585 18.2 581.2 18.2C580.815 18.2 580.5 17.885 580.5 17.5V16.8ZM585.225 15.75C584.938 15.75 584.7 15.512 584.7 15.225C584.7 14.938 584.938 14.7 585.225 14.7H588.375C588.662 14.7 588.9 14.938 588.9 15.225C588.9 15.512 588.662 15.75 588.375 15.75H585.225ZM585.225 17.85C584.938 17.85 584.7 17.612 584.7 17.325C584.7 17.038 584.938 16.8 585.225 16.8H586.975C587.262 16.8 587.5 17.038 587.5 17.325C587.5 17.612 587.262 17.85 586.975 17.85H585.225Z" fill="white" fill-opacity="0.6"/>
<path d="M589.6 48.5H586.1V46.4C586.1 45.63 585.47 45 584.7 45H583.3C582.53 45 581.9 45.63 581.9 46.4V48.5H578.4C577.63 48.5 577 49.13 577 49.9V57.6C577 58.37 577.63 59 578.4 59H589.6C590.37 59 591 58.37 591 57.6V49.9C591 49.13 590.37 48.5 589.6 48.5ZM583.3 46.4H584.7V49.9H583.3V46.4ZM580.5 54.8H579.8C579.415 54.8 579.1 54.485 579.1 54.1C579.1 53.715 579.415 53.4 579.8 53.4H580.5V52.7C580.5 52.315 580.815 52 581.2 52C581.585 52 581.9 52.315 581.9 52.7V53.4H582.6C582.985 53.4 583.3 53.715 583.3 54.1C583.3 54.485 582.985 54.8 582.6 54.8H581.9V55.5C581.9 55.885 581.585 56.2 581.2 56.2C580.815 56.2 580.5 55.885 580.5 55.5V54.8ZM585.225 53.75C584.938 53.75 584.7 53.512 584.7 53.225C584.7 52.938 584.938 52.7 585.225 52.7H588.375C588.662 52.7 588.9 52.938 588.9 53.225C588.9 53.512 588.662 53.75 588.375 53.75H585.225ZM585.225 55.85C584.938 55.85 584.7 55.612 584.7 55.325C584.7 55.038 584.938 54.8 585.225 54.8H586.975C587.262 54.8 587.5 55.038 587.5 55.325C587.5 55.612 587.262 55.85 586.975 55.85H585.225Z" fill="#253981"/>
<path d="M589.6 86.5H586.1V84.4C586.1 83.63 585.47 83 584.7 83H583.3C582.53 83 581.9 83.63 581.9 84.4V86.5H578.4C577.63 86.5 577 87.13 577 87.9V95.6C577 96.37 577.63 97 578.4 97H589.6C590.37 97 591 96.37 591 95.6V87.9C591 87.13 590.37 86.5 589.6 86.5ZM583.3 84.4H584.7V87.9H583.3V84.4ZM580.5 92.8H579.8C579.415 92.8 579.1 92.485 579.1 92.1C579.1 91.715 579.415 91.4 579.8 91.4H580.5V90.7C580.5 90.315 580.815 90 581.2 90C581.585 90 581.9 90.315 581.9 90.7V91.4H582.6C582.985 91.4 583.3 91.715 583.3 92.1C583.3 92.485 582.985 92.8 582.6 92.8H581.9V93.5C581.9 93.885 581.585 94.2 581.2 94.2C580.815 94.2 580.5 93.885 580.5 93.5V92.8ZM585.225 91.75C584.938 91.75 584.7 91.512 584.7 91.225C584.7 90.938 584.938 90.7 585.225 90.7H588.375C588.662 90.7 588.9 90.938 588.9 91.225C588.9 91.512 588.662 91.75 588.375 91.75H585.225ZM585.225 93.85C584.938 93.85 584.7 93.612 584.7 93.325C584.7 93.038 584.938 92.8 585.225 92.8H586.975C587.262 92.8 587.5 93.038 587.5 93.325C587.5 93.612 587.262 93.85 586.975 93.85H585.225Z" fill="white"/>
<path d="M625.636 13.1429C627.145 13.1429 628.355 11.9943 628.355 10.5714C628.355 9.14857 627.145 8 625.636 8C624.127 8 622.909 9.14857 622.909 10.5714C622.909 11.9943 624.127 13.1429 625.636 13.1429ZM618.364 13.1429C619.873 13.1429 621.082 11.9943 621.082 10.5714C621.082 9.14857 619.873 8 618.364 8C616.855 8 615.636 9.14857 615.636 10.5714C615.636 11.9943 616.855 13.1429 618.364 13.1429ZM618.364 14.8571C616.245 14.8571 612 15.86 612 17.8571V19.1429C612 19.6143 612.409 20 612.909 20H623.818C624.318 20 624.727 19.6143 624.727 19.1429V17.8571C624.727 15.86 620.482 14.8571 618.364 14.8571ZM625.636 14.8571C625.373 14.8571 625.073 14.8743 624.755 14.9C624.773 14.9086 624.782 14.9257 624.791 14.9343C625.827 15.6457 626.545 16.5971 626.545 17.8571V19.1429C626.545 19.4429 626.482 19.7343 626.382 20H631.091C631.591 20 632 19.6143 632 19.1429V17.8571C632 15.86 627.755 14.8571 625.636 14.8571Z" fill="white" fill-opacity="0.6"/>
<path d="M625.636 51.1429C627.145 51.1429 628.355 49.9943 628.355 48.5714C628.355 47.1486 627.145 46 625.636 46C624.127 46 622.909 47.1486 622.909 48.5714C622.909 49.9943 624.127 51.1429 625.636 51.1429ZM618.364 51.1429C619.873 51.1429 621.082 49.9943 621.082 48.5714C621.082 47.1486 619.873 46 618.364 46C616.855 46 615.636 47.1486 615.636 48.5714C615.636 49.9943 616.855 51.1429 618.364 51.1429ZM618.364 52.8571C616.245 52.8571 612 53.86 612 55.8571V57.1429C612 57.6143 612.409 58 612.909 58H623.818C624.318 58 624.727 57.6143 624.727 57.1429V55.8571C624.727 53.86 620.482 52.8571 618.364 52.8571ZM625.636 52.8571C625.373 52.8571 625.073 52.8743 624.755 52.9C624.773 52.9086 624.782 52.9257 624.791 52.9343C625.827 53.6457 626.545 54.5971 626.545 55.8571V57.1429C626.545 57.4429 626.482 57.7343 626.382 58H631.091C631.591 58 632 57.6143 632 57.1429V55.8571C632 53.86 627.755 52.8571 625.636 52.8571Z" fill="#253981"/>
<path d="M625.636 89.1429C627.145 89.1429 628.355 87.9943 628.355 86.5714C628.355 85.1486 627.145 84 625.636 84C624.127 84 622.909 85.1486 622.909 86.5714C622.909 87.9943 624.127 89.1429 625.636 89.1429ZM618.364 89.1429C619.873 89.1429 621.082 87.9943 621.082 86.5714C621.082 85.1486 619.873 84 618.364 84C616.855 84 615.636 85.1486 615.636 86.5714C615.636 87.9943 616.855 89.1429 618.364 89.1429ZM618.364 90.8571C616.245 90.8571 612 91.86 612 93.8571V95.1429C612 95.6143 612.409 96 612.909 96H623.818C624.318 96 624.727 95.6143 624.727 95.1429V93.8571C624.727 91.86 620.482 90.8571 618.364 90.8571ZM625.636 90.8571C625.373 90.8571 625.073 90.8743 624.755 90.9C624.773 90.9086 624.782 90.9257 624.791 90.9343C625.827 91.6457 626.545 92.5971 626.545 93.8571V95.1429C626.545 95.4429 626.482 95.7343 626.382 96H631.091C631.591 96 632 95.6143 632 95.1429V93.8571C632 91.86 627.755 90.8571 625.636 90.8571Z" fill="white"/>
<path d="M660 6C655.584 6 652 9.584 652 14C652 18.416 655.584 22 660 22C664.416 22 668 18.416 668 14C668 9.584 664.416 6 660 6ZM663.2 14.8H660.8V17.2C660.8 17.64 660.44 18 660 18C659.56 18 659.2 17.64 659.2 17.2V14.8H656.8C656.36 14.8 656 14.44 656 14C656 13.56 656.36 13.2 656.8 13.2H659.2V10.8C659.2 10.36 659.56 10 660 10C660.44 10 660.8 10.36 660.8 10.8V13.2H663.2C663.64 13.2 664 13.56 664 14C664 14.44 663.64 14.8 663.2 14.8Z" fill="#253981"/>
<path d="M695.999 20.4492L693.618 18.0435C693.46 17.8627 693.377 17.6472 693.368 17.397C693.357 17.1469 693.46 16.9213 693.677 16.7202C693.853 16.5201 694.063 16.4201 694.308 16.4201C694.554 16.4201 694.765 16.5201 694.941 16.7202L696.794 18.5544L701.03 14.2251C701.226 14.025 701.451 13.925 701.706 13.925C701.961 13.925 702.177 14.0351 702.353 14.2554C702.549 14.4555 702.643 14.6859 702.632 14.9467C702.623 15.2074 702.53 15.4277 702.353 15.6076L697.588 20.4492C697.372 20.6695 697.108 20.7796 696.794 20.7796C696.48 20.7796 696.215 20.6695 695.999 20.4492ZM690.235 25.5C689.607 25.5 689.078 25.2792 688.647 24.8376C688.216 24.397 688 23.8558 688 23.2141V7.46135C688 6.81965 688.216 6.2785 688.647 5.83787C689.078 5.39629 689.607 5.17549 690.235 5.17549H691.647V3.49285C691.647 3.23213 691.74 3.00171 691.926 2.80161C692.113 2.60054 692.333 2.5 692.588 2.5C692.862 2.5 693.092 2.60054 693.279 2.80161C693.465 3.00171 693.558 3.23213 693.558 3.49285V5.17549H702.471V3.46254C702.471 3.22203 702.569 3.00171 702.765 2.80161C702.961 2.60054 703.176 2.5 703.412 2.5C703.667 2.5 703.887 2.60054 704.074 2.80161C704.26 3.00171 704.353 3.22203 704.353 3.46254V5.17549H705.765C706.393 5.17549 706.922 5.39629 707.353 5.83787C707.784 6.2785 708 6.81965 708 7.46135V23.2141C708 23.8558 707.784 24.397 707.353 24.8376C706.922 25.2792 706.393 25.5 705.765 25.5H690.235ZM690.235 23.5749H705.765C705.863 23.5749 705.946 23.5398 706.015 23.4696C706.084 23.4003 706.118 23.3152 706.118 23.2141V12.0908H689.882V23.2141C689.882 23.3152 689.916 23.4003 689.985 23.4696C690.054 23.5398 690.137 23.5749 690.235 23.5749ZM689.882 10.1671H706.118V7.46135C706.118 7.36033 706.084 7.27519 706.015 7.20592C705.946 7.13569 705.863 7.10058 705.765 7.10058H690.235C690.137 7.10058 690.054 7.13569 689.985 7.20592C689.916 7.27519 689.882 7.36033 689.882 7.46135V10.1671Z" fill="#2F7AD3"/>
<path d="M728.042 6.44393H730.084V7.55491C730.084 8.77699 731.003 9.77688 732.126 9.77688H738.253C739.376 9.77688 740.295 8.77699 740.295 7.55491V6.44393H742.337V11.9988H744.379V6.44393C744.379 5.22185 743.46 4.22197 742.337 4.22197H738.069C737.64 2.93323 736.517 2 735.19 2C733.862 2 732.739 2.93323 732.31 4.22197H728.042C726.919 4.22197 726 5.22185 726 6.44393V21.9977C726 23.2198 726.919 24.2197 728.042 24.2197H733.147V21.9977H728.042V6.44393ZM735.19 4.22197C735.751 4.22197 736.211 4.72191 736.211 5.33295C736.211 5.94399 735.751 6.44393 735.19 6.44393C734.628 6.44393 734.168 5.94399 734.168 5.33295C734.168 4.72191 734.628 4.22197 735.19 4.22197Z" fill="#2F7AD3"/>
<path d="M745.706 24.1086L743.664 21.8866C744.256 20.7645 744.634 19.4091 744.185 17.8315C743.644 15.9206 742.102 14.443 740.264 14.2541C737.334 13.9431 734.924 16.5539 735.21 19.7535C735.394 21.7422 736.742 23.4309 738.498 24.0197C739.958 24.5085 741.193 24.0974 742.225 23.4531L744.267 25.675C744.665 26.1083 745.298 26.1083 745.696 25.675C746.094 25.2418 746.105 24.5418 745.706 24.1086ZM739.784 21.9977C738.355 21.9977 737.232 20.7756 737.232 19.2202C737.232 17.6649 738.355 16.4428 739.784 16.4428C741.214 16.4428 742.337 17.6649 742.337 19.2202C742.337 20.7756 741.214 21.9977 739.784 21.9977Z" fill="#2F7AD3"/>
<rect x="760" width="28" height="28" rx="4" fill="#253981"/>
<path d="M771.5 10.648V17.352C771.5 17.8632 771.929 18.1738 772.259 17.8956L776.271 14.5436C776.576 14.2912 776.576 13.7088 776.271 13.45L772.259 10.1044C771.929 9.82619 771.5 10.1368 771.5 10.648Z" fill="white"/>
<path d="M812 8C809.375 8 807 9.96366 807 13.0006C807 14.9399 808.531 17.2207 811.588 19.8491C811.825 20.0503 812.181 20.0503 812.419 19.8491C815.469 17.2207 817 14.9399 817 13.0006C817 9.96366 814.625 8 812 8ZM812 14.0983C811.312 14.0983 810.75 13.5495 810.75 12.8787C810.75 12.2079 811.312 11.659 812 11.659C812.688 11.659 813.25 12.2079 813.25 12.8787C813.25 13.5495 812.688 14.0983 812 14.0983Z" fill="#2F7AD3"/>
<path d="M848.92 20.565L847.54 19.3192C846.127 18.0405 844.85 16.7715 843.71 15.5123C842.57 14.2536 842 12.8663 842 11.3503C842 10.1111 842.42 9.07627 843.26 8.24576C844.1 7.41525 845.147 7 846.4 7C847.107 7 847.773 7.14817 848.4 7.44452C849.027 7.74139 849.56 8.14689 850 8.66102C850.44 8.14689 850.973 7.74139 851.6 7.44452C852.227 7.14817 852.893 7 853.6 7C854.853 7 855.9 7.41525 856.74 8.24576C857.58 9.07627 858 10.1111 858 11.3503C858 12.8663 857.433 14.2571 856.3 15.5226C855.167 16.7881 853.88 18.0603 852.44 19.339L851.08 20.565C850.773 20.855 850.413 21 850 21C849.587 21 849.227 20.855 848.92 20.565ZM849.24 10.2429C848.853 9.70245 848.44 9.29036 848 9.00667C847.56 8.7235 847.027 8.58192 846.4 8.58192C845.6 8.58192 844.933 8.84557 844.4 9.37288C843.867 9.90019 843.6 10.5593 843.6 11.3503C843.6 12.0358 843.847 12.764 844.34 13.5349C844.833 14.3064 845.423 15.0546 846.11 15.7797C846.797 16.5047 847.503 17.1836 848.23 17.8164C848.957 18.4492 849.547 18.9699 850 19.3785C850.453 18.9699 851.043 18.4492 851.77 17.8164C852.497 17.1836 853.203 16.5047 853.89 15.7797C854.577 15.0546 855.167 14.3064 855.66 13.5349C856.153 12.764 856.4 12.0358 856.4 11.3503C856.4 10.5593 856.133 9.90019 855.6 9.37288C855.067 8.84557 854.4 8.58192 853.6 8.58192C852.973 8.58192 852.44 8.7235 852 9.00667C851.56 9.29036 851.147 9.70245 850.76 10.2429C850.667 10.3748 850.553 10.4736 850.42 10.5395C850.287 10.6055 850.147 10.6384 850 10.6384C849.853 10.6384 849.713 10.6055 849.58 10.5395C849.447 10.4736 849.333 10.3748 849.24 10.2429Z" fill="#2F7AD3"/>
<path d="M848.92 58.565L847.54 57.3192C846.127 56.0405 844.85 54.7715 843.71 53.5123C842.57 52.2536 842 50.8663 842 49.3503C842 48.1111 842.42 47.0763 843.26 46.2458C844.1 45.4153 845.147 45 846.4 45C847.107 45 847.773 45.1482 848.4 45.4445C849.027 45.7414 849.56 46.1469 850 46.661C850.44 46.1469 850.973 45.7414 851.6 45.4445C852.227 45.1482 852.893 45 853.6 45C854.853 45 855.9 45.4153 856.74 46.2458C857.58 47.0763 858 48.1111 858 49.3503C858 50.8663 857.433 52.2571 856.3 53.5226C855.167 54.7881 853.88 56.0603 852.44 57.339L851.08 58.565C850.773 58.855 850.413 59 850 59C849.587 59 849.227 58.855 848.92 58.565ZM849.24 48.2429C848.853 47.7024 848.44 47.2904 848 47.0067C847.56 46.7235 847.027 46.5819 846.4 46.5819C845.6 46.5819 844.933 46.8456 844.4 47.3729C843.867 47.9002 843.6 48.5593 843.6 49.3503C843.6 50.0358 843.847 50.764 844.34 51.5349C844.833 52.3064 845.423 53.0546 846.11 53.7797C846.797 54.5047 847.503 55.1836 848.23 55.8164C848.957 56.4492 849.547 56.9699 850 57.3785C850.453 56.9699 851.043 56.4492 851.77 55.8164C852.497 55.1836 853.203 54.5047 853.89 53.7797C854.577 53.0546 855.167 52.3064 855.66 51.5349C856.153 50.764 856.4 50.0358 856.4 49.3503C856.4 48.5593 856.133 47.9002 855.6 47.3729C855.067 46.8456 854.4 46.5819 853.6 46.5819C852.973 46.5819 852.44 46.7235 852 47.0067C851.56 47.2904 851.147 47.7024 850.76 48.2429C850.667 48.3748 850.553 48.4736 850.42 48.5395C850.287 48.6055 850.147 48.6384 850 48.6384C849.853 48.6384 849.713 48.6055 849.58 48.5395C849.447 48.4736 849.333 48.3748 849.24 48.2429Z" fill="#FF6859"/>
<path d="M884.706 18.7368H888.824C889.002 18.7368 889.15 18.6773 889.267 18.5583C889.383 18.4387 889.441 18.2877 889.441 18.1053C889.441 17.9368 889.383 17.7895 889.267 17.6632C889.15 17.5368 889.002 17.4737 888.824 17.4737H884.706C884.527 17.4737 884.38 17.5368 884.264 17.6632C884.147 17.7895 884.088 17.9368 884.088 18.1053C884.088 18.2877 884.147 18.4387 884.264 18.5583C884.38 18.6773 884.527 18.7368 884.706 18.7368ZM884.706 15.4737H891.294C891.473 15.4737 891.62 15.4139 891.737 15.2943C891.854 15.1753 891.912 15.0246 891.912 14.8421C891.912 14.6596 891.854 14.5086 891.737 14.3891C891.62 14.27 891.473 14.2105 891.294 14.2105H884.706C884.527 14.2105 884.38 14.27 884.264 14.3891C884.147 14.5086 884.088 14.6596 884.088 14.8421C884.088 15.0246 884.147 15.1753 884.264 15.2943C884.38 15.4139 884.527 15.4737 884.706 15.4737ZM884.706 12.2105H891.294C891.473 12.2105 891.62 12.1474 891.737 12.0211C891.854 11.8947 891.912 11.7474 891.912 11.5789C891.912 11.3965 891.854 11.2458 891.737 11.1267C891.62 11.0072 891.473 10.9474 891.294 10.9474H884.706C884.527 10.9474 884.38 11.0072 884.264 11.1267C884.147 11.2458 884.088 11.3965 884.088 11.5789C884.088 11.7474 884.147 11.8947 884.264 12.0211C884.38 12.1474 884.527 12.2105 884.706 12.2105ZM882.482 20.7368H893.518C893.573 20.7368 893.627 20.7088 893.682 20.6526C893.737 20.5965 893.765 20.5404 893.765 20.4842V9.2C893.765 9.14386 893.737 9.08772 893.682 9.03158C893.627 8.97544 893.573 8.94737 893.518 8.94737H882.482C882.427 8.94737 882.373 8.97544 882.318 9.03158C882.263 9.08772 882.235 9.14386 882.235 9.2V20.4842C882.235 20.5404 882.263 20.5965 882.318 20.6526C882.373 20.7088 882.427 20.7368 882.482 20.7368ZM882.482 22C882.071 22 881.721 21.8526 881.432 21.5579C881.144 21.2632 881 20.9053 881 20.4842V9.2C881 8.77895 881.144 8.42105 881.432 8.12632C881.721 7.83158 882.071 7.68421 882.482 7.68421H886.147C886.202 7.22105 886.405 6.82442 886.755 6.49432C887.105 6.16477 887.52 6 888 6C888.494 6 888.913 6.16477 889.256 6.49432C889.599 6.82442 889.798 7.22105 889.853 7.68421H893.518C893.929 7.68421 894.279 7.83158 894.568 8.12632C894.856 8.42105 895 8.77895 895 9.2V20.4842C895 20.9053 894.856 21.2632 894.568 21.5579C894.279 21.8526 893.929 22 893.518 22H882.482ZM888 8.4C888.178 8.4 888.326 8.34021 888.443 8.22063C888.559 8.10161 888.618 7.95088 888.618 7.76842C888.618 7.58596 888.559 7.43495 888.443 7.31537C888.326 7.19635 888.178 7.13684 888 7.13684C887.822 7.13684 887.674 7.19635 887.558 7.31537C887.441 7.43495 887.382 7.58596 887.382 7.76842C887.382 7.95088 887.441 8.10161 887.558 8.22063C887.674 8.34021 887.822 8.4 888 8.4Z" fill="#2F7AD3"/>
<path d="M930.236 9.76437C929.012 8.54209 927.278 7.83722 925.371 8.03219C922.615 8.30963 920.348 10.5442 920.04 13.2962C919.627 16.9331 922.443 20 925.994 20C928.389 20 930.446 18.5978 931.407 16.5806C931.647 16.0782 931.287 15.5008 930.731 15.5008C930.453 15.5008 930.191 15.6508 930.071 15.8982C929.222 17.7204 927.188 18.8752 924.965 18.3803C923.299 18.0129 921.955 16.6556 921.602 14.9909C920.971 12.0814 923.186 9.50192 925.994 9.50192C927.24 9.50192 928.351 10.0193 929.162 10.8367L928.028 11.969C927.555 12.4414 927.886 13.2512 928.554 13.2512H931.249C931.662 13.2512 932 12.9138 932 12.5014V9.80936C932 9.14198 931.189 8.80454 930.716 9.27696L930.236 9.76437Z" fill="#A4A4A4"/>
<path d="M960.95 17.7264L957.613 14.3865C957.242 14.0143 956.651 14.0143 956.279 14.3865C955.907 14.7586 955.907 15.3503 956.279 15.7225L960.273 19.7209C960.645 20.093 961.245 20.093 961.617 19.7209L971.721 9.61511C972.093 9.24294 972.093 8.65129 971.721 8.27913C971.349 7.90696 970.758 7.90696 970.387 8.27913L960.95 17.7264Z" fill="#253981"/>
<path d="M1007.73 8.27531C1007.38 7.92036 1006.81 7.92036 1006.45 8.27531L1002 12.7167L997.549 8.26621C997.195 7.91126 996.621 7.91126 996.266 8.26621C995.911 8.62116 995.911 9.19454 996.266 9.54949L1000.72 14L996.266 18.4505C995.911 18.8055 995.911 19.3788 996.266 19.7338C996.621 20.0887 997.195 20.0887 997.549 19.7338L1002 15.2833L1006.45 19.7338C1006.81 20.0887 1007.38 20.0887 1007.73 19.7338C1008.09 19.3788 1008.09 18.8055 1007.73 18.4505L1003.28 14L1007.73 9.54949C1008.08 9.20364 1008.08 8.62116 1007.73 8.27531Z" fill="#FF6859"/>
<path d="M1043.93 11.9412H1042.57V7.82353C1042.57 7.37059 1042.19 7 1041.71 7H1038.29C1037.81 7 1037.43 7.37059 1037.43 7.82353V11.9412H1036.07C1035.3 11.9412 1034.92 12.8306 1035.46 13.3494L1039.39 17.1294C1039.73 17.4506 1040.27 17.4506 1040.6 17.1294L1044.53 13.3494C1045.07 12.8306 1044.7 11.9412 1043.93 11.9412ZM1034 20.1765C1034 20.6294 1034.39 21 1034.86 21H1045.14C1045.61 21 1046 20.6294 1046 20.1765C1046 19.7235 1045.61 19.3529 1045.14 19.3529H1034.86C1034.39 19.3529 1034 19.7235 1034 20.1765Z" fill="#A4A4A4"/>
<path d="M1078 10C1075.5 10 1073.37 11.6587 1072.5 14C1073.37 16.3413 1075.5 18 1078 18C1080.5 18 1082.64 16.3413 1083.5 14C1082.64 11.6587 1080.5 10 1078 10ZM1078 16.6667C1076.62 16.6667 1075.5 15.472 1075.5 14C1075.5 12.528 1076.62 11.3333 1078 11.3333C1079.38 11.3333 1080.5 12.528 1080.5 14C1080.5 15.472 1079.38 16.6667 1078 16.6667ZM1078 12.4C1077.17 12.4 1076.5 13.1147 1076.5 14C1076.5 14.8853 1077.17 15.6 1078 15.6C1078.83 15.6 1079.5 14.8853 1079.5 14C1079.5 13.1147 1078.83 12.4 1078 12.4Z" fill="#A4A4A4"/>
<path d="M1106.67 21H1125.33C1125.97 21 1126.5 20.475 1126.5 19.8333C1126.5 19.1917 1125.97 18.6667 1125.33 18.6667H1106.67C1106.02 18.6667 1105.5 19.1917 1105.5 19.8333C1105.5 20.475 1106.02 21 1106.67 21ZM1106.67 15.1667H1125.33C1125.97 15.1667 1126.5 14.6417 1126.5 14C1126.5 13.3583 1125.97 12.8333 1125.33 12.8333H1106.67C1106.02 12.8333 1105.5 13.3583 1105.5 14C1105.5 14.6417 1106.02 15.1667 1106.67 15.1667ZM1105.5 8.16667C1105.5 8.80833 1106.02 9.33333 1106.67 9.33333H1125.33C1125.97 9.33333 1126.5 8.80833 1126.5 8.16667C1126.5 7.525 1125.97 7 1125.33 7H1106.67C1106.02 7 1105.5 7.525 1105.5 8.16667Z" fill="#777776"/>
<path d="M1157 13.058V8H1151V13.058C1151 13.268 1151.11 13.466 1151.29 13.574L1153.8 15.08L1153.21 16.484L1151.16 16.658L1152.72 18.002L1152.24 20L1154 18.938L1155.76 20L1155.29 18.002L1156.84 16.658L1154.8 16.484L1154.2 15.08L1156.71 13.574C1156.89 13.466 1157 13.274 1157 13.058ZM1154.6 14.138L1154 14.498L1153.4 14.138V8.6H1154.6V14.138Z" fill="#ECC600"/>
<path d="M1191.85 16.5789C1191.54 16.5789 1191.28 16.4746 1191.07 16.2658C1190.86 16.057 1190.77 15.8114 1190.79 15.5289C1190.83 15.0132 1190.96 14.5649 1191.18 14.1842C1191.39 13.8035 1191.74 13.4105 1192.21 13.0053C1192.73 12.5632 1193.13 12.1793 1193.41 11.8536C1193.68 11.5284 1193.82 11.157 1193.82 10.7395C1193.82 10.236 1193.64 9.81842 1193.29 9.48684C1192.94 9.15526 1192.45 8.98947 1191.83 8.98947C1191.42 8.98947 1191.07 9.07225 1190.79 9.23779C1190.5 9.40382 1190.26 9.60965 1190.09 9.85526C1189.91 10.1009 1189.69 10.2667 1189.43 10.3526C1189.16 10.4386 1188.91 10.4325 1188.67 10.3342C1188.38 10.2114 1188.18 10.0088 1188.07 9.72632C1187.96 9.44386 1187.98 9.17982 1188.13 8.93421C1188.5 8.38158 1189 7.92105 1189.63 7.55263C1190.25 7.18421 1190.99 7 1191.83 7C1193.17 7 1194.2 7.35933 1194.92 8.078C1195.64 8.79618 1196 9.65877 1196 10.6658C1196 11.2798 1195.86 11.8049 1195.59 12.2412C1195.31 12.6769 1194.88 13.1711 1194.3 13.7237C1193.86 14.1167 1193.56 14.436 1193.38 14.6816C1193.2 14.9272 1193.08 15.2096 1193.01 15.5289C1192.96 15.836 1192.83 16.0877 1192.61 16.2842C1192.4 16.4807 1192.14 16.5789 1191.85 16.5789ZM1191.83 21C1191.41 21 1191.05 20.8558 1190.75 20.5675C1190.45 20.2786 1190.3 19.9316 1190.3 19.5263C1190.3 19.1211 1190.45 18.774 1190.75 18.4852C1191.05 18.1968 1191.41 18.0526 1191.83 18.0526C1192.25 18.0526 1192.61 18.1968 1192.91 18.4852C1193.21 18.774 1193.36 19.1211 1193.36 19.5263C1193.36 19.9316 1193.21 20.2786 1192.91 20.5675C1192.61 20.8558 1192.25 21 1191.83 21Z" fill="#2F7AD3"/>
</svg>
