<svg width="1226" height="86" viewBox="0 0 1226 86" fill="none" xmlns="http://www.w3.org/2000/svg">
<rect x="14" y="14" width="20" height="20" rx="4" fill="#253981"/>
<path d="M21 20.648V27.352C21 27.8632 21.5145 28.1738 21.9108 27.8956L26.725 24.5436C27.0917 24.2912 27.0917 23.7088 26.725 23.45L21.9108 20.1044C21.5145 19.8262 21 20.1368 21 20.648Z" fill="white"/>
<path d="M62 15C58.325 15 55 17.9455 55 22.501C55 25.4099 57.1438 28.831 61.4225 32.7736C61.755 33.0755 62.2538 33.0755 62.5863 32.7736C66.8563 28.831 69 25.4099 69 22.501C69 17.9455 65.675 15 62 15ZM62 24.1475C61.0375 24.1475 60.25 23.3242 60.25 22.318C60.25 21.3118 61.0375 20.4885 62 20.4885C62.9625 20.4885 63.75 21.3118 63.75 22.318C63.75 23.3242 62.9625 24.1475 62 24.1475Z" fill="#494949"/>
<path d="M98.0413 31.0393V26.236H101.954V31.0393C101.954 31.5677 102.395 32 102.933 32H105.867C106.405 32 106.846 31.5677 106.846 31.0393V24.3146H108.509C108.959 24.3146 109.174 23.767 108.831 23.4788L100.653 16.245C100.282 15.9183 99.7141 15.9183 99.3424 16.245L91.1642 23.4788C90.8316 23.767 91.037 24.3146 91.487 24.3146H93.1501V31.0393C93.1501 31.5677 93.5903 32 94.1283 32H97.0631C97.6011 32 98.0413 31.5677 98.0413 31.0393Z" fill="#494949"/>
<path d="M138 16C133.584 16 130 19.584 130 24C130 28.416 133.584 32 138 32C142.416 32 146 28.416 146 24C146 19.584 142.416 16 138 16ZM138 18.4C139.328 18.4 140.4 19.472 140.4 20.8C140.4 22.128 139.328 23.2 138 23.2C136.672 23.2 135.6 22.128 135.6 20.8C135.6 19.472 136.672 18.4 138 18.4ZM138 29.76C136 29.76 134.232 28.736 133.2 27.184C133.224 25.592 136.4 24.72 138 24.72C139.592 24.72 142.776 25.592 142.8 27.184C141.768 28.736 140 29.76 138 29.76Z" fill="#494949"/>
<path d="M173 30L179 24L173 18L173 30Z" fill="#494949"/>
<path d="M210 19.81V28.19C210 28.829 210.686 29.2173 211.214 28.8694L217.633 24.6795C218.122 24.364 218.122 23.636 217.633 23.3125L211.214 19.1306C210.686 18.7827 210 19.171 210 19.81Z" fill="#494949"/>
<path d="M250.178 20.2105C249.941 20.4899 249.941 20.9412 250.178 21.2206L252.535 24.0005L250.178 26.7803C249.941 27.0597 249.941 27.511 250.178 27.7904C250.415 28.0699 250.797 28.0699 251.034 27.7904L253.822 24.502C254.059 24.2225 254.059 23.7712 253.822 23.4918L251.034 20.2033C250.803 19.9311 250.415 19.9311 250.178 20.2105Z" fill="#494949"/>
<path d="M285.642 24.6557L292.81 24.6557L289.678 27.8715C289.428 28.1285 289.428 28.5502 289.678 28.8072C289.929 29.0642 290.333 29.0642 290.583 28.8072L294.812 24.4646C295.063 24.2076 295.063 23.7924 294.812 23.5354L290.583 19.1928C290.333 18.9358 289.929 18.9358 289.678 19.1928C289.428 19.4498 289.428 19.8649 289.678 20.1219L292.81 23.3377L285.642 23.3377C285.289 23.3377 285 23.6343 285 23.9967C285 24.3591 285.289 24.6557 285.642 24.6557Z" fill="#494949"/>
<path d="M331.111 23.624C330.886 23.392 330.512 23.392 330.287 23.624L326.903 27.104L325.667 25.832C325.441 25.6 325.068 25.6 324.842 25.832C324.617 26.064 324.617 26.448 324.842 26.68L326.351 28.232C326.654 28.544 327.144 28.544 327.448 28.232L331.103 24.472C331.337 24.24 331.337 23.856 331.111 23.624ZM333.444 17.6H332.667V16.8C332.667 16.36 332.317 16 331.889 16C331.461 16 331.111 16.36 331.111 16.8V17.6H324.889V16.8C324.889 16.36 324.539 16 324.111 16C323.683 16 323.333 16.36 323.333 16.8V17.6H322.556C321.692 17.6 321.008 18.32 321.008 19.2L321 30.4C321 31.28 321.692 32 322.556 32H333.444C334.3 32 335 31.28 335 30.4V19.2C335 18.32 334.3 17.6 333.444 17.6ZM332.667 30.4H323.333C322.906 30.4 322.556 30.04 322.556 29.6V21.6H333.444V29.6C333.444 30.04 333.094 30.4 332.667 30.4Z" fill="#494949"/>
<path d="M369.889 16C369.461 16 369.111 16.36 369.111 16.8V17.6H362.889V16.8C362.889 16.36 362.539 16 362.111 16C361.683 16 361.333 16.36 361.333 16.8V17.6H360.556C359.692 17.6 359.008 18.32 359.008 19.2L359 30.4C359 31.28 359.692 32 360.556 32H371.444C372.3 32 373 31.28 373 30.4V19.2C373 18.32 372.3 17.6 371.444 17.6H370.667V16.8C370.667 16.36 370.317 16 369.889 16ZM371.444 30.4H360.556V22.4H371.444V30.4ZM365.222 24.8C365.222 24.36 365.572 24 366 24C366.428 24 366.778 24.36 366.778 24.8C366.778 25.24 366.428 25.6 366 25.6C365.572 25.6 365.222 25.24 365.222 24.8ZM362.111 24.8C362.111 24.36 362.461 24 362.889 24C363.317 24 363.667 24.36 363.667 24.8C363.667 25.24 363.317 25.6 362.889 25.6C362.461 25.6 362.111 25.24 362.111 24.8ZM368.333 24.8C368.333 24.36 368.683 24 369.111 24C369.539 24 369.889 24.36 369.889 24.8C369.889 25.24 369.539 25.6 369.111 25.6C368.683 25.6 368.333 25.24 368.333 24.8ZM365.222 28C365.222 27.56 365.572 27.2 366 27.2C366.428 27.2 366.778 27.56 366.778 28C366.778 28.44 366.428 28.8 366 28.8C365.572 28.8 365.222 28.44 365.222 28ZM362.111 28C362.111 27.56 362.461 27.2 362.889 27.2C363.317 27.2 363.667 27.56 363.667 28C363.667 28.44 363.317 28.8 362.889 28.8C362.461 28.8 362.111 28.44 362.111 28ZM368.333 28C368.333 27.56 368.683 27.2 369.111 27.2C369.539 27.2 369.889 27.56 369.889 28C369.889 28.44 369.539 28.8 369.111 28.8C368.683 28.8 368.333 28.44 368.333 28Z" fill="#494949"/>
<path d="M398.429 18.9626H399.859V19.7033C399.859 20.518 400.502 21.1846 401.288 21.1846H405.577C406.363 21.1846 407.006 20.518 407.006 19.7033V18.9626H408.436V22.6659H409.865V18.9626C409.865 18.1479 409.222 17.4813 408.436 17.4813H405.448C405.148 16.6222 404.362 16 403.433 16C402.503 16 401.717 16.6222 401.417 17.4813H398.429C397.643 17.4813 397 18.1479 397 18.9626V29.3318C397 30.1465 397.643 30.8131 398.429 30.8131H402.003V29.3318H398.429V18.9626ZM403.433 17.4813C403.826 17.4813 404.147 17.8146 404.147 18.222C404.147 18.6293 403.826 18.9626 403.433 18.9626C403.04 18.9626 402.718 18.6293 402.718 18.222C402.718 17.8146 403.04 17.4813 403.433 17.4813Z" fill="#494949"/>
<path d="M410.794 30.739L409.365 29.2577C409.78 28.5097 410.044 27.6061 409.73 26.5543C409.351 25.2804 408.271 24.2953 406.985 24.1694C404.934 23.962 403.247 25.7026 403.447 27.8357C403.576 29.1614 404.519 30.2872 405.748 30.6798C406.77 31.0057 407.635 30.7316 408.357 30.302L409.787 31.7834C410.065 32.0722 410.509 32.0722 410.787 31.7834C411.066 31.4945 411.073 31.0279 410.794 30.739ZM406.649 29.3318C405.648 29.3318 404.862 28.5171 404.862 27.4802C404.862 26.4432 405.648 25.6285 406.649 25.6285C407.65 25.6285 408.436 26.4432 408.436 27.4802C408.436 28.5171 407.65 29.3318 406.649 29.3318Z" fill="#494949"/>
<path d="M434 30H450C450.55 30 451 29.55 451 29C451 28.45 450.55 28 450 28H434C433.45 28 433 28.45 433 29C433 29.55 433.45 30 434 30ZM434 25H450C450.55 25 451 24.55 451 24C451 23.45 450.55 23 450 23H434C433.45 23 433 23.45 433 24C433 24.55 433.45 25 434 25ZM433 19C433 19.55 433.45 20 434 20H450C450.55 20 451 19.55 451 19C451 18.45 450.55 18 450 18H434C433.45 18 433 18.45 433 19Z" fill="#494949"/>
<path d="M480.001 32C480.871 32 481.583 31.2615 481.583 30.359H478.419C478.419 31.2615 479.123 32 480.001 32ZM484.747 27.0769V22.9744C484.747 20.4554 483.45 18.3467 481.187 17.7887V17.2308C481.187 16.5497 480.658 16 480.001 16C479.344 16 478.814 16.5497 478.814 17.2308V17.7887C476.544 18.3467 475.255 20.4472 475.255 22.9744V27.0769L474.235 28.1354C473.736 28.6523 474.084 29.5385 474.788 29.5385H485.206C485.91 29.5385 486.266 28.6523 485.767 28.1354L484.747 27.0769Z" fill="#494949"/>
<path d="M524.171 24C524.171 23.816 524.163 23.64 524.146 23.456L525.676 22.328C526.006 22.088 526.096 21.64 525.89 21.288L524.352 18.704C524.146 18.352 523.702 18.208 523.323 18.368L521.554 19.096C521.25 18.888 520.929 18.704 520.592 18.552L520.353 16.704C520.304 16.304 519.95 16 519.539 16H516.47C516.05 16 515.696 16.304 515.647 16.704L515.408 18.552C515.071 18.704 514.75 18.888 514.446 19.096L512.677 18.368C512.298 18.208 511.854 18.352 511.648 18.704L510.11 21.296C509.904 21.648 509.994 22.088 510.324 22.336L511.854 23.464C511.837 23.64 511.829 23.816 511.829 24C511.829 24.184 511.837 24.36 511.854 24.544L510.324 25.672C509.994 25.912 509.904 26.36 510.11 26.712L511.648 29.296C511.854 29.648 512.298 29.792 512.677 29.632L514.446 28.904C514.75 29.112 515.071 29.296 515.408 29.448L515.647 31.296C515.696 31.696 516.05 32 516.461 32H519.53C519.942 32 520.296 31.696 520.345 31.296L520.583 29.448C520.921 29.296 521.242 29.112 521.546 28.904L523.315 29.632C523.694 29.792 524.138 29.648 524.344 29.296L525.882 26.712C526.088 26.36 525.997 25.92 525.668 25.672L524.138 24.544C524.163 24.36 524.171 24.184 524.171 24ZM518.033 26.8C516.445 26.8 515.153 25.544 515.153 24C515.153 22.456 516.445 21.2 518.033 21.2C519.621 21.2 520.913 22.456 520.913 24C520.913 25.544 519.621 26.8 518.033 26.8Z" fill="#494949"/>
<path d="M560.5 24C561.88 24 562.99 22.88 562.99 21.5C562.99 20.12 561.88 19 560.5 19C559.12 19 558 20.12 558 21.5C558 22.88 559.12 24 560.5 24ZM553 23C554.66 23 555.99 21.66 555.99 20C555.99 18.34 554.66 17 553 17C551.34 17 550 18.34 550 20C550 21.66 551.34 23 553 23ZM560.5 26C558.67 26 555 26.92 555 28.75V30C555 30.55 555.45 31 556 31H565C565.55 31 566 30.55 566 30V28.75C566 26.92 562.33 26 560.5 26ZM553 25C550.67 25 546 26.17 546 28.5V30C546 30.55 546.45 31 547 31H553V28.75C553 27.9 553.33 26.41 555.37 25.28C554.5 25.1 553.66 25 553 25Z" fill="#494949"/>
<path d="M594 16C589.584 16 586 19.584 586 24C586 28.416 589.584 32 594 32C598.416 32 602 28.416 602 24C602 19.584 598.416 16 594 16ZM594 28C593.56 28 593.2 27.64 593.2 27.2V24C593.2 23.56 593.56 23.2 594 23.2C594.44 23.2 594.8 23.56 594.8 24V27.2C594.8 27.64 594.44 28 594 28ZM594.8 21.6H593.2V20H594.8V21.6Z" fill="#494949"/>
<path d="M632 16C627.584 16 624 19.584 624 24C624 28.416 627.584 32 632 32C636.416 32 640 28.416 640 24C640 19.584 636.416 16 632 16ZM632 30.4C628.472 30.4 625.6 27.528 625.6 24C625.6 20.472 628.472 17.6 632 17.6C635.528 17.6 638.4 20.472 638.4 24C638.4 27.528 635.528 30.4 632 30.4ZM631.2 27.2H632.8V28.8H631.2V27.2ZM632.488 19.232C630.84 18.992 629.384 20.008 628.944 21.464C628.8 21.928 629.152 22.4 629.64 22.4H629.8C630.128 22.4 630.392 22.168 630.504 21.864C630.76 21.152 631.52 20.664 632.344 20.84C633.104 21 633.664 21.744 633.6 22.52C633.52 23.592 632.304 23.824 631.64 24.824C631.64 24.832 631.632 24.832 631.632 24.84C631.624 24.856 631.616 24.864 631.608 24.88C631.536 25 631.464 25.136 631.408 25.28C631.4 25.304 631.384 25.32 631.376 25.344C631.368 25.36 631.368 25.376 631.36 25.4C631.264 25.672 631.2 26 631.2 26.4H632.8C632.8 26.064 632.888 25.784 633.024 25.544C633.04 25.52 633.048 25.496 633.064 25.472C633.128 25.36 633.208 25.256 633.288 25.16C633.296 25.152 633.304 25.136 633.312 25.128C633.392 25.032 633.48 24.944 633.576 24.856C634.344 24.128 635.384 23.536 635.168 22.008C634.976 20.616 633.88 19.44 632.488 19.232Z" fill="#494949"/>
<path d="M664.675 20.7717H661.919C661.413 20.7717 661 20.3564 661 19.8489C661 19.3413 661.413 18.926 661.919 18.926H664.675C665.18 18.926 665.594 19.3413 665.594 19.8489C665.594 20.3564 665.18 20.7717 664.675 20.7717ZM664.675 23.5402H661.919C661.413 23.5402 661 23.9555 661 24.463C661 24.9706 661.413 25.3858 661.919 25.3858H664.675C665.18 25.3858 665.594 24.9706 665.594 24.463C665.594 23.9555 665.18 23.5402 664.675 23.5402ZM677.427 29.3448L674.56 26.4656C673.77 26.9823 672.824 27.2776 671.804 27.2223C669.627 27.1208 667.762 25.4135 667.468 23.2449C667.064 20.1534 669.719 17.5418 672.824 18.0678C674.615 18.3723 676.104 19.775 676.499 21.5561C676.802 22.9034 676.508 24.1585 675.856 25.1551L678.731 28.0436C679.09 28.4035 679.09 28.9849 678.731 29.3448C678.373 29.7047 677.785 29.7047 677.427 29.3448ZM674.781 22.6174C674.781 21.0947 673.541 19.8489 672.025 19.8489C670.509 19.8489 669.268 21.0947 669.268 22.6174C669.268 24.14 670.509 25.3858 672.025 25.3858C673.541 25.3858 674.781 24.14 674.781 22.6174ZM661.919 30H669.268C669.774 30 670.187 29.5847 670.187 29.0772C670.187 28.5696 669.774 28.1543 669.268 28.1543H661.919C661.413 28.1543 661 28.5696 661 29.0772C661 29.5847 661.413 30 661.919 30Z" fill="#494949"/>
<path d="M711.732 26.3182H710.991L710.728 26.065C711.854 24.7518 712.436 22.9603 712.117 21.0562C711.676 18.4487 709.498 16.3664 706.871 16.0475C702.901 15.5597 699.559 18.8989 700.048 22.8665C700.367 25.4928 702.45 27.6689 705.059 28.1098C706.964 28.4287 708.757 27.8471 710.071 26.7216L710.324 26.9842V27.7252L714.313 31.7116C714.698 32.0961 715.327 32.0961 715.711 31.7116C716.096 31.327 716.096 30.6986 715.711 30.314L711.732 26.3182ZM706.101 26.3182C703.764 26.3182 701.878 24.4329 701.878 22.0974C701.878 19.7618 703.764 17.8765 706.101 17.8765C708.438 17.8765 710.324 19.7618 710.324 22.0974C710.324 24.4329 708.438 26.3182 706.101 26.3182Z" fill="#494949"/>
<path d="M746 16C741.584 16 738 19.584 738 24C738 28.416 741.584 32 746 32C750.416 32 754 28.416 754 24C754 19.584 750.416 16 746 16ZM749.2 24.8H746.8V27.2C746.8 27.64 746.44 28 746 28C745.56 28 745.2 27.64 745.2 27.2V24.8H742.8C742.36 24.8 742 24.44 742 24C742 23.56 742.36 23.2 742.8 23.2H745.2V20.8C745.2 20.36 745.56 20 746 20C746.44 20 746.8 20.36 746.8 20.8V23.2H749.2C749.64 23.2 750 23.56 750 24C750 24.44 749.64 24.8 749.2 24.8Z" fill="#494949"/>
<path d="M790.222 16H777.778C776.8 16 776.009 16.8 776.009 17.7778L776 30.2222C776 31.2 776.8 32 777.778 32H790.222C791.2 32 792 31.2 792 30.2222V17.7778C792 16.8 791.2 16 790.222 16ZM788.444 25.7778H785.778V28.4444C785.778 28.9333 785.378 29.3333 784.889 29.3333H783.111C782.622 29.3333 782.222 28.9333 782.222 28.4444V25.7778H779.556C779.067 25.7778 778.667 25.3778 778.667 24.8889V23.1111C778.667 22.6222 779.067 22.2222 779.556 22.2222H782.222V19.5556C782.222 19.0667 782.622 18.6667 783.111 18.6667H784.889C785.378 18.6667 785.778 19.0667 785.778 19.5556V22.2222H788.444C788.933 22.2222 789.333 22.6222 789.333 23.1111V24.8889C789.333 25.3778 788.933 25.7778 788.444 25.7778Z" fill="#494949"/>
<path d="M819.331 27.1054L816.412 24.3221C816.086 24.0119 815.569 24.0119 815.244 24.3221C814.919 24.6322 814.919 25.1252 815.244 25.4354L818.739 28.7674C819.064 29.0775 819.59 29.0775 819.915 28.7674L828.756 20.3459C829.081 20.0358 829.081 19.5427 828.756 19.2326C828.431 18.9225 827.914 18.9225 827.588 19.2326L819.331 27.1054Z" fill="#494949"/>
<path d="M860 16C855.584 16 852 19.584 852 24C852 28.416 855.584 32 860 32C864.416 32 868 28.416 868 24C868 19.584 864.416 16 860 16ZM857.832 27.432L854.96 24.56C854.648 24.248 854.648 23.744 854.96 23.432C855.272 23.12 855.776 23.12 856.088 23.432L858.4 25.736L863.904 20.232C864.216 19.92 864.72 19.92 865.032 20.232C865.344 20.544 865.344 21.048 865.032 21.36L858.96 27.432C858.656 27.744 858.144 27.744 857.832 27.432Z" fill="#494949"/>
<path d="M904.689 17.3212C904.275 16.9071 903.606 16.9071 903.192 17.3212L898 22.5028L892.808 17.3106C892.394 16.8965 891.725 16.8965 891.311 17.3106C890.896 17.7247 890.896 18.3936 891.311 18.8077L896.503 24L891.311 29.1923C890.896 29.6064 890.896 30.2753 891.311 30.6894C891.725 31.1035 892.394 31.1035 892.808 30.6894L898 25.4972L903.192 30.6894C903.606 31.1035 904.275 31.1035 904.689 30.6894C905.104 30.2753 905.104 29.6064 904.689 29.1923L899.497 24L904.689 18.8077C905.093 18.4042 905.093 17.7247 904.689 17.3212Z" fill="#494949"/>
<path d="M939.934 21.9412H938.571V17.8235C938.571 17.3706 938.186 17 937.714 17H934.286C933.814 17 933.429 17.3706 933.429 17.8235V21.9412H932.066C931.303 21.9412 930.917 22.8306 931.457 23.3494L935.391 27.1294C935.726 27.4506 936.266 27.4506 936.6 27.1294L940.534 23.3494C941.074 22.8306 940.697 21.9412 939.934 21.9412ZM930 30.1765C930 30.6294 930.386 31 930.857 31H941.143C941.614 31 942 30.6294 942 30.1765C942 29.7235 941.614 29.3529 941.143 29.3529H930.857C930.386 29.3529 930 29.7235 930 30.1765Z" fill="#494949"/>
<path d="M970.057 22.5625H971.42V26.7812C971.42 27.2453 971.806 27.625 972.277 27.625H975.706C976.177 27.625 976.563 27.2453 976.563 26.7812V22.5625H977.926C978.689 22.5625 979.074 21.6512 978.534 21.1196L974.6 17.2468C974.266 16.9177 973.726 16.9177 973.391 17.2468L969.457 21.1196C968.917 21.6512 969.294 22.5625 970.057 22.5625ZM968 30.1562C968 30.6203 968.386 31 968.857 31H979.143C979.614 31 980 30.6203 980 30.1562C980 29.6922 979.614 29.3125 979.143 29.3125H968.857C968.386 29.3125 968 29.6922 968 30.1562Z" fill="#494949"/>
<path d="M1011.99 16C1007.58 16 1004 19.584 1004 24C1004 28.416 1007.58 32 1011.99 32C1016.42 32 1020 28.416 1020 24C1020 19.584 1016.42 16 1011.99 16ZM1012 30.4C1008.46 30.4 1005.6 27.536 1005.6 24C1005.6 20.464 1008.46 17.6 1012 17.6C1015.54 17.6 1018.4 20.464 1018.4 24C1018.4 27.536 1015.54 30.4 1012 30.4ZM1011.82 20H1011.78C1011.46 20 1011.2 20.256 1011.2 20.576V24.352C1011.2 24.632 1011.34 24.896 1011.59 25.04L1014.91 27.032C1015.18 27.192 1015.54 27.112 1015.7 26.84C1015.86 26.568 1015.78 26.208 1015.5 26.048L1012.4 24.208V20.576C1012.4 20.256 1012.14 20 1011.82 20Z" fill="#494949"/>
<path d="M1050.63 30.4887H1042.78C1042.35 30.4887 1042 30.8287 1042 31.2443C1042 31.66 1042.35 32 1042.78 32H1050.63C1051.07 32 1051.42 31.66 1051.42 31.2443C1051.42 30.8287 1051.07 30.4887 1050.63 30.4887Z" fill="#777776"/>
<path d="M1047.55 18.5796L1045.33 20.7181L1055.32 30.3376C1055.93 30.927 1056.93 30.927 1057.54 30.3376C1058.15 29.7482 1058.15 28.7885 1057.54 28.1991L1047.55 18.5796Z" fill="#777776"/>
<path d="M1054.21 18.5796L1051.99 16.4411C1051.38 15.8517 1050.38 15.8517 1049.77 16.4487L1048.66 17.5141L1053.1 21.7911L1054.21 20.7181C1054.83 20.1287 1054.83 19.169 1054.21 18.5796Z" fill="#777776"/>
<path d="M1048.66 26.0606L1044.22 21.7836L1043.11 22.849C1042.5 23.4385 1042.5 24.3981 1043.11 24.9875L1045.34 27.126C1045.95 27.7155 1046.94 27.7155 1047.56 27.126L1048.66 26.0606Z" fill="#777776"/>
<path d="M1097 20.5915C1097 20.0511 1096.59 19.6089 1096.08 19.6089H1089.65C1089.14 19.6089 1088.73 20.0511 1088.73 20.5915C1088.73 21.132 1089.14 21.5741 1089.65 21.5741H1096.08C1096.59 21.5741 1097 21.132 1097 20.5915ZM1088.73 28.4525C1088.73 28.993 1089.14 29.4352 1089.65 29.4352H1096.08C1096.59 29.4352 1097 28.993 1097 28.4525C1097 27.9121 1096.59 27.4699 1096.08 27.4699H1089.65C1089.14 27.4699 1088.73 27.9121 1088.73 28.4525ZM1086.41 17.28C1086.77 17.6633 1086.77 18.2823 1086.41 18.6656L1082.52 22.8417C1082.16 23.225 1081.58 23.225 1081.22 22.8417L1079.27 20.7487C1078.91 20.3655 1078.91 19.7464 1079.27 19.3632C1079.63 18.98 1080.21 18.98 1080.56 19.3632L1081.87 20.7586L1085.12 17.28C1085.47 16.9067 1086.06 16.9067 1086.41 17.28ZM1086.42 25.1509C1086.77 25.5341 1086.77 26.1532 1086.42 26.5364L1082.53 30.7126C1082.17 31.0958 1081.59 31.0958 1081.23 30.7126L1079.27 28.6098C1078.91 28.2265 1078.91 27.6075 1079.27 27.2243C1079.63 26.841 1080.21 26.841 1080.56 27.2243L1081.87 28.6196L1085.12 25.1411C1085.47 24.7677 1086.06 24.7677 1086.42 25.1509Z" fill="#777776"/>
<path d="M1130.67 17.4545H1127.88C1127.6 16.6109 1126.87 16 1126 16C1125.13 16 1124.4 16.6109 1124.12 17.4545H1121.33C1120.6 17.4545 1120 18.1091 1120 18.9091V30.5455C1120 31.3455 1120.6 32 1121.33 32H1130.67C1131.4 32 1132 31.3455 1132 30.5455V18.9091C1132 18.1091 1131.4 17.4545 1130.67 17.4545ZM1126 17.4545C1126.37 17.4545 1126.67 17.7818 1126.67 18.1818C1126.67 18.5818 1126.37 18.9091 1126 18.9091C1125.63 18.9091 1125.33 18.5818 1125.33 18.1818C1125.33 17.7818 1125.63 17.4545 1126 17.4545ZM1130 30.5455H1122C1121.63 30.5455 1121.33 30.2182 1121.33 29.8182V19.6364C1121.33 19.2364 1121.63 18.9091 1122 18.9091H1122.67V19.6364C1122.67 20.4364 1123.27 21.0909 1124 21.0909H1128C1128.73 21.0909 1129.33 20.4364 1129.33 19.6364V18.9091H1130C1130.37 18.9091 1130.67 19.2364 1130.67 19.6364V29.8182C1130.67 30.2182 1130.37 30.5455 1130 30.5455Z" fill="#777776"/>
<path d="M1169.6 20.5H1166.1V18.4C1166.1 17.63 1165.47 17 1164.7 17H1163.3C1162.53 17 1161.9 17.63 1161.9 18.4V20.5H1158.4C1157.63 20.5 1157 21.13 1157 21.9V29.6C1157 30.37 1157.63 31 1158.4 31H1169.6C1170.37 31 1171 30.37 1171 29.6V21.9C1171 21.13 1170.37 20.5 1169.6 20.5ZM1163.3 18.4H1164.7V21.9H1163.3V18.4ZM1160.5 26.8H1159.8C1159.41 26.8 1159.1 26.485 1159.1 26.1C1159.1 25.715 1159.41 25.4 1159.8 25.4H1160.5V24.7C1160.5 24.315 1160.81 24 1161.2 24C1161.58 24 1161.9 24.315 1161.9 24.7V25.4H1162.6C1162.98 25.4 1163.3 25.715 1163.3 26.1C1163.3 26.485 1162.98 26.8 1162.6 26.8H1161.9V27.5C1161.9 27.885 1161.58 28.2 1161.2 28.2C1160.81 28.2 1160.5 27.885 1160.5 27.5V26.8ZM1165.22 25.75C1164.94 25.75 1164.7 25.512 1164.7 25.225C1164.7 24.938 1164.94 24.7 1165.22 24.7H1168.37C1168.66 24.7 1168.9 24.938 1168.9 25.225C1168.9 25.512 1168.66 25.75 1168.37 25.75H1165.22ZM1165.22 27.85C1164.94 27.85 1164.7 27.612 1164.7 27.325C1164.7 27.038 1164.94 26.8 1165.22 26.8H1166.97C1167.26 26.8 1167.5 27.038 1167.5 27.325C1167.5 27.612 1167.26 27.85 1166.97 27.85H1165.22Z" fill="#777776"/>
<path d="M1205.64 23.1429C1207.15 23.1429 1208.35 21.9943 1208.35 20.5714C1208.35 19.1486 1207.15 18 1205.64 18C1204.13 18 1202.91 19.1486 1202.91 20.5714C1202.91 21.9943 1204.13 23.1429 1205.64 23.1429ZM1198.36 23.1429C1199.87 23.1429 1201.08 21.9943 1201.08 20.5714C1201.08 19.1486 1199.87 18 1198.36 18C1196.85 18 1195.64 19.1486 1195.64 20.5714C1195.64 21.9943 1196.85 23.1429 1198.36 23.1429ZM1198.36 24.8571C1196.25 24.8571 1192 25.86 1192 27.8571V29.1429C1192 29.6143 1192.41 30 1192.91 30H1203.82C1204.32 30 1204.73 29.6143 1204.73 29.1429V27.8571C1204.73 25.86 1200.48 24.8571 1198.36 24.8571ZM1205.64 24.8571C1205.37 24.8571 1205.07 24.8743 1204.75 24.9C1204.77 24.9086 1204.78 24.9257 1204.79 24.9343C1205.83 25.6457 1206.55 26.5971 1206.55 27.8571V29.1429C1206.55 29.4429 1206.48 29.7343 1206.38 30H1211.09C1211.59 30 1212 29.6143 1212 29.1429V27.8571C1212 25.86 1207.75 24.8571 1205.64 24.8571Z" fill="#777776"/>
<rect x="14" y="52" width="20" height="20" rx="4" fill="white"/>
<path d="M21 58.648V65.352C21 65.8632 21.5145 66.1738 21.9108 65.8956L26.725 62.5436C27.0917 62.2912 27.0917 61.7088 26.725 61.45L21.9108 58.1044C21.5145 57.8262 21 58.1368 21 58.648Z" fill="#253981"/>
<path d="M62 53C58.325 53 55 55.9455 55 60.501C55 63.4099 57.1438 66.831 61.4225 70.7736C61.755 71.0755 62.2538 71.0755 62.5863 70.7736C66.8563 66.831 69 63.4099 69 60.501C69 55.9455 65.675 53 62 53ZM62 62.1475C61.0375 62.1475 60.25 61.3242 60.25 60.318C60.25 59.3118 61.0375 58.4885 62 58.4885C62.9625 58.4885 63.75 59.3118 63.75 60.318C63.75 61.3242 62.9625 62.1475 62 62.1475Z" fill="white"/>
<path d="M98.0413 69.0393V64.236H101.954V69.0393C101.954 69.5677 102.395 70 102.933 70H105.867C106.405 70 106.846 69.5677 106.846 69.0393V62.3146H108.509C108.959 62.3146 109.174 61.767 108.831 61.4788L100.653 54.245C100.282 53.9183 99.7141 53.9183 99.3424 54.245L91.1642 61.4788C90.8316 61.767 91.037 62.3146 91.487 62.3146H93.1501V69.0393C93.1501 69.5677 93.5903 70 94.1283 70H97.0631C97.6011 70 98.0413 69.5677 98.0413 69.0393Z" fill="white"/>
<path d="M138 54C133.584 54 130 57.584 130 62C130 66.416 133.584 70 138 70C142.416 70 146 66.416 146 62C146 57.584 142.416 54 138 54ZM138 56.4C139.328 56.4 140.4 57.472 140.4 58.8C140.4 60.128 139.328 61.2 138 61.2C136.672 61.2 135.6 60.128 135.6 58.8C135.6 57.472 136.672 56.4 138 56.4ZM138 67.76C136 67.76 134.232 66.736 133.2 65.184C133.224 63.592 136.4 62.72 138 62.72C139.592 62.72 142.776 63.592 142.8 65.184C141.768 66.736 140 67.76 138 67.76Z" fill="white"/>
<path d="M173 68L179 62L173 56L173 68Z" fill="white"/>
<path d="M210 57.81V66.19C210 66.829 210.686 67.2173 211.214 66.8694L217.633 62.6795C218.122 62.364 218.122 61.636 217.633 61.3125L211.214 57.1306C210.686 56.7827 210 57.171 210 57.81Z" fill="white"/>
<path d="M250.178 58.2105C249.941 58.4899 249.941 58.9412 250.178 59.2206L252.535 62.0005L250.178 64.7803C249.941 65.0597 249.941 65.511 250.178 65.7904C250.415 66.0699 250.797 66.0699 251.034 65.7904L253.822 62.502C254.059 62.2225 254.059 61.7712 253.822 61.4918L251.034 58.2033C250.803 57.9311 250.415 57.9311 250.178 58.2105Z" fill="white"/>
<path d="M285.642 62.6557L292.81 62.6557L289.678 65.8715C289.428 66.1285 289.428 66.5502 289.678 66.8072C289.929 67.0642 290.333 67.0642 290.583 66.8072L294.812 62.4646C295.063 62.2076 295.063 61.7924 294.812 61.5354L290.583 57.1928C290.333 56.9358 289.929 56.9358 289.678 57.1928C289.428 57.4498 289.428 57.8649 289.678 58.1219L292.81 61.3377L285.642 61.3377C285.289 61.3377 285 61.6343 285 61.9967C285 62.3591 285.289 62.6557 285.642 62.6557Z" fill="white"/>
<path d="M331.111 61.624C330.886 61.392 330.512 61.392 330.287 61.624L326.903 65.104L325.667 63.832C325.441 63.6 325.068 63.6 324.842 63.832C324.617 64.064 324.617 64.448 324.842 64.68L326.351 66.232C326.654 66.544 327.144 66.544 327.448 66.232L331.103 62.472C331.337 62.24 331.337 61.856 331.111 61.624ZM333.444 55.6H332.667V54.8C332.667 54.36 332.317 54 331.889 54C331.461 54 331.111 54.36 331.111 54.8V55.6H324.889V54.8C324.889 54.36 324.539 54 324.111 54C323.683 54 323.333 54.36 323.333 54.8V55.6H322.556C321.692 55.6 321.008 56.32 321.008 57.2L321 68.4C321 69.28 321.692 70 322.556 70H333.444C334.3 70 335 69.28 335 68.4V57.2C335 56.32 334.3 55.6 333.444 55.6ZM332.667 68.4H323.333C322.906 68.4 322.556 68.04 322.556 67.6V59.6H333.444V67.6C333.444 68.04 333.094 68.4 332.667 68.4Z" fill="white"/>
<path d="M369.889 54C369.461 54 369.111 54.36 369.111 54.8V55.6H362.889V54.8C362.889 54.36 362.539 54 362.111 54C361.683 54 361.333 54.36 361.333 54.8V55.6H360.556C359.692 55.6 359.008 56.32 359.008 57.2L359 68.4C359 69.28 359.692 70 360.556 70H371.444C372.3 70 373 69.28 373 68.4V57.2C373 56.32 372.3 55.6 371.444 55.6H370.667V54.8C370.667 54.36 370.317 54 369.889 54ZM371.444 68.4H360.556V60.4H371.444V68.4ZM365.222 62.8C365.222 62.36 365.572 62 366 62C366.428 62 366.778 62.36 366.778 62.8C366.778 63.24 366.428 63.6 366 63.6C365.572 63.6 365.222 63.24 365.222 62.8ZM362.111 62.8C362.111 62.36 362.461 62 362.889 62C363.317 62 363.667 62.36 363.667 62.8C363.667 63.24 363.317 63.6 362.889 63.6C362.461 63.6 362.111 63.24 362.111 62.8ZM368.333 62.8C368.333 62.36 368.683 62 369.111 62C369.539 62 369.889 62.36 369.889 62.8C369.889 63.24 369.539 63.6 369.111 63.6C368.683 63.6 368.333 63.24 368.333 62.8ZM365.222 66C365.222 65.56 365.572 65.2 366 65.2C366.428 65.2 366.778 65.56 366.778 66C366.778 66.44 366.428 66.8 366 66.8C365.572 66.8 365.222 66.44 365.222 66ZM362.111 66C362.111 65.56 362.461 65.2 362.889 65.2C363.317 65.2 363.667 65.56 363.667 66C363.667 66.44 363.317 66.8 362.889 66.8C362.461 66.8 362.111 66.44 362.111 66ZM368.333 66C368.333 65.56 368.683 65.2 369.111 65.2C369.539 65.2 369.889 65.56 369.889 66C369.889 66.44 369.539 66.8 369.111 66.8C368.683 66.8 368.333 66.44 368.333 66Z" fill="white"/>
<path d="M398.429 56.9626H399.859V57.7033C399.859 58.518 400.502 59.1846 401.288 59.1846H405.577C406.363 59.1846 407.006 58.518 407.006 57.7033V56.9626H408.436V60.6659H409.865V56.9626C409.865 56.1479 409.222 55.4813 408.436 55.4813H405.448C405.148 54.6222 404.362 54 403.433 54C402.503 54 401.717 54.6222 401.417 55.4813H398.429C397.643 55.4813 397 56.1479 397 56.9626V67.3318C397 68.1465 397.643 68.8131 398.429 68.8131H402.003V67.3318H398.429V56.9626ZM403.433 55.4813C403.826 55.4813 404.147 55.8146 404.147 56.222C404.147 56.6293 403.826 56.9626 403.433 56.9626C403.04 56.9626 402.718 56.6293 402.718 56.222C402.718 55.8146 403.04 55.4813 403.433 55.4813Z" fill="white"/>
<path d="M410.794 68.739L409.365 67.2577C409.78 66.5097 410.044 65.6061 409.73 64.5543C409.351 63.2804 408.271 62.2953 406.985 62.1694C404.934 61.962 403.247 63.7026 403.447 65.8357C403.576 67.1614 404.519 68.2872 405.748 68.6798C406.77 69.0057 407.635 68.7316 408.357 68.302L409.787 69.7834C410.065 70.0722 410.509 70.0722 410.787 69.7834C411.066 69.4945 411.073 69.0279 410.794 68.739ZM406.649 67.3318C405.648 67.3318 404.862 66.5171 404.862 65.4802C404.862 64.4432 405.648 63.6285 406.649 63.6285C407.65 63.6285 408.436 64.4432 408.436 65.4802C408.436 66.5171 407.65 67.3318 406.649 67.3318Z" fill="white"/>
<path d="M434 68H450C450.55 68 451 67.55 451 67C451 66.45 450.55 66 450 66H434C433.45 66 433 66.45 433 67C433 67.55 433.45 68 434 68ZM434 63H450C450.55 63 451 62.55 451 62C451 61.45 450.55 61 450 61H434C433.45 61 433 61.45 433 62C433 62.55 433.45 63 434 63ZM433 57C433 57.55 433.45 58 434 58H450C450.55 58 451 57.55 451 57C451 56.45 450.55 56 450 56H434C433.45 56 433 56.45 433 57Z" fill="white"/>
<path d="M480.001 70C480.871 70 481.583 69.2615 481.583 68.359H478.419C478.419 69.2615 479.123 70 480.001 70ZM484.747 65.0769V60.9744C484.747 58.4554 483.45 56.3467 481.187 55.7887V55.2308C481.187 54.5497 480.658 54 480.001 54C479.344 54 478.814 54.5497 478.814 55.2308V55.7887C476.544 56.3467 475.255 58.4472 475.255 60.9744V65.0769L474.235 66.1354C473.736 66.6523 474.084 67.5385 474.788 67.5385H485.206C485.91 67.5385 486.266 66.6523 485.767 66.1354L484.747 65.0769Z" fill="white"/>
<path d="M524.171 62C524.171 61.816 524.163 61.64 524.146 61.456L525.676 60.328C526.006 60.088 526.096 59.64 525.89 59.288L524.352 56.704C524.146 56.352 523.702 56.208 523.323 56.368L521.554 57.096C521.25 56.888 520.929 56.704 520.592 56.552L520.353 54.704C520.304 54.304 519.95 54 519.539 54H516.47C516.05 54 515.696 54.304 515.647 54.704L515.408 56.552C515.071 56.704 514.75 56.888 514.446 57.096L512.677 56.368C512.298 56.208 511.854 56.352 511.648 56.704L510.11 59.296C509.904 59.648 509.994 60.088 510.324 60.336L511.854 61.464C511.837 61.64 511.829 61.816 511.829 62C511.829 62.184 511.837 62.36 511.854 62.544L510.324 63.672C509.994 63.912 509.904 64.36 510.11 64.712L511.648 67.296C511.854 67.648 512.298 67.792 512.677 67.632L514.446 66.904C514.75 67.112 515.071 67.296 515.408 67.448L515.647 69.296C515.696 69.696 516.05 70 516.461 70H519.53C519.942 70 520.296 69.696 520.345 69.296L520.583 67.448C520.921 67.296 521.242 67.112 521.546 66.904L523.315 67.632C523.694 67.792 524.138 67.648 524.344 67.296L525.882 64.712C526.088 64.36 525.997 63.92 525.668 63.672L524.138 62.544C524.163 62.36 524.171 62.184 524.171 62ZM518.033 64.8C516.445 64.8 515.153 63.544 515.153 62C515.153 60.456 516.445 59.2 518.033 59.2C519.621 59.2 520.913 60.456 520.913 62C520.913 63.544 519.621 64.8 518.033 64.8Z" fill="white"/>
<path d="M560.5 62C561.88 62 562.99 60.88 562.99 59.5C562.99 58.12 561.88 57 560.5 57C559.12 57 558 58.12 558 59.5C558 60.88 559.12 62 560.5 62ZM553 61C554.66 61 555.99 59.66 555.99 58C555.99 56.34 554.66 55 553 55C551.34 55 550 56.34 550 58C550 59.66 551.34 61 553 61ZM560.5 64C558.67 64 555 64.92 555 66.75V68C555 68.55 555.45 69 556 69H565C565.55 69 566 68.55 566 68V66.75C566 64.92 562.33 64 560.5 64ZM553 63C550.67 63 546 64.17 546 66.5V68C546 68.55 546.45 69 547 69H553V66.75C553 65.9 553.33 64.41 555.37 63.28C554.5 63.1 553.66 63 553 63Z" fill="white"/>
<path d="M594 54C589.584 54 586 57.584 586 62C586 66.416 589.584 70 594 70C598.416 70 602 66.416 602 62C602 57.584 598.416 54 594 54ZM594 66C593.56 66 593.2 65.64 593.2 65.2V62C593.2 61.56 593.56 61.2 594 61.2C594.44 61.2 594.8 61.56 594.8 62V65.2C594.8 65.64 594.44 66 594 66ZM594.8 59.6H593.2V58H594.8V59.6Z" fill="white"/>
<path d="M632 54C627.584 54 624 57.584 624 62C624 66.416 627.584 70 632 70C636.416 70 640 66.416 640 62C640 57.584 636.416 54 632 54ZM632 68.4C628.472 68.4 625.6 65.528 625.6 62C625.6 58.472 628.472 55.6 632 55.6C635.528 55.6 638.4 58.472 638.4 62C638.4 65.528 635.528 68.4 632 68.4ZM631.2 65.2H632.8V66.8H631.2V65.2ZM632.488 57.232C630.84 56.992 629.384 58.008 628.944 59.464C628.8 59.928 629.152 60.4 629.64 60.4H629.8C630.128 60.4 630.392 60.168 630.504 59.864C630.76 59.152 631.52 58.664 632.344 58.84C633.104 59 633.664 59.744 633.6 60.52C633.52 61.592 632.304 61.824 631.64 62.824C631.64 62.832 631.632 62.832 631.632 62.84C631.624 62.856 631.616 62.864 631.608 62.88C631.536 63 631.464 63.136 631.408 63.28C631.4 63.304 631.384 63.32 631.376 63.344C631.368 63.36 631.368 63.376 631.36 63.4C631.264 63.672 631.2 64 631.2 64.4H632.8C632.8 64.064 632.888 63.784 633.024 63.544C633.04 63.52 633.048 63.496 633.064 63.472C633.128 63.36 633.208 63.256 633.288 63.16C633.296 63.152 633.304 63.136 633.312 63.128C633.392 63.032 633.48 62.944 633.576 62.856C634.344 62.128 635.384 61.536 635.168 60.008C634.976 58.616 633.88 57.44 632.488 57.232Z" fill="white"/>
<path d="M664.675 58.7717H661.919C661.413 58.7717 661 58.3564 661 57.8489C661 57.3413 661.413 56.926 661.919 56.926H664.675C665.18 56.926 665.594 57.3413 665.594 57.8489C665.594 58.3564 665.18 58.7717 664.675 58.7717ZM664.675 61.5402H661.919C661.413 61.5402 661 61.9555 661 62.463C661 62.9706 661.413 63.3858 661.919 63.3858H664.675C665.18 63.3858 665.594 62.9706 665.594 62.463C665.594 61.9555 665.18 61.5402 664.675 61.5402ZM677.427 67.3448L674.56 64.4656C673.77 64.9823 672.824 65.2776 671.804 65.2223C669.627 65.1208 667.762 63.4135 667.468 61.2449C667.064 58.1534 669.719 55.5418 672.824 56.0678C674.615 56.3723 676.104 57.775 676.499 59.5561C676.802 60.9034 676.508 62.1585 675.856 63.1551L678.731 66.0436C679.09 66.4035 679.09 66.9849 678.731 67.3448C678.373 67.7047 677.785 67.7047 677.427 67.3448ZM674.781 60.6174C674.781 59.0947 673.541 57.8489 672.025 57.8489C670.509 57.8489 669.268 59.0947 669.268 60.6174C669.268 62.14 670.509 63.3858 672.025 63.3858C673.541 63.3858 674.781 62.14 674.781 60.6174ZM661.919 68H669.268C669.774 68 670.187 67.5847 670.187 67.0772C670.187 66.5696 669.774 66.1543 669.268 66.1543H661.919C661.413 66.1543 661 66.5696 661 67.0772C661 67.5847 661.413 68 661.919 68Z" fill="white"/>
<path d="M711.732 64.3182H710.991L710.728 64.065C711.854 62.7518 712.436 60.9603 712.117 59.0562C711.676 56.4487 709.498 54.3664 706.871 54.0475C702.901 53.5597 699.559 56.8989 700.048 60.8665C700.367 63.4928 702.45 65.6689 705.059 66.1098C706.964 66.4287 708.757 65.8471 710.071 64.7216L710.324 64.9842V65.7252L714.313 69.7116C714.698 70.0961 715.327 70.0961 715.711 69.7116C716.096 69.327 716.096 68.6986 715.711 68.314L711.732 64.3182ZM706.101 64.3182C703.764 64.3182 701.878 62.4329 701.878 60.0974C701.878 57.7618 703.764 55.8765 706.101 55.8765C708.438 55.8765 710.324 57.7618 710.324 60.0974C710.324 62.4329 708.438 64.3182 706.101 64.3182Z" fill="white"/>
<path d="M746 54C741.584 54 738 57.584 738 62C738 66.416 741.584 70 746 70C750.416 70 754 66.416 754 62C754 57.584 750.416 54 746 54ZM749.2 62.8H746.8V65.2C746.8 65.64 746.44 66 746 66C745.56 66 745.2 65.64 745.2 65.2V62.8H742.8C742.36 62.8 742 62.44 742 62C742 61.56 742.36 61.2 742.8 61.2H745.2V58.8C745.2 58.36 745.56 58 746 58C746.44 58 746.8 58.36 746.8 58.8V61.2H749.2C749.64 61.2 750 61.56 750 62C750 62.44 749.64 62.8 749.2 62.8Z" fill="white"/>
<path d="M790.222 54H777.778C776.8 54 776.009 54.8 776.009 55.7778L776 68.2222C776 69.2 776.8 70 777.778 70H790.222C791.2 70 792 69.2 792 68.2222V55.7778C792 54.8 791.2 54 790.222 54ZM788.444 63.7778H785.778V66.4444C785.778 66.9333 785.378 67.3333 784.889 67.3333H783.111C782.622 67.3333 782.222 66.9333 782.222 66.4444V63.7778H779.556C779.067 63.7778 778.667 63.3778 778.667 62.8889V61.1111C778.667 60.6222 779.067 60.2222 779.556 60.2222H782.222V57.5556C782.222 57.0667 782.622 56.6667 783.111 56.6667H784.889C785.378 56.6667 785.778 57.0667 785.778 57.5556V60.2222H788.444C788.933 60.2222 789.333 60.6222 789.333 61.1111V62.8889C789.333 63.3778 788.933 63.7778 788.444 63.7778Z" fill="white"/>
<path d="M819.331 65.1054L816.412 62.3221C816.086 62.0119 815.569 62.0119 815.244 62.3221C814.919 62.6322 814.919 63.1252 815.244 63.4354L818.739 66.7674C819.064 67.0775 819.59 67.0775 819.915 66.7674L828.756 58.3459C829.081 58.0358 829.081 57.5427 828.756 57.2326C828.431 56.9225 827.914 56.9225 827.588 57.2326L819.331 65.1054Z" fill="white"/>
<path d="M860 54C855.584 54 852 57.584 852 62C852 66.416 855.584 70 860 70C864.416 70 868 66.416 868 62C868 57.584 864.416 54 860 54ZM857.832 65.432L854.96 62.56C854.648 62.248 854.648 61.744 854.96 61.432C855.272 61.12 855.776 61.12 856.088 61.432L858.4 63.736L863.904 58.232C864.216 57.92 864.72 57.92 865.032 58.232C865.344 58.544 865.344 59.048 865.032 59.36L858.96 65.432C858.656 65.744 858.144 65.744 857.832 65.432Z" fill="white"/>
<path d="M904.689 55.3212C904.275 54.9071 903.606 54.9071 903.192 55.3212L898 60.5028L892.808 55.3106C892.394 54.8965 891.725 54.8965 891.311 55.3106C890.896 55.7247 890.896 56.3936 891.311 56.8077L896.503 62L891.311 67.1923C890.896 67.6064 890.896 68.2753 891.311 68.6894C891.725 69.1035 892.394 69.1035 892.808 68.6894L898 63.4972L903.192 68.6894C903.606 69.1035 904.275 69.1035 904.689 68.6894C905.104 68.2753 905.104 67.6064 904.689 67.1923L899.497 62L904.689 56.8077C905.093 56.4042 905.093 55.7247 904.689 55.3212Z" fill="white"/>
<path d="M939.934 59.9412H938.571V55.8235C938.571 55.3706 938.186 55 937.714 55H934.286C933.814 55 933.429 55.3706 933.429 55.8235V59.9412H932.066C931.303 59.9412 930.917 60.8306 931.457 61.3494L935.391 65.1294C935.726 65.4506 936.266 65.4506 936.6 65.1294L940.534 61.3494C941.074 60.8306 940.697 59.9412 939.934 59.9412ZM930 68.1765C930 68.6294 930.386 69 930.857 69H941.143C941.614 69 942 68.6294 942 68.1765C942 67.7235 941.614 67.3529 941.143 67.3529H930.857C930.386 67.3529 930 67.7235 930 68.1765Z" fill="white"/>
<path d="M970.057 60.5625H971.42V64.7812C971.42 65.2453 971.806 65.625 972.277 65.625H975.706C976.177 65.625 976.563 65.2453 976.563 64.7812V60.5625H977.926C978.689 60.5625 979.074 59.6512 978.534 59.1196L974.6 55.2468C974.266 54.9177 973.726 54.9177 973.391 55.2468L969.457 59.1196C968.917 59.6512 969.294 60.5625 970.057 60.5625ZM968 68.1562C968 68.6203 968.386 69 968.857 69H979.143C979.614 69 980 68.6203 980 68.1562C980 67.6922 979.614 67.3125 979.143 67.3125H968.857C968.386 67.3125 968 67.6922 968 68.1562Z" fill="white"/>
<path d="M1011.99 54C1007.58 54 1004 57.584 1004 62C1004 66.416 1007.58 70 1011.99 70C1016.42 70 1020 66.416 1020 62C1020 57.584 1016.42 54 1011.99 54ZM1012 68.4C1008.46 68.4 1005.6 65.536 1005.6 62C1005.6 58.464 1008.46 55.6 1012 55.6C1015.54 55.6 1018.4 58.464 1018.4 62C1018.4 65.536 1015.54 68.4 1012 68.4ZM1011.82 58H1011.78C1011.46 58 1011.2 58.256 1011.2 58.576V62.352C1011.2 62.632 1011.34 62.896 1011.59 63.04L1014.91 65.032C1015.18 65.192 1015.54 65.112 1015.7 64.84C1015.86 64.568 1015.78 64.208 1015.5 64.048L1012.4 62.208V58.576C1012.4 58.256 1012.14 58 1011.82 58Z" fill="white"/>
<path d="M1050.63 68.4887H1042.78C1042.35 68.4887 1042 68.8287 1042 69.2443C1042 69.66 1042.35 70 1042.78 70H1050.63C1051.07 70 1051.42 69.66 1051.42 69.2443C1051.42 68.8287 1051.07 68.4887 1050.63 68.4887Z" fill="#253981"/>
<path d="M1047.55 56.5796L1045.33 58.7181L1055.32 68.3376C1055.93 68.927 1056.93 68.927 1057.54 68.3376C1058.15 67.7482 1058.15 66.7885 1057.54 66.1991L1047.55 56.5796Z" fill="#253981"/>
<path d="M1054.21 56.5796L1051.99 54.4411C1051.38 53.8517 1050.38 53.8517 1049.77 54.4487L1048.66 55.5141L1053.1 59.7911L1054.21 58.7181C1054.83 58.1287 1054.83 57.169 1054.21 56.5796Z" fill="#253981"/>
<path d="M1048.66 64.0606L1044.22 59.7836L1043.11 60.849C1042.5 61.4385 1042.5 62.3981 1043.11 62.9875L1045.34 65.126C1045.95 65.7155 1046.94 65.7155 1047.56 65.126L1048.66 64.0606Z" fill="#253981"/>
<path d="M1097 58.5915C1097 58.0511 1096.59 57.6089 1096.08 57.6089H1089.65C1089.14 57.6089 1088.73 58.0511 1088.73 58.5915C1088.73 59.132 1089.14 59.5741 1089.65 59.5741H1096.08C1096.59 59.5741 1097 59.132 1097 58.5915ZM1088.73 66.4525C1088.73 66.993 1089.14 67.4352 1089.65 67.4352H1096.08C1096.59 67.4352 1097 66.993 1097 66.4525C1097 65.9121 1096.59 65.4699 1096.08 65.4699H1089.65C1089.14 65.4699 1088.73 65.9121 1088.73 66.4525ZM1086.41 55.28C1086.77 55.6633 1086.77 56.2823 1086.41 56.6656L1082.52 60.8417C1082.16 61.225 1081.58 61.225 1081.22 60.8417L1079.27 58.7487C1078.91 58.3655 1078.91 57.7464 1079.27 57.3632C1079.63 56.98 1080.21 56.98 1080.56 57.3632L1081.87 58.7586L1085.12 55.28C1085.47 54.9067 1086.06 54.9067 1086.41 55.28ZM1086.42 63.1509C1086.77 63.5341 1086.77 64.1532 1086.42 64.5364L1082.53 68.7126C1082.17 69.0958 1081.59 69.0958 1081.23 68.7126L1079.27 66.6098C1078.91 66.2265 1078.91 65.6075 1079.27 65.2242C1079.63 64.841 1080.21 64.841 1080.56 65.2242L1081.87 66.6196L1085.12 63.1411C1085.47 62.7677 1086.06 62.7677 1086.42 63.1509Z" fill="#253981"/>
<path d="M1130.67 55.4545H1127.88C1127.6 54.6109 1126.87 54 1126 54C1125.13 54 1124.4 54.6109 1124.12 55.4545H1121.33C1120.6 55.4545 1120 56.1091 1120 56.9091V68.5455C1120 69.3455 1120.6 70 1121.33 70H1130.67C1131.4 70 1132 69.3455 1132 68.5455V56.9091C1132 56.1091 1131.4 55.4545 1130.67 55.4545ZM1126 55.4545C1126.37 55.4545 1126.67 55.7818 1126.67 56.1818C1126.67 56.5818 1126.37 56.9091 1126 56.9091C1125.63 56.9091 1125.33 56.5818 1125.33 56.1818C1125.33 55.7818 1125.63 55.4545 1126 55.4545ZM1130 68.5455H1122C1121.63 68.5455 1121.33 68.2182 1121.33 67.8182V57.6364C1121.33 57.2364 1121.63 56.9091 1122 56.9091H1122.67V57.6364C1122.67 58.4364 1123.27 59.0909 1124 59.0909H1128C1128.73 59.0909 1129.33 58.4364 1129.33 57.6364V56.9091H1130C1130.37 56.9091 1130.67 57.2364 1130.67 57.6364V67.8182C1130.67 68.2182 1130.37 68.5455 1130 68.5455Z" fill="#253981"/>
<path d="M1169.6 58.5H1166.1V56.4C1166.1 55.63 1165.47 55 1164.7 55H1163.3C1162.53 55 1161.9 55.63 1161.9 56.4V58.5H1158.4C1157.63 58.5 1157 59.13 1157 59.9V67.6C1157 68.37 1157.63 69 1158.4 69H1169.6C1170.37 69 1171 68.37 1171 67.6V59.9C1171 59.13 1170.37 58.5 1169.6 58.5ZM1163.3 56.4H1164.7V59.9H1163.3V56.4ZM1160.5 64.8H1159.8C1159.41 64.8 1159.1 64.485 1159.1 64.1C1159.1 63.715 1159.41 63.4 1159.8 63.4H1160.5V62.7C1160.5 62.315 1160.81 62 1161.2 62C1161.59 62 1161.9 62.315 1161.9 62.7V63.4H1162.6C1162.99 63.4 1163.3 63.715 1163.3 64.1C1163.3 64.485 1162.99 64.8 1162.6 64.8H1161.9V65.5C1161.9 65.885 1161.59 66.2 1161.2 66.2C1160.81 66.2 1160.5 65.885 1160.5 65.5V64.8ZM1165.22 63.75C1164.94 63.75 1164.7 63.512 1164.7 63.225C1164.7 62.938 1164.94 62.7 1165.22 62.7H1168.38C1168.66 62.7 1168.9 62.938 1168.9 63.225C1168.9 63.512 1168.66 63.75 1168.38 63.75H1165.22ZM1165.22 65.85C1164.94 65.85 1164.7 65.612 1164.7 65.325C1164.7 65.038 1164.94 64.8 1165.22 64.8H1166.97C1167.26 64.8 1167.5 65.038 1167.5 65.325C1167.5 65.612 1167.26 65.85 1166.97 65.85H1165.22Z" fill="#253981"/>
<path d="M1205.64 61.1429C1207.15 61.1429 1208.35 59.9943 1208.35 58.5714C1208.35 57.1486 1207.15 56 1205.64 56C1204.13 56 1202.91 57.1486 1202.91 58.5714C1202.91 59.9943 1204.13 61.1429 1205.64 61.1429ZM1198.36 61.1429C1199.87 61.1429 1201.08 59.9943 1201.08 58.5714C1201.08 57.1486 1199.87 56 1198.36 56C1196.85 56 1195.64 57.1486 1195.64 58.5714C1195.64 59.9943 1196.85 61.1429 1198.36 61.1429ZM1198.36 62.8571C1196.25 62.8571 1192 63.86 1192 65.8571V67.1429C1192 67.6143 1192.41 68 1192.91 68H1203.82C1204.32 68 1204.73 67.6143 1204.73 67.1429V65.8571C1204.73 63.86 1200.48 62.8571 1198.36 62.8571ZM1205.64 62.8571C1205.37 62.8571 1205.07 62.8743 1204.75 62.9C1204.77 62.9086 1204.78 62.9257 1204.79 62.9343C1205.83 63.6457 1206.55 64.5971 1206.55 65.8571V67.1429C1206.55 67.4429 1206.48 67.7343 1206.38 68H1211.09C1211.59 68 1212 67.6143 1212 67.1429V65.8571C1212 63.86 1207.75 62.8571 1205.64 62.8571Z" fill="#253981"/>
</svg>
