<svg width="28" height="28" viewBox="0 0 28 28" fill="none" xmlns="http://www.w3.org/2000/svg">
<path d="M20.6894 7.3212C20.2753 6.90709 19.6064 6.90709 19.1923 7.3212L14 12.5028L8.80774 7.31058C8.39363 6.89647 7.72469 6.89647 7.31058 7.31058C6.89647 7.72469 6.89647 8.39363 7.31058 8.80774L12.5028 14L7.31058 19.1923C6.89647 19.6064 6.89647 20.2753 7.31058 20.6894C7.72469 21.1035 8.39363 21.1035 8.80774 20.6894L14 15.4972L19.1923 20.6894C19.6064 21.1035 20.2753 21.1035 20.6894 20.6894C21.1035 20.2753 21.1035 19.6064 20.6894 19.1923L15.4972 14L20.6894 8.80774C21.0929 8.40425 21.0929 7.72469 20.6894 7.3212Z" fill="#A4A4A4"/>
</svg>
