<svg width="172" height="148" viewBox="0 0 172 148" fill="none" xmlns="http://www.w3.org/2000/svg">
<path d="M67.4844 25.749V48.4621C67.4844 49.4389 66.6932 50.2397 65.7085 50.2397C64.7327 50.2397 63.9326 49.4477 63.9326 48.4621V25.749" fill="#2F7AD3"/>
<path d="M65.7087 50.6357C64.513 50.6357 63.5371 49.6589 63.5371 48.4621V25.749H64.3372V48.4621C64.3372 49.2189 64.9526 49.8349 65.7087 49.8349C66.4647 49.8349 67.0802 49.2189 67.0802 48.4621V25.749H67.8802V48.4621C67.8802 49.6589 66.9043 50.6357 65.7087 50.6357Z" fill="#191919"/>
<path d="M131.022 95.9292C131.022 80.4499 121.562 67.1881 108.111 61.6089C103.785 59.8136 100.207 56.6544 97.8686 52.5976C91.4595 41.4742 79.4589 33.9854 65.7175 33.9854C51.9674 33.9854 39.9755 41.4742 33.5664 52.5976C31.2278 56.6544 27.6496 59.8136 23.3241 61.6089C9.87291 67.1881 0.413086 80.4499 0.413086 95.9292C0.413086 116.442 17.0293 133.074 37.5227 133.074C37.9183 133.074 38.3051 133.057 38.7008 133.048V133.074H95.108V133.048C115.039 132.423 131.022 116.046 131.022 95.9292Z" fill="#2F7AD3"/>
<path d="M95.0994 133.471H38.3141V133.453C38.0415 133.462 37.7778 133.471 37.5052 133.471C16.8272 133.471 0 116.636 0 95.9297C0 80.6879 9.09058 67.0742 23.1572 61.2397C27.4212 59.4709 30.8939 56.4173 33.2061 52.4044C39.8965 40.8059 52.3455 33.5986 65.7089 33.5986C79.0722 33.5986 91.5212 40.8059 98.2116 52.4044C100.524 56.4173 104.005 59.4797 108.26 61.2397C122.327 67.0742 131.418 80.6879 131.418 95.9297C131.418 105.751 127.655 115.035 120.824 122.075C114.098 129.009 105.113 133.031 95.495 133.427V133.445L95.0994 133.471ZM39.0613 132.679H94.8092L95.0818 132.653C115.012 132.028 130.626 115.897 130.626 95.9385C130.626 81.0223 121.729 67.699 107.962 61.9877C103.539 60.1573 99.926 56.9805 97.5259 52.8092C90.9849 41.4571 78.7908 34.3994 65.7177 34.3994C52.6445 34.3994 40.4416 41.4483 33.9006 52.8004C31.5005 56.9717 27.8871 60.1397 23.4649 61.9789C9.6972 67.6902 0.800041 81.0135 0.800041 95.9297C0.800041 116.188 17.2668 132.679 37.514 132.679C37.8129 132.679 38.1118 132.67 38.4108 132.661L39.0613 132.644V132.679Z" fill="#191919"/>
<path d="M38.1465 133.084C38.1465 133.084 44.6435 138.989 54.4462 138.734C64.2489 138.478 65.7083 133.841 65.7083 133.841L38.1465 133.084Z" fill="#2F7AD3"/>
<path d="M53.8311 139.138C44.3273 139.138 37.9446 133.436 37.8743 133.383L37.083 132.661L66.2449 133.453L66.0867 133.955C66.0251 134.157 64.4251 138.865 54.4553 139.129C54.2443 139.129 54.0421 139.138 53.8311 139.138ZM39.3337 133.515C41.4349 135.064 47.0088 138.522 54.4377 138.328C61.8491 138.135 64.3459 135.372 65.0756 134.21L39.3337 133.515Z" fill="#191919"/>
<path d="M93.2796 133.084C93.2796 133.084 86.7826 138.989 76.9799 138.734C67.1772 138.478 65.7178 133.841 65.7178 133.841L93.2796 133.084Z" fill="#2F7AD3"/>
<path d="M77.5867 139.138C77.3757 139.138 77.1735 139.138 76.9625 139.129C66.9927 138.865 65.3926 134.157 65.3311 133.955L65.1729 133.453L94.3348 132.661L93.5435 133.383C93.482 133.436 87.0905 139.138 77.5867 139.138ZM66.3509 134.219C67.0719 135.372 69.5687 138.144 76.9888 138.337C84.4354 138.531 89.9917 135.064 92.0929 133.524L66.3509 134.219Z" fill="#191919"/>
<path d="M65.7098 134.598C65.7098 134.598 59.4853 141.207 65.7098 147.437C71.9343 141.207 65.7098 134.598 65.7098 134.598Z" fill="#2F7AD3"/>
<path d="M65.7093 148L65.428 147.718C59.0013 141.294 65.3577 134.395 65.4192 134.325L65.7093 134.017L65.9995 134.325C66.061 134.395 72.4174 141.285 65.9907 147.718L65.7093 148ZM65.7093 135.205C64.5928 136.569 60.9618 141.778 65.7093 146.856C70.4568 141.778 66.8259 136.569 65.7093 135.205Z" fill="#191919"/>
<path d="M116.542 100.524C116.252 92.5602 113.245 87.0689 109.588 83.3112C105.57 79.1752 100.11 79.3336 94.2816 79.1576C93.0596 79.1224 91.9167 78.6208 91.0023 77.8112C87.4153 74.6696 77.7357 70.2871 66.3593 70.2871C55.0357 70.2871 45.4 74.652 41.769 77.776C40.8547 78.5592 39.7118 79.0344 38.5073 79.0256C32.1686 79.008 26.1639 78.8584 21.8296 83.3112C18.181 87.0689 15.1655 92.5602 14.8754 100.524C14.7435 104.062 15.2446 107.388 16.1502 110.468C20.5196 125.191 35.0434 135.161 51.2025 135.161H80.2062C96.374 135.161 110.889 125.2 115.259 110.468C116.182 107.388 116.674 104.062 116.542 100.524Z" fill="white"/>
<path d="M80.2059 135.548H51.211C34.7091 135.548 20.1413 125.278 15.7719 110.573C14.7872 107.265 14.3564 103.877 14.4795 100.506C14.7345 93.4661 17.1082 87.5876 21.548 83.0292C25.8823 78.5763 31.7639 78.6027 37.9884 78.6203H38.5071C38.5159 78.6203 38.5159 78.6203 38.5247 78.6203C39.5885 78.6203 40.6523 78.2067 41.5138 77.4675C45.0569 74.4139 54.6046 69.8818 66.3591 69.8818C78.1575 69.8818 87.8986 74.5547 91.2658 77.5027C92.145 78.2683 93.2264 78.7171 94.299 78.7435L95.521 78.7787C100.928 78.9283 106.027 79.0603 109.878 83.0204C114.309 87.5788 116.683 93.4573 116.946 100.497C117.069 103.868 116.63 107.256 115.654 110.565C111.284 125.278 96.7079 135.548 80.2059 135.548ZM36.6433 79.4211C31.0869 79.4211 25.8999 79.6939 22.1107 83.5924C17.8203 88.0012 15.5169 93.7037 15.2707 100.541C15.1477 103.824 15.5785 107.124 16.5367 110.353C20.8007 124.724 35.0608 134.756 51.211 134.756H80.2147C96.365 134.756 110.625 124.724 114.889 110.353C115.847 107.124 116.269 103.824 116.155 100.541C115.909 93.7037 113.605 88.0012 109.315 83.5924C105.693 79.8699 100.743 79.7291 95.5034 79.5883L94.2726 79.5531C93.0154 79.5179 91.7582 78.9987 90.7383 78.1099C87.4591 75.2411 77.9377 70.6826 66.3591 70.6826C54.8948 70.6826 45.3558 75.2147 42.0326 78.0747C41.0215 78.9459 39.7731 79.4211 38.5247 79.4211C38.5159 79.4211 38.5159 79.4211 38.5071 79.4211H37.9884C37.5312 79.4211 37.0916 79.4211 36.6433 79.4211Z" fill="#191919"/>
<path d="M70.2713 104.677H61.1544C60.961 104.677 60.8115 104.501 60.8115 104.281C60.8115 104.061 60.9698 103.885 61.1544 103.885H70.2713C70.4648 103.885 70.6142 104.061 70.6142 104.281C70.6142 104.501 70.456 104.677 70.2713 104.677Z" fill="#191919"/>
<path d="M60.6452 5.29722C60.5045 5.29722 60.3639 5.21802 60.2935 5.08602L58.966 2.62199C58.8605 2.42839 58.9308 2.19079 59.1242 2.08518C59.3177 1.97958 59.555 2.04998 59.6605 2.24359L60.9881 4.70761C61.0936 4.90122 61.0232 5.13882 60.8298 5.24442C60.7771 5.27962 60.7155 5.29722 60.6452 5.29722Z" fill="#191919"/>
<path d="M72.0657 5.29721C72.0042 5.29721 71.9338 5.27961 71.8811 5.25321C71.6877 5.14761 71.6173 4.91 71.7228 4.7164L73.0504 2.25238C73.1559 2.05877 73.3932 1.98837 73.5867 2.09397C73.7801 2.19958 73.8504 2.43718 73.7449 2.63078L72.4174 5.09481C72.347 5.22681 72.2064 5.29721 72.0657 5.29721Z" fill="#191919"/>
<path d="M66.5441 3.33524C66.3243 3.33524 66.1484 3.15043 66.1484 2.93043L66.166 0.396004C66.166 0.176002 66.3419 0 66.5616 0C66.7814 0 66.9573 0.184802 66.9573 0.404804L66.9397 2.93923C66.9397 3.15923 66.7639 3.33524 66.5441 3.33524Z" fill="#191919"/>
<path d="M74.7726 23.3295L66.9304 30.1408C66.2799 30.704 65.304 30.6952 64.671 30.1144L56.9783 23.1359C49.2592 16.1574 59.0707 6.14294 65.9721 14.3182C72.1263 5.77333 81.9202 16.5798 74.7726 23.3295Z" fill="#2F7AD3"/>
<path d="M65.8054 30.9504C65.2955 30.9504 64.7944 30.7656 64.39 30.4048L56.6973 23.4263C54.262 21.2263 53.2685 18.4455 53.9543 15.7966C54.5785 13.4206 56.4951 11.5462 58.8424 11.0094C61.2953 10.455 63.8625 11.423 65.9373 13.6846C67.6869 11.4758 69.8584 10.4638 72.0915 10.8334C74.4564 11.2294 76.5752 13.2094 77.3489 15.7614C78.2017 18.5599 77.3577 21.4199 75.0367 23.6111L75.0279 23.6199L67.1857 30.4312C66.7901 30.7832 66.2978 30.9504 65.8054 30.9504ZM60.2403 11.6518C59.8359 11.6518 59.4227 11.6958 59.0183 11.7926C56.961 12.259 55.273 13.9134 54.728 15.999C54.1125 18.3487 55.0269 20.8479 57.2336 22.8367L64.9263 29.8152C65.4186 30.2552 66.1571 30.264 66.6582 29.8328L74.5004 23.0303C76.584 21.0591 77.3489 18.4983 76.5928 15.999C75.8983 13.7286 74.0432 11.9686 71.9684 11.6254C69.9111 11.2822 67.8979 12.3206 66.289 14.547L65.9901 14.9606L65.6648 14.5734C64.0383 12.6638 62.1569 11.6518 60.2403 11.6518Z" fill="#191919"/>
<path d="M68.9971 19.6944H67.1421C66.9926 19.6944 66.8783 19.5712 66.8783 19.4304V17.5736C66.8783 17.424 66.7552 17.3096 66.6146 17.3096H64.8299C64.6804 17.3096 64.5661 17.4328 64.5661 17.5736V19.4304C64.5661 19.58 64.443 19.6944 64.3024 19.6944H62.4473C62.2979 19.6944 62.1836 19.8176 62.1836 19.9584V21.7448C62.1836 21.8944 62.3067 22.0088 62.4473 22.0088H64.3024C64.4518 22.0088 64.5661 22.132 64.5661 22.2728V24.1296C64.5661 24.2792 64.6892 24.3936 64.8299 24.3936H66.6146C66.764 24.3936 66.8783 24.2704 66.8783 24.1296V22.2728C66.8783 22.1232 67.0014 22.0088 67.1421 22.0088H68.9971C69.1466 22.0088 69.2609 21.8856 69.2609 21.7448V19.9584C69.2609 19.8176 69.1466 19.6944 68.9971 19.6944Z" fill="white"/>
<path d="M74.7821 20.6098C74.7206 20.6098 74.6502 20.5922 74.5887 20.5658C74.3953 20.4602 74.3249 20.2226 74.4304 20.029C75.8811 17.3626 73.7535 15.1714 73.6568 15.0746C73.4985 14.9162 73.4985 14.6698 73.6568 14.5114C73.815 14.353 74.0612 14.353 74.2194 14.5114C74.2458 14.5378 76.8569 17.213 75.125 20.4074C75.0634 20.5306 74.9228 20.6098 74.7821 20.6098Z" fill="#191919"/>
<path opacity="0.3" d="M96.7866 114.806C101.317 114.806 104.989 112.639 104.989 109.966C104.989 107.293 101.317 105.126 96.7866 105.126C92.2564 105.126 88.584 107.293 88.584 109.966C88.584 112.639 92.2564 114.806 96.7866 114.806Z" fill="#FF859C"/>
<path opacity="0.3" d="M32.6079 114.806C37.1381 114.806 40.8105 112.639 40.8105 109.966C40.8105 107.293 37.1381 105.126 32.6079 105.126C28.0777 105.126 24.4053 107.293 24.4053 109.966C24.4053 112.639 28.0777 114.806 32.6079 114.806Z" fill="#FF859C"/>
<path d="M33.6977 113.195C34.5814 113.195 35.2978 112.471 35.2978 111.576C35.2978 110.682 34.5814 109.957 33.6977 109.957C32.814 109.957 32.0977 110.682 32.0977 111.576C32.0977 112.471 32.814 113.195 33.6977 113.195Z" fill="white"/>
<path d="M33.698 109.966C34.5859 109.966 35.2981 110.687 35.2981 111.585C35.2981 112.483 34.5771 113.204 33.698 113.204C32.8188 113.204 32.0979 112.483 32.0979 111.585C32.0891 110.687 32.81 109.966 33.698 109.966ZM33.698 109.165C32.3792 109.165 31.2979 110.247 31.2979 111.576C31.2979 112.905 32.3704 113.987 33.698 113.987C35.0167 113.987 36.0981 112.905 36.0981 111.576C36.0981 110.247 35.0167 109.165 33.698 109.165Z" fill="#191919"/>
<path d="M97.1128 113.195C97.9965 113.195 98.7129 112.471 98.7129 111.576C98.7129 110.682 97.9965 109.957 97.1128 109.957C96.2291 109.957 95.5127 110.682 95.5127 111.576C95.5127 112.471 96.2291 113.195 97.1128 113.195Z" fill="white"/>
<path d="M97.113 109.966C98.001 109.966 98.7131 110.687 98.7131 111.585C98.7131 112.483 97.9922 113.204 97.113 113.204C96.2251 113.204 95.5129 112.483 95.5129 111.585C95.5129 110.687 96.2338 109.966 97.113 109.966ZM97.113 109.165C95.7943 109.165 94.7129 110.247 94.7129 111.576C94.7129 112.905 95.7855 113.987 97.113 113.987C98.4318 113.987 99.5131 112.905 99.5131 111.576C99.5131 110.247 98.4406 109.165 97.113 109.165Z" fill="#191919"/>
<path d="M51.211 101.799C51.2902 101.825 51.3693 101.878 51.4133 101.957C51.5188 102.125 51.4572 102.353 51.2902 102.45C51.1319 102.547 47.4218 104.694 42.9821 102.996C42.7974 102.925 42.7007 102.714 42.7711 102.529C42.8414 102.345 43.0524 102.23 43.237 102.318C47.3427 103.885 50.877 101.843 50.9121 101.825C51.0176 101.781 51.1231 101.773 51.211 101.799Z" fill="#191919"/>
<path d="M80.2055 101.799C80.1264 101.825 80.0472 101.878 80.0033 101.957C79.8978 102.125 79.9593 102.353 80.1264 102.45C80.2846 102.547 83.9947 104.694 88.4345 102.996C88.6191 102.925 88.7158 102.714 88.6455 102.529C88.5751 102.345 88.3641 102.23 88.1795 102.318C84.0738 103.885 80.5396 101.843 80.5044 101.825C80.4077 101.781 80.3022 101.773 80.2055 101.799Z" fill="#191919"/>
<path d="M65.7089 115.581C63.7396 115.581 61.7615 115.167 59.924 114.34C59.7306 114.252 59.6515 114.032 59.7306 113.838C59.8185 113.645 60.0383 113.565 60.2317 113.645C63.7132 115.211 67.7046 115.211 71.1773 113.645C71.3707 113.557 71.5905 113.645 71.6785 113.838C71.7664 114.032 71.6785 114.252 71.485 114.34C69.6564 115.167 67.687 115.581 65.7089 115.581Z" fill="#191919"/>
<path opacity="0.18" d="M77.8584 101.413C77.8584 102.521 72.645 102.504 66.2095 102.504C59.774 102.504 54.5605 102.521 54.5605 101.413C54.5605 100.304 59.774 99.3975 66.2095 99.3975C72.645 99.3975 77.8584 100.295 77.8584 101.413Z" fill="#FF859C"/>
<path opacity="0.15" d="M162.461 86.3112L144.878 90.6233C143.418 90.9841 141.924 90.1921 141.387 88.7841L134.996 71.8351C128.578 54.8685 151.753 47.142 155.955 65.3318C172.325 56.9805 178.919 81.5328 162.461 86.3112Z" fill="#FFA1B7"/>
<path opacity="0.3" d="M159.296 84.0934L145.801 87.4022C144.684 87.675 143.533 87.0678 143.119 85.9942L138.214 72.9789C133.282 59.9547 151.076 54.0235 154.302 67.9892C166.866 61.5739 171.921 80.4237 159.296 84.0934Z" fill="#FFA1B7"/>
<path opacity="0.6" d="M155.524 80.5739L147.489 82.5451C146.82 82.7123 146.135 82.3515 145.897 81.7003L142.978 73.9474C140.042 66.1945 150.645 62.6569 152.561 70.973C160.034 67.1713 163.05 78.3915 155.524 80.5739Z" fill="#FFA1B7"/>
<path opacity="0.3" d="M132.683 48.2068L125.773 53.2317C125.202 53.6453 124.402 53.5749 123.918 53.0557L118.098 46.79C112.269 40.5243 121.017 33.009 126.099 40.1987C131.752 33.6339 139.013 43.182 132.683 48.2068Z" fill="#FFA1B7"/>
<path opacity="0.6" d="M129.72 47.0891L125.606 50.0811C125.263 50.3275 124.788 50.2835 124.507 49.9755L121.043 46.2443C117.57 42.5131 122.784 38.0338 125.808 42.3195C129.166 38.4034 133.492 44.0883 129.72 47.0891Z" fill="#FFA1B7"/>
</svg>
