<svg width="153" height="148" viewBox="0 0 153 148" fill="none" xmlns="http://www.w3.org/2000/svg">
<g clip-path="url(#clip0_544_94384)">
<path d="M89.1586 25.749V48.4621C89.1586 49.4389 88.3686 50.2397 87.3855 50.2397C86.4111 50.2397 85.6123 49.4477 85.6123 48.4621V25.749" fill="#2F7AD3"/>
<path d="M87.3937 50.6357C86.1999 50.6357 85.2256 49.6589 85.2256 48.4621V25.749H86.0244V48.4621C86.0244 49.2189 86.6388 49.8349 87.3937 49.8349C88.1487 49.8349 88.7631 49.2189 88.7631 48.4621V25.749H89.5619V48.4621C89.5619 49.6589 88.5875 50.6357 87.3937 50.6357Z" fill="#191919"/>
<path d="M152.605 95.9292C152.605 80.4499 143.16 67.1881 129.729 61.6089C125.411 59.8136 121.838 56.6544 119.503 52.5976C113.104 41.4742 101.122 33.9854 87.402 33.9854C73.6732 33.9854 61.7001 41.4742 55.3009 52.5976C52.966 56.6544 49.3934 59.8136 45.0746 61.6089C31.6443 67.1881 22.1992 80.4499 22.1992 95.9292C22.1992 116.442 38.7896 133.074 59.251 133.074C59.646 133.074 60.0323 133.057 60.4273 133.048V133.074H116.747V133.048C136.646 132.423 152.605 116.046 152.605 95.9292Z" fill="#2F7AD3"/>
<path d="M116.73 133.471H60.0415V133.453C59.7694 133.462 59.506 133.471 59.2339 133.471C38.5881 133.471 21.7871 116.628 21.7871 95.9297C21.7871 80.6879 30.8635 67.0742 44.9083 61.2397C49.1656 59.4709 52.6329 56.4173 54.9415 52.4044C61.6215 40.8059 74.0511 33.5986 87.3936 33.5986C100.736 33.5986 113.166 40.8059 119.846 52.4044C122.154 56.4173 125.63 59.4797 129.879 61.2397C143.924 67.0742 153 80.6879 153 95.9297C153 105.751 149.243 115.035 142.423 122.075C135.708 129.009 126.737 133.031 117.133 133.427V133.445L116.73 133.471ZM60.7788 132.679H116.44L116.712 132.653C136.612 132.028 152.201 115.897 152.201 95.9385C152.201 81.0223 143.318 67.699 129.572 61.9877C125.156 60.1573 121.549 56.9805 119.152 52.8092C112.622 41.4571 100.446 34.3994 87.3936 34.3994C74.3408 34.3994 62.1658 41.4483 55.6262 52.8004C53.2298 56.9717 49.622 60.1397 45.2067 61.9789C31.4604 67.6902 22.5771 81.0135 22.5771 95.9297C22.5771 116.188 39.0183 132.679 59.2339 132.679C59.5324 132.679 59.8308 132.67 60.1293 132.661L60.7788 132.644V132.679Z" fill="#191919"/>
<path d="M59.8662 133.084C59.8662 133.084 66.3531 138.989 76.1406 138.734C85.928 138.478 87.3851 133.841 87.3851 133.841L59.8662 133.084Z" fill="#2F7AD3"/>
<path d="M75.5345 139.138C66.0455 139.138 59.6727 133.436 59.6025 133.383L58.8125 132.661L87.929 133.453L87.771 133.955C87.7096 134.157 86.112 138.865 76.1578 139.129C75.9471 139.129 75.7364 139.138 75.5345 139.138ZM61.0509 133.515C63.1488 135.064 68.7141 138.522 76.1314 138.328C83.5313 138.135 86.0242 135.372 86.7528 134.21L61.0509 133.515Z" fill="#191919"/>
<path d="M114.912 133.084C114.912 133.084 108.426 138.989 98.6381 138.734C88.8507 138.478 87.3936 133.841 87.3936 133.841L114.912 133.084Z" fill="#2F7AD3"/>
<path d="M99.2529 139.138C99.0422 139.138 98.8403 139.138 98.6297 139.129C88.6754 138.865 87.0778 134.157 87.0164 133.955L86.8584 133.453L115.975 132.661L115.185 133.383C115.115 133.436 108.742 139.138 99.2529 139.138ZM88.0259 134.219C88.7457 135.372 91.2386 138.144 98.6472 138.337C106.082 138.531 111.63 135.064 113.728 133.524L88.0259 134.219Z" fill="#191919"/>
<path d="M87.394 134.598C87.394 134.598 81.1792 141.207 87.394 147.437C93.6088 141.207 87.394 134.598 87.394 134.598Z" fill="#2F7AD3"/>
<path d="M87.3939 148L87.113 147.718C80.6963 141.294 87.0428 134.395 87.1042 134.325L87.3939 134.017L87.6835 134.325C87.745 134.395 94.0915 141.285 87.6748 147.718L87.3939 148ZM87.3939 135.205C86.2791 136.569 82.6538 141.778 87.3939 146.856C92.134 141.778 88.5087 136.569 87.3939 135.205Z" fill="#191919"/>
<path d="M138.147 100.524C137.858 92.5602 134.856 87.0689 131.204 83.3112C127.193 79.1752 121.741 79.3336 115.922 79.1576C114.701 79.1224 113.56 78.6208 112.647 77.8112C109.066 74.6696 99.4015 70.2871 88.0428 70.2871C76.7368 70.2871 67.1161 74.652 63.4908 77.776C62.5779 78.5592 61.4368 79.0344 60.2342 79.0256C53.9053 79.008 47.9099 78.8584 43.5824 83.3112C39.9395 87.0689 36.9287 92.5602 36.639 100.524C36.5073 104.062 37.0077 107.388 37.9118 110.468C42.2745 125.191 56.7757 135.161 72.9096 135.161H101.868C118.011 135.161 132.503 125.2 136.866 110.468C137.779 107.388 138.27 104.062 138.147 100.524Z" fill="white"/>
<path d="M101.868 135.548H72.9097C56.4334 135.548 41.8883 125.278 37.5257 110.573C36.5426 107.265 36.1124 103.877 36.2353 100.506C36.4899 93.4661 38.8599 87.5876 43.2928 83.0292C47.6204 78.5763 53.4928 78.6027 59.7076 78.6203H60.2255C60.2343 78.6203 60.2343 78.6203 60.2431 78.6203C61.3052 78.6203 62.3673 78.2067 63.2276 77.4675C66.7651 74.4139 76.298 69.8818 88.0341 69.8818C99.8142 69.8818 109.54 74.5547 112.902 77.5027C113.78 78.2683 114.86 78.7171 115.931 78.7435L117.151 78.7787C122.549 78.9283 127.64 79.0603 131.485 83.0204C135.909 87.5788 138.279 93.4573 138.543 100.497C138.665 103.868 138.227 107.256 137.252 110.565C132.89 125.278 118.344 135.548 101.868 135.548ZM58.3734 79.4211C52.8257 79.4211 47.6467 79.6939 43.8634 83.5924C39.5797 88.0012 37.2799 93.7037 37.0341 100.541C36.9112 103.824 37.3414 107.124 38.2982 110.353C42.5555 124.724 56.7933 134.756 72.9185 134.756H101.877C118.002 134.756 132.24 124.724 136.497 110.353C137.454 107.124 137.875 103.824 137.761 100.541C137.516 93.7037 135.216 88.0012 130.932 83.5924C127.316 79.8699 122.374 79.7291 117.142 79.5883L115.913 79.5531C114.658 79.5179 113.402 78.9987 112.384 78.1099C109.11 75.2411 99.6035 70.6826 88.0429 70.6826C76.5964 70.6826 67.0723 75.2147 63.7543 78.0747C62.7448 78.9459 61.4983 79.4211 60.2518 79.4211C60.2431 79.4211 60.2431 79.4211 60.2343 79.4211H59.7164C59.2599 79.4211 58.8123 79.4211 58.3734 79.4211Z" fill="#191919"/>
<path d="M92.6162 104.677H82.1704C81.9509 104.677 81.7754 104.501 81.7754 104.281C81.7754 104.061 81.9509 103.885 82.1704 103.885H92.6162C92.8356 103.885 93.0112 104.061 93.0112 104.281C93.0112 104.501 92.8356 104.677 92.6162 104.677Z" fill="#191919"/>
<path d="M70.4521 113.195C70.4521 113.195 72.6379 115.677 86.033 115.677H88.7542C102.149 115.677 104.335 113.195 104.335 113.195" fill="white"/>
<path d="M88.7541 116.082H86.0329C72.6201 116.082 70.2501 113.565 70.1623 113.459C70.0131 113.292 70.0306 113.046 70.1974 112.896C70.3554 112.755 70.61 112.764 70.7504 112.923C70.8031 112.975 73.2434 115.281 86.0329 115.281H88.7541C101.623 115.281 104.019 112.949 104.036 112.923C104.186 112.764 104.44 112.755 104.598 112.905C104.756 113.055 104.774 113.292 104.633 113.459C104.528 113.565 102.167 116.082 88.7541 116.082Z" fill="#191919"/>
<path d="M82.3378 5.29722C82.1974 5.29722 82.0569 5.21802 81.9867 5.08602L80.6612 2.62199C80.5559 2.42839 80.6261 2.19079 80.8192 2.08518C81.0124 1.97958 81.2494 2.04998 81.3547 2.24359L82.6802 4.70761C82.7855 4.90122 82.7153 5.13882 82.5222 5.24442C82.4695 5.27962 82.3993 5.29722 82.3378 5.29722Z" fill="#191919"/>
<path d="M93.7409 5.29721C93.6794 5.29721 93.6092 5.27961 93.5565 5.25321C93.3634 5.14761 93.2932 4.91 93.3985 4.7164L94.724 2.25238C94.8293 2.05877 95.0663 1.98837 95.2595 2.09397C95.4526 2.19958 95.5228 2.43718 95.4175 2.63078L94.092 5.09481C94.013 5.22681 93.8813 5.29721 93.7409 5.29721Z" fill="#191919"/>
<path d="M88.228 3.33524C88.0086 3.33524 87.833 3.15043 87.833 2.93043L87.8506 0.396004C87.8506 0.176002 88.0261 0 88.2456 0C88.465 0 88.6406 0.184802 88.6406 0.404804L88.623 2.93923C88.623 3.15923 88.4475 3.33524 88.228 3.33524Z" fill="#191919"/>
<path d="M96.4348 23.3295L88.6049 30.1408C87.9553 30.704 86.981 30.6952 86.3489 30.1144L78.6682 23.1359C70.9612 16.1574 80.7574 6.14294 87.6481 14.3182C93.8014 5.77333 103.571 16.5798 96.4348 23.3295Z" fill="#2F7AD3"/>
<path d="M87.4898 30.9504C86.9807 30.9504 86.4803 30.7656 86.0765 30.4048L78.3958 23.4263C75.9643 21.2263 74.9724 18.4455 75.6571 15.7966C76.2803 13.4206 78.1939 11.5462 80.5376 11.0094C82.9867 10.455 85.5499 11.423 87.6215 13.6846C89.3683 11.4758 91.5364 10.4638 93.766 10.8334C96.1273 11.2294 98.2428 13.2094 99.0153 15.7614C99.8667 18.5599 99.024 21.4199 96.7066 23.6111L96.6979 23.6199L88.8679 30.4312C88.4729 30.7832 87.9813 30.9504 87.4898 30.9504ZM81.9333 11.6518C81.5295 11.6518 81.117 11.6958 80.7132 11.7926C78.6591 12.259 76.9738 13.9134 76.4295 15.999C75.8151 18.3487 76.728 20.8479 78.9313 22.8367L86.612 29.8152C87.1035 30.2552 87.8409 30.264 88.3412 29.8328L96.1712 23.0303C98.2516 21.0591 99.0153 18.4983 98.2604 15.999C97.5669 13.7286 95.7147 11.9686 93.6431 11.6254C91.5891 11.2822 89.5789 12.3206 87.9726 14.547L87.6741 14.9606L87.3493 14.5734C85.7254 12.6638 83.8381 11.6518 81.9333 11.6518Z" fill="#191919"/>
<path d="M90.6682 19.6944H88.816C88.6668 19.6944 88.5527 19.5712 88.5527 19.4304V17.5736C88.5527 17.424 88.4298 17.3096 88.2893 17.3096H86.5074C86.3582 17.3096 86.2441 17.4328 86.2441 17.5736V19.4304C86.2441 19.58 86.1212 19.6944 85.9807 19.6944H84.1286C83.9793 19.6944 83.8652 19.8176 83.8652 19.9584V21.7448C83.8652 21.8944 83.9881 22.0088 84.1286 22.0088H85.9807C86.1299 22.0088 86.2441 22.132 86.2441 22.2728V24.1296C86.2441 24.2792 86.367 24.3936 86.5074 24.3936H88.2893C88.4386 24.3936 88.5527 24.2704 88.5527 24.1296V22.2728C88.5527 22.1232 88.6756 22.0088 88.816 22.0088H90.6682C90.8174 22.0088 90.9315 21.8856 90.9315 21.7448V19.9584C90.9403 19.8176 90.8174 19.6944 90.6682 19.6944Z" fill="white"/>
<path d="M96.4442 20.6098C96.3828 20.6098 96.3126 20.5922 96.2511 20.5658C96.058 20.4602 95.9878 20.2226 96.0931 20.029C97.5415 17.3626 95.4172 15.1714 95.3207 15.0746C95.1626 14.9162 95.1626 14.6698 95.3207 14.5114C95.4787 14.353 95.7244 14.353 95.8824 14.5114C95.9088 14.5378 98.5158 17.213 96.7866 20.4074C96.7251 20.5306 96.5847 20.6098 96.4442 20.6098Z" fill="#191919"/>
<path opacity="0.18" d="M118.415 114.806C122.939 114.806 126.605 112.639 126.605 109.966C126.605 107.293 122.939 105.126 118.415 105.126C113.892 105.126 110.226 107.293 110.226 109.966C110.226 112.639 113.892 114.806 118.415 114.806Z" fill="#FF859C"/>
<path opacity="0.18" d="M54.3451 114.806C58.8682 114.806 62.535 112.639 62.535 109.966C62.535 107.293 58.8682 105.126 54.3451 105.126C49.822 105.126 46.1553 107.293 46.1553 109.966C46.1553 112.639 49.822 114.806 54.3451 114.806Z" fill="#FF859C"/>
<path d="M71.4353 102.292C71.4353 104.474 70.1889 106.243 68.6527 106.243C67.1166 106.243 65.8701 104.474 65.8701 102.292C65.8701 100.11 67.1166 98.3408 68.6527 98.3408C70.1889 98.3496 71.4353 100.118 71.4353 102.292Z" fill="#191919"/>
<path d="M55.4247 113.195C56.3071 113.195 57.0223 112.471 57.0223 111.576C57.0223 110.682 56.3071 109.957 55.4247 109.957C54.5424 109.957 53.8271 110.682 53.8271 111.576C53.8271 112.471 54.5424 113.195 55.4247 113.195Z" fill="white"/>
<path d="M55.4247 109.966C56.3113 109.966 57.0223 110.687 57.0223 111.585C57.0223 112.483 56.3025 113.204 55.4247 113.204C54.5381 113.204 53.8271 112.483 53.8271 111.585C53.8271 110.687 54.5381 109.966 55.4247 109.966ZM55.4247 109.165C54.108 109.165 53.0283 110.247 53.0283 111.576C53.0283 112.905 54.0992 113.987 55.4247 113.987C56.7414 113.987 57.8211 112.905 57.8211 111.576C57.8211 110.247 56.7414 109.165 55.4247 109.165Z" fill="#191919"/>
<path d="M118.749 113.195C119.631 113.195 120.347 112.471 120.347 111.576C120.347 110.682 119.631 109.957 118.749 109.957C117.867 109.957 117.151 110.682 117.151 111.576C117.151 112.471 117.867 113.195 118.749 113.195Z" fill="white"/>
<path d="M118.749 109.966C119.635 109.966 120.347 110.687 120.347 111.585C120.347 112.483 119.627 113.204 118.749 113.204C117.862 113.204 117.151 112.483 117.151 111.585C117.151 110.687 117.862 109.966 118.749 109.966ZM118.749 109.165C117.432 109.165 116.353 110.247 116.353 111.576C116.353 112.905 117.423 113.987 118.749 113.987C120.066 113.987 121.145 112.905 121.145 111.576C121.145 110.247 120.066 109.165 118.749 109.165Z" fill="#191919"/>
<path d="M15.3173 66.6604L13.1842 73.4628C13.0087 74.0261 12.4381 74.3693 11.8587 74.2636L4.8627 72.9612C-2.14212 71.6676 -0.017849 62.2779 6.94308 64.5659C7.46976 57.3587 17.0641 60.1483 15.3173 66.6604Z" fill="#FFA1B7"/>
<path d="M12.0698 74.8361C11.9645 74.8361 11.8592 74.8273 11.7538 74.8097L4.75777 73.5073C2.44039 73.0761 0.781353 71.7472 0.202007 69.8464C-0.315893 68.1392 0.158118 66.2384 1.40459 65.0152C2.65106 63.792 4.45932 63.396 6.46948 63.8712C6.86449 61.3895 8.29529 60.4303 9.16431 60.0783C10.7795 59.4183 12.8423 59.8319 14.2906 61.1079C15.8707 62.5071 16.4412 64.584 15.8443 66.8016L15.8356 66.8192L13.7025 73.6217C13.4831 74.3609 12.8072 74.8361 12.0698 74.8361ZM4.85433 64.7688C3.7922 64.7688 2.87051 65.112 2.17705 65.7984C1.22025 66.74 0.851577 68.2008 1.25536 69.5208C1.5187 70.4008 2.36139 71.9408 4.95967 72.4249L11.9557 73.7273C12.2717 73.7889 12.5702 73.6041 12.6579 73.3049L14.791 66.5112C15.2738 64.716 14.8261 63.0439 13.5709 61.9351C12.4297 60.9231 10.8321 60.5887 9.58566 61.0991C8.36552 61.6007 7.61939 62.8503 7.4965 64.6192L7.44383 65.3232L6.77671 65.1032C6.1008 64.8744 5.45123 64.7688 4.85433 64.7688Z" fill="#191919"/>
<path d="M103.475 104.114C103.387 104.114 103.299 104.088 103.238 104.017C103.089 103.885 103.08 103.656 103.212 103.507C103.335 103.375 106.223 100.207 110.963 100.488C111.165 100.497 111.314 100.673 111.305 100.876C111.296 101.078 111.129 101.245 110.919 101.219C106.539 100.955 103.782 103.964 103.756 104C103.668 104.07 103.572 104.114 103.475 104.114Z" fill="#191919"/>
</g>
<defs>
<clipPath id="clip0_544_94384">
<rect width="153" height="148" fill="white"/>
</clipPath>
</defs>
</svg>
