<svg width="158" height="148" viewBox="0 0 158 148" fill="none" xmlns="http://www.w3.org/2000/svg">
<g clip-path="url(#clip0_544_94383)">
<path d="M87.4322 5.29722C87.2919 5.29722 87.1517 5.21802 87.0815 5.08602L85.7578 2.62199C85.6527 2.42839 85.7228 2.19079 85.9156 2.08518C86.1085 1.97958 86.3452 2.04998 86.4504 2.24359L87.774 4.70761C87.8792 4.90122 87.8091 5.13882 87.6163 5.24442C87.5637 5.27962 87.5023 5.29722 87.4322 5.29722Z" fill="#191919"/>
<path d="M98.8195 5.29721C98.7581 5.29721 98.688 5.27961 98.6354 5.25321C98.4425 5.14761 98.3724 4.91 98.4776 4.7164L99.8013 2.25238C99.9064 2.05877 100.143 1.98837 100.336 2.09397C100.529 2.19958 100.599 2.43718 100.494 2.63078L99.1701 5.09481C99.1 5.22681 98.9597 5.29721 98.8195 5.29721Z" fill="#191919"/>
<path d="M93.3144 3.33524C93.0952 3.33524 92.9199 3.15043 92.9199 2.93043L92.9375 0.396004C92.9375 0.176002 93.1128 0 93.3319 0C93.5511 0 93.7264 0.184802 93.7264 0.404804L93.7089 2.93923C93.7089 3.15923 93.5335 3.33524 93.3144 3.33524Z" fill="#191919"/>
<path d="M94.2524 25.75V48.463C94.2524 49.4399 93.4635 50.2407 92.4817 50.2407C91.5086 50.2407 90.7109 49.4487 90.7109 48.463V25.75" fill="#2F7AD3"/>
<path d="M92.4816 50.6367C91.2894 50.6367 90.3164 49.6599 90.3164 48.463V25.75H91.1141V48.463C91.1141 49.2199 91.7277 49.8359 92.4816 49.8359C93.2355 49.8359 93.8491 49.2199 93.8491 48.463V25.75H94.6469V48.463C94.6469 49.6599 93.6738 50.6367 92.4816 50.6367Z" fill="#191919"/>
<path d="M157.605 95.9302C157.605 80.4508 148.173 67.1891 134.761 61.6098C130.448 59.8146 126.88 56.6554 124.548 52.5985C118.158 41.4752 106.192 33.9863 92.4905 33.9863C78.7803 33.9863 66.8234 41.4752 60.4329 52.5985C58.1011 56.6554 54.5333 59.8146 50.2204 61.6098C36.8083 67.1891 27.376 80.4508 27.376 95.9302C27.376 116.443 43.9439 133.075 64.3776 133.075C64.7721 133.075 65.1578 133.058 65.5523 133.049V133.075H121.796V133.049C141.668 132.424 157.605 116.047 157.605 95.9302Z" fill="#2F7AD3"/>
<path d="M121.778 133.472H65.1665V133.454C64.8947 133.463 64.6318 133.472 64.36 133.472C43.7422 133.472 26.9639 116.629 26.9639 95.9307C26.9639 80.6889 36.028 67.0752 50.0537 61.2407C54.3053 59.4719 57.7679 56.4183 60.0734 52.4054C66.7444 40.8069 79.1572 33.5996 92.4816 33.5996C105.806 33.5996 118.219 40.8069 124.89 52.4054C127.195 56.4183 130.667 59.4807 134.909 61.2407C148.935 67.0752 157.999 80.6889 157.999 95.9307C157.999 105.752 154.247 115.036 147.436 122.076C140.73 129.01 131.771 133.032 122.181 133.428V133.445L121.778 133.472ZM65.9116 132.68H121.497L121.769 132.653C141.642 132.029 157.21 115.898 157.21 95.9395C157.21 81.0233 148.339 67.7 134.611 61.9887C130.202 60.1583 126.599 56.9815 124.206 52.8102C117.684 41.4581 105.526 34.4004 92.4904 34.4004C79.4552 34.4004 67.2879 41.4493 60.7659 52.8014C58.3728 56.9727 54.7699 60.1407 50.3606 61.9799C36.6329 67.6912 27.7616 81.0145 27.7616 95.9307C27.7616 116.189 44.1805 132.68 64.3688 132.68C64.6668 132.68 64.9649 132.671 65.2629 132.662L65.9116 132.645V132.68Z" fill="#191919"/>
<path d="M65 133.085C65 133.085 71.4781 138.99 81.2523 138.735C91.0265 138.479 92.4817 133.842 92.4817 133.842L65 133.085Z" fill="#2F7AD3"/>
<path d="M80.6388 139.139C71.1627 139.139 64.7985 133.437 64.7284 133.384L63.9395 132.662L93.0166 133.454L92.8588 133.956C92.7974 134.158 91.202 138.866 81.2612 139.13C81.0509 139.13 80.8492 139.139 80.6388 139.139ZM66.1748 133.516C68.2699 135.065 73.8276 138.523 81.2349 138.329C88.6248 138.136 91.1143 135.373 91.8419 134.211L66.1748 133.516Z" fill="#191919"/>
<path d="M119.964 133.085C119.964 133.085 113.486 138.99 103.712 138.735C93.9376 138.479 92.4824 133.842 92.4824 133.842L119.964 133.085Z" fill="#2F7AD3"/>
<path d="M104.325 139.139C104.115 139.139 103.913 139.139 103.703 139.13C93.7618 138.866 92.1664 134.158 92.1051 133.956L91.9473 133.454L121.024 132.662L120.235 133.384C120.174 133.437 113.801 139.139 104.325 139.139ZM93.1219 134.22C93.8407 135.373 96.3303 138.145 103.729 138.338C111.154 138.532 116.694 135.065 118.789 133.525L93.1219 134.22Z" fill="#191919"/>
<path d="M92.4811 134.599C92.4811 134.599 86.2747 141.208 92.4811 147.438C98.6874 141.208 92.4811 134.599 92.4811 134.599Z" fill="#2F7AD3"/>
<path d="M92.4814 148.001L92.2009 147.719C85.7929 141.295 92.1308 134.396 92.1921 134.326L92.4814 134.018L92.7707 134.326C92.8321 134.396 99.1699 141.286 92.7619 147.719L92.4814 148.001ZM92.4814 135.206C91.3681 136.57 87.7477 141.779 92.4814 146.857C97.2151 141.779 93.5947 136.57 92.4814 135.206Z" fill="#191919"/>
<path d="M143.509 100.524C143.22 92.5602 140.222 87.0689 136.575 83.3112C132.569 79.1752 127.125 79.3336 121.313 79.1576C120.095 79.1224 118.955 78.6208 118.044 77.8112C114.467 74.6696 104.816 70.2871 93.4722 70.2871C82.1815 70.2871 72.5739 74.652 68.9535 77.776C68.0418 78.5592 66.9022 79.0344 65.7012 79.0256C59.3809 79.008 53.3937 78.8584 49.072 83.3112C45.434 87.0689 42.4273 92.5602 42.138 100.524C42.0065 104.062 42.5062 107.388 43.4091 110.468C47.7658 125.191 62.2474 135.161 78.3595 135.161H107.279C123.4 135.161 137.872 125.2 142.229 110.468C143.141 107.388 143.632 104.062 143.509 100.524Z" fill="white"/>
<path d="M107.278 135.548H78.359C61.9051 135.548 47.3797 125.278 43.0229 110.573C42.0411 107.265 41.6116 103.877 41.7343 100.506C41.9885 93.4661 44.3554 87.5876 48.7823 83.0292C53.1039 78.5763 58.9685 78.6027 65.1748 78.6203H65.692C65.7008 78.6203 65.7008 78.6203 65.7096 78.6203C66.7703 78.6203 67.831 78.2067 68.69 77.4675C72.2228 74.4139 81.7428 69.8818 93.463 69.8818C105.227 69.8818 114.94 74.5547 118.297 77.5027C119.174 78.2683 120.252 78.7171 121.322 78.7435L122.54 78.7787C127.931 78.9283 133.016 79.0603 136.855 83.0204C141.273 87.5788 143.64 93.4573 143.903 100.497C144.026 103.868 143.588 107.256 142.614 110.565C138.258 125.278 123.732 135.548 107.278 135.548ZM63.8424 79.4211C58.3022 79.4211 53.1302 79.6939 49.3521 83.5924C45.0742 88.0012 42.7775 93.7037 42.532 100.541C42.4093 103.824 42.8388 107.124 43.7944 110.353C48.0459 124.724 62.2645 134.756 78.3678 134.756H107.287C123.39 134.756 137.609 124.724 141.861 110.353C142.816 107.124 143.237 103.824 143.123 100.541C142.877 93.7037 140.581 88.0012 136.303 83.5924C132.691 79.8699 127.756 79.7291 122.531 79.5883L121.304 79.5531C120.051 79.5179 118.797 78.9987 117.78 78.1099C114.51 75.2411 105.017 70.6826 93.4718 70.6826C82.0408 70.6826 72.5296 75.2147 69.216 78.0747C68.2079 78.9459 66.9631 79.4211 65.7183 79.4211C65.7096 79.4211 65.7096 79.4211 65.7008 79.4211H65.1836C64.7278 79.4211 64.2807 79.4211 63.8424 79.4211Z" fill="#191919"/>
<path d="M101.519 23.3295L93.6999 30.1408C93.0512 30.704 92.0782 30.6952 91.447 30.1144L83.7767 23.1359C76.0801 16.1574 85.863 6.14294 92.7444 14.3182C98.8807 5.77333 108.646 16.5798 101.519 23.3295Z" fill="#2F7AD3"/>
<path d="M92.578 30.9504C92.0695 30.9504 91.5699 30.7656 91.1666 30.4048L83.4963 23.4263C81.0681 21.2263 80.0775 18.4455 80.7613 15.7966C81.3837 13.4206 83.2947 11.5462 85.6352 11.0094C88.081 10.455 90.6407 11.423 92.7095 13.6846C94.4539 11.4758 96.6191 10.4638 98.8457 10.8334C101.204 11.2294 103.316 13.2094 104.088 15.7614C104.938 18.5599 104.097 21.4199 101.782 23.6111L101.774 23.6199L93.9543 30.4312C93.5598 30.7832 93.0689 30.9504 92.578 30.9504ZM87.029 11.6518C86.6258 11.6518 86.2138 11.6958 85.8106 11.7926C83.7593 12.259 82.0762 13.9134 81.5327 15.999C80.9191 18.3487 81.8308 20.8479 84.031 22.8367L91.7014 29.8152C92.1923 30.2552 92.9286 30.264 93.4283 29.8328L101.248 23.0303C103.325 21.0591 104.088 18.4983 103.334 15.999C102.641 13.7286 100.792 11.9686 98.723 11.6254C96.6717 11.2822 94.6643 12.3206 93.0601 14.547L92.7621 14.9606L92.4377 14.5734C90.816 12.6638 88.9401 11.6518 87.029 11.6518Z" fill="#191919"/>
<path d="M95.7605 19.6954H93.9109C93.7618 19.6954 93.6479 19.5722 93.6479 19.4314V17.5745C93.6479 17.4249 93.5252 17.3105 93.3849 17.3105H91.6054C91.4564 17.3105 91.3424 17.4337 91.3424 17.5745V19.4314C91.3424 19.581 91.2197 19.6954 91.0794 19.6954H89.2298C89.0808 19.6954 88.9668 19.8186 88.9668 19.9594V21.7458C88.9668 21.8954 89.0895 22.0098 89.2298 22.0098H91.0794C91.2285 22.0098 91.3424 22.133 91.3424 22.2738V24.1306C91.3424 24.2802 91.4651 24.3946 91.6054 24.3946H93.3849C93.5339 24.3946 93.6479 24.2714 93.6479 24.1306V22.2738C93.6479 22.1242 93.7706 22.0098 93.9109 22.0098H95.7605C95.9095 22.0098 96.0235 21.8866 96.0235 21.7458V19.9594C96.0235 19.8186 95.9095 19.6954 95.7605 19.6954Z" fill="white"/>
<path d="M101.528 20.6098C101.467 20.6098 101.397 20.5922 101.336 20.5658C101.143 20.4602 101.073 20.2226 101.178 20.029C102.624 17.3626 100.503 15.1714 100.406 15.0746C100.249 14.9162 100.249 14.6698 100.406 14.5114C100.564 14.353 100.81 14.353 100.967 14.5114C100.994 14.5378 103.597 17.213 101.87 20.4074C101.809 20.5306 101.669 20.6098 101.528 20.6098Z" fill="#191919"/>
<path opacity="0.18" d="M60.5554 114.92C66.1666 114.92 70.7153 113.431 70.7153 111.594C70.7153 109.757 66.1666 108.268 60.5554 108.268C54.9442 108.268 50.3955 109.757 50.3955 111.594C50.3955 113.431 54.9442 114.92 60.5554 114.92Z" fill="#FF859C"/>
<path opacity="0.18" d="M123.794 114.92C129.405 114.92 133.954 113.431 133.954 111.594C133.954 109.757 129.405 108.268 123.794 108.268C118.183 108.268 113.634 109.757 113.634 111.594C113.634 113.431 118.183 114.92 123.794 114.92Z" fill="#FF859C"/>
<path d="M60.5554 112.897C61.4365 112.897 62.1508 112.172 62.1508 111.277C62.1508 110.383 61.4365 109.658 60.5554 109.658C59.6743 109.658 58.96 110.383 58.96 111.277C58.96 112.172 59.6743 112.897 60.5554 112.897Z" fill="white"/>
<path d="M60.5553 109.658C61.4406 109.658 62.1507 110.38 62.1507 111.277C62.1507 112.175 61.4319 112.897 60.5553 112.897C59.6699 112.897 58.9598 112.175 58.9598 111.277C58.9598 110.38 59.6786 109.658 60.5553 109.658ZM60.5553 108.866C59.2403 108.866 58.1621 109.949 58.1621 111.277C58.1621 112.606 59.2316 113.689 60.5553 113.689C61.8702 113.689 62.9484 112.606 62.9484 111.277C62.9484 109.949 61.8789 108.866 60.5553 108.866Z" fill="#191919"/>
<path d="M123.794 112.897C124.675 112.897 125.389 112.172 125.389 111.277C125.389 110.383 124.675 109.658 123.794 109.658C122.913 109.658 122.198 110.383 122.198 111.277C122.198 112.172 122.913 112.897 123.794 112.897Z" fill="white"/>
<path d="M123.794 109.658C124.679 109.658 125.389 110.38 125.389 111.277C125.389 112.175 124.67 112.897 123.794 112.897C122.908 112.897 122.198 112.175 122.198 111.277C122.198 110.38 122.917 109.658 123.794 109.658ZM123.794 108.866C122.479 108.866 121.4 109.949 121.4 111.277C121.4 112.606 122.47 113.689 123.794 113.689C125.108 113.689 126.187 112.606 126.187 111.277C126.187 109.949 125.108 108.866 123.794 108.866Z" fill="#191919"/>
<path d="M79.9545 100.779C79.9457 100.779 79.9457 100.779 79.937 100.779L66.9105 100.269C66.7002 100.26 66.5424 100.084 66.5511 99.8728C66.5599 99.6616 66.7265 99.4944 66.9456 99.512L79.972 100.022C80.1824 100.031 80.3402 100.207 80.3314 100.418C80.3314 100.621 80.1561 100.779 79.9545 100.779Z" fill="#191919"/>
<path d="M77.5435 101.528C77.4734 103.517 75.5799 104.52 73.3095 104.441C71.0479 104.361 69.2684 103.226 69.3473 101.237" fill="#191919"/>
<path d="M69.3565 104.097C69.2163 105.945 70.7591 107.062 72.7753 107.212C74.8002 107.37 76.5359 106.499 76.6762 104.66L76.5622 104.686C74.3356 105.953 71.9337 105.892 69.3565 104.097Z" fill="#B3B3B3"/>
<path d="M105.683 100.779C105.481 100.779 105.315 100.621 105.306 100.418C105.297 100.207 105.464 100.031 105.665 100.022L118.692 99.5117C118.885 99.5205 119.078 99.6701 119.086 99.8725C119.095 100.084 118.929 100.26 118.727 100.269L105.7 100.779C105.692 100.779 105.683 100.779 105.683 100.779Z" fill="#191919"/>
<path d="M108.094 101.527C108.164 103.516 110.057 104.519 112.328 104.44C114.589 104.36 116.369 103.225 116.29 101.236" fill="#191919"/>
<path d="M116.282 104.097C116.422 105.945 114.879 107.062 112.863 107.212C110.838 107.37 109.102 106.499 108.962 104.66L109.076 104.686C111.302 105.953 113.704 105.892 116.282 104.097Z" fill="#B3B3B3"/>
<path d="M92.5516 117.737C90.474 117.737 88.3789 117.121 88.3789 115.951C88.3789 113.601 96.7242 113.601 96.7242 115.951C96.7155 117.13 94.6204 117.737 92.5516 117.737ZM92.5516 114.93C90.3425 114.93 89.1328 115.608 89.1328 115.96C89.1328 116.312 90.3425 116.989 92.5516 116.989C94.7606 116.989 95.9703 116.312 95.9703 115.96C95.9616 115.608 94.7606 114.93 92.5516 114.93Z" fill="#191919"/>
<g opacity="0.3">
<g opacity="0.58">
<path opacity="0.58" d="M19.6176 66.1597C19.4335 68.6414 19.2494 71.1318 19.1092 73.5958C20.0647 72.8302 19.2932 73.4726 21.8354 71.4838C22.3701 71.0702 22.8961 70.6566 23.4659 70.2518C23.5886 70.1814 23.7201 70.0934 23.8516 70.0318L23.9743 69.9966C23.9919 69.9878 24.0269 69.9702 24.0883 69.9438C24.2811 69.8998 24.4214 69.8822 24.5529 69.8998C24.8422 69.9526 25.0087 70.0934 25.1052 70.3574C25.1753 70.4806 25.1578 70.6478 25.1227 70.771C25.0876 70.8942 25.035 71.0174 24.9298 71.1406C24.8422 71.2902 24.7545 71.3958 24.6406 71.5102C24.5441 71.607 24.4565 71.695 24.36 71.7654L18.6884 76.1918C18.5657 76.2886 18.4342 76.3854 18.3027 76.4734C18.2325 76.5086 18.1799 76.5438 18.1274 76.5702C18.0397 76.623 17.952 76.667 17.8468 76.7286C17.6978 76.7638 17.5926 76.7902 17.4787 76.799C17.2946 76.8254 17.1806 76.799 17.093 76.7286L17.0842 76.7198C16.9965 76.667 16.9352 76.623 16.8738 76.5086C16.865 76.4998 16.8387 76.4998 16.8212 76.4734C16.7423 76.3766 16.7248 76.2534 16.6985 76.1214C16.6897 76.051 16.6722 75.963 16.6985 75.8662C16.6809 75.743 16.6897 75.6022 16.6809 75.4878C16.6809 75.391 16.6634 75.2678 16.6722 75.1798C16.7072 75.0566 16.7072 74.9598 16.6985 74.863L16.8212 73.3406L16.9965 70.5598C17.093 69.7414 17.1368 68.8614 17.1806 67.9461C17.2069 67.2597 17.2683 66.7669 17.3033 66.1245C15.8482 67.2597 14.8664 68.0253 13.2096 69.2574C12.9028 69.4774 12.4382 69.7766 12.0437 69.7942C11.8508 69.803 11.7193 69.7678 11.6404 69.6974C11.544 69.6358 11.4476 69.5478 11.3687 69.4422C11.2723 69.319 11.2284 69.1606 11.246 68.9934C11.2635 68.8262 11.3424 68.6238 11.4564 68.4565C11.6141 68.2365 11.807 68.0341 12.0262 67.8581C12.2541 67.6645 12.482 67.4797 12.6661 67.2949L12.745 67.2333C13.3498 66.7493 14.5596 65.8165 16.3566 64.4173C16.5933 64.2325 16.8475 64.0125 17.0754 63.8541C17.5926 63.5109 18.0835 62.9829 18.6708 62.8421C18.8374 62.7981 18.9864 62.7981 19.1442 62.7453C19.9332 62.7013 19.7841 63.9333 19.7578 64.4789C19.7315 65.0333 19.6702 65.6053 19.6176 66.1597Z" fill="#191919"/>
</g>
<g opacity="0.58">
<path opacity="0.58" d="M28.393 49.2291C28.2089 51.7107 28.0248 54.2011 27.8845 56.6651C28.84 55.8995 28.0686 56.5419 30.6108 54.5531C31.1455 54.1395 31.6715 53.7259 32.2413 53.3211C32.364 53.2507 32.4955 53.1627 32.627 53.1011L32.7497 53.0659C32.7673 53.0571 32.8023 53.0395 32.8637 53.0131C33.0565 52.9691 33.1968 52.9515 33.3283 52.9691C33.6176 53.0219 33.7841 53.1627 33.8806 53.4267C33.9507 53.5499 33.9331 53.7171 33.8981 53.8403C33.863 53.9635 33.8104 54.0867 33.7052 54.2099C33.6176 54.3595 33.5299 54.4651 33.4159 54.5795C33.3195 54.6763 33.2319 54.7643 33.1354 54.8347L27.4638 59.2612C27.341 59.358 27.2096 59.4548 27.0781 59.5428C27.0079 59.578 26.9553 59.6132 26.9027 59.6396C26.8151 59.6924 26.7274 59.7364 26.6222 59.798C26.4732 59.8332 26.368 59.8596 26.2541 59.8684C26.07 59.8948 25.956 59.8684 25.8683 59.798L25.8596 59.7892C25.7719 59.7364 25.7106 59.6924 25.6492 59.578C25.6404 59.5692 25.6141 59.5692 25.5966 59.5428C25.5177 59.446 25.5002 59.3228 25.4739 59.1908C25.4651 59.1204 25.4476 59.0324 25.4739 58.9356C25.4563 58.8124 25.4651 58.6716 25.4563 58.5572C25.4563 58.4604 25.4388 58.3372 25.4476 58.2492C25.4826 58.126 25.4826 58.0292 25.4739 57.9324L25.5966 56.4099L25.7719 53.6291C25.8683 52.8107 25.9122 51.9307 25.956 51.0155C25.9823 50.3291 26.0437 49.8363 26.0787 49.1939C24.6236 50.3291 23.6418 51.0947 21.985 52.3267C21.6782 52.5467 21.2135 52.8459 20.8191 52.8635C20.6262 52.8723 20.4947 52.8371 20.4158 52.7667C20.3194 52.7051 20.223 52.6171 20.1441 52.5115C20.0477 52.3883 20.0038 52.2299 20.0214 52.0627C20.0389 51.8955 20.1178 51.6931 20.2317 51.5259C20.3895 51.3059 20.5824 51.1035 20.8015 50.9275C21.0295 50.7339 21.2574 50.5491 21.4415 50.3643L21.5204 50.3027C22.1252 49.8187 23.3349 48.8859 25.132 47.4866C25.3687 47.3018 25.6229 47.0818 25.8508 46.9234C26.368 46.5802 26.8589 46.0522 27.4462 45.9114C27.6128 45.8674 27.7618 45.8674 27.9196 45.8146C28.7086 45.7706 28.5595 47.0026 28.5332 47.5482C28.4982 48.1114 28.4456 48.6835 28.393 49.2291Z" fill="#191919"/>
</g>
<g opacity="0.58">
<path opacity="0.58" d="M8.37982 41.7838C8.19573 44.2654 8.01164 46.7558 7.87138 49.2199C8.82689 48.4543 8.05547 49.0967 10.5976 47.1078C11.1324 46.6942 11.6583 46.2806 12.2281 45.8758C12.3509 45.8054 12.4823 45.7174 12.6138 45.6558L12.7366 45.6206C12.7541 45.6118 12.7892 45.5942 12.8505 45.5678C13.0434 45.5238 13.1836 45.5062 13.3151 45.5238C13.6044 45.5766 13.771 45.7174 13.8674 45.9814C13.9375 46.1046 13.92 46.2718 13.8849 46.395C13.8499 46.5182 13.7973 46.6414 13.6921 46.7646C13.6044 46.9142 13.5167 47.0198 13.4028 47.1342C13.3064 47.231 13.2187 47.319 13.1223 47.3894L7.45061 51.8159C7.32789 51.9127 7.19639 52.0095 7.0649 52.0975C6.99477 52.1327 6.94218 52.1679 6.88958 52.1943C6.80192 52.2471 6.71426 52.2911 6.60907 52.3527C6.46004 52.3879 6.35485 52.4143 6.24089 52.4231C6.0568 52.4495 5.94284 52.4231 5.85518 52.3527L5.84642 52.3439C5.75876 52.2911 5.69739 52.2471 5.63603 52.1327C5.62726 52.1239 5.60097 52.1239 5.58343 52.0975C5.50454 52.0007 5.48701 51.8775 5.46071 51.7455C5.45194 51.6751 5.43441 51.5871 5.46071 51.4903C5.44318 51.3671 5.45194 51.2263 5.44318 51.1119C5.44318 51.0151 5.42564 50.8919 5.43441 50.8039C5.46947 50.6807 5.46947 50.5839 5.46071 50.4871L5.58343 48.9647L5.75876 46.1838C5.85518 45.3654 5.89901 44.4854 5.94284 43.5702C5.96914 42.8838 6.0305 42.391 6.06557 41.7486C4.6104 42.8838 3.6286 43.6494 1.9718 44.8814C1.66499 45.1014 1.20039 45.4006 0.805915 45.4182C0.613061 45.427 0.481569 45.3918 0.402674 45.3214C0.306247 45.2598 0.20982 45.1718 0.130926 45.0662C0.0344987 44.9166 -0.0180979 44.7582 -0.000565708 44.591C0.0169665 44.4238 0.0958613 44.2214 0.20982 44.0542C0.36761 43.8342 0.560464 43.6318 0.779616 43.4558C1.00753 43.2622 1.23545 43.0774 1.41954 42.8926L1.49844 42.831C2.1033 42.347 3.31302 41.4142 5.11006 40.015C5.34675 39.8302 5.60097 39.6102 5.82888 39.4518C6.34608 39.1086 6.83698 38.5805 7.42431 38.4397C7.59087 38.3957 7.73989 38.3957 7.89768 38.3429C8.68663 38.2989 8.53761 39.531 8.51131 40.0766C8.48501 40.6574 8.43241 41.2294 8.37982 41.7838Z" fill="#191919"/>
</g>
</g>
<path d="M97.7675 104.555H87.3359C87.1167 104.555 86.9414 104.379 86.9414 104.159C86.9414 103.939 87.1167 103.763 87.3359 103.763H97.7675C97.9867 103.763 98.162 103.939 98.162 104.159C98.162 104.379 97.9867 104.555 97.7675 104.555Z" fill="black"/>
</g>
<defs>
<clipPath id="clip0_544_94383">
<rect width="158" height="148" fill="white"/>
</clipPath>
</defs>
</svg>
