<svg width="148" height="148" viewBox="0 0 148 148" fill="none" xmlns="http://www.w3.org/2000/svg">
<g clip-path="url(#clip0_544_94382)">
<path d="M75.7772 25.749V48.4621C75.7772 49.4389 74.9855 50.2397 74.0004 50.2397C73.0241 50.2397 72.2236 49.4477 72.2236 48.4621V25.749" fill="#2F7AD3"/>
<path d="M74.0007 50.6357C72.8045 50.6357 71.8281 49.6589 71.8281 48.4621V25.749H72.6285V48.4621C72.6285 49.2189 73.2443 49.8349 74.0007 49.8349C74.7572 49.8349 75.3729 49.2189 75.3729 48.4621V25.749H76.1733V48.4621C76.1733 49.6589 75.197 50.6357 74.0007 50.6357Z" fill="#191919"/>
<path d="M139.672 95.9439C139.672 80.4645 130.208 67.2028 116.75 61.6235C112.422 59.8283 108.842 56.669 106.503 52.6122C100.09 41.4889 88.084 34 74.336 34C60.5792 34 48.5816 41.4889 42.1694 52.6122C39.8297 56.669 36.2497 59.8283 31.9221 61.6235C18.4644 67.2028 9 80.4645 9 95.9439C9 116.457 25.6243 133.089 46.1275 133.089C46.5234 133.089 46.9104 133.071 47.3062 133.063V133.089H103.741V133.063C123.681 132.438 139.672 116.061 139.672 95.9439Z" fill="#2F7AD3"/>
<path d="M103.396 133.471H46.5923V133.453C46.3197 133.462 46.0558 133.471 45.7831 133.471C25.0951 133.471 8.25977 116.628 8.25977 95.9297C8.25977 80.6879 17.3547 67.0742 31.4282 61.2397C35.6942 59.4709 39.1686 56.4173 41.4819 52.4044C48.1756 40.8059 60.6306 33.5986 74.0004 33.5986C87.3702 33.5986 99.8252 40.8059 106.519 52.4044C108.832 56.4173 112.315 59.4797 116.573 61.2397C130.646 67.0742 139.741 80.6879 139.741 95.9297C139.741 105.751 135.976 115.035 129.142 122.075C122.413 129.009 113.424 133.031 103.801 133.427V133.445L103.396 133.471ZM47.34 132.679H103.115L103.388 132.653C123.328 132.028 138.949 115.897 138.949 95.9385C138.949 81.0223 130.048 67.699 116.274 61.9877C111.849 60.1573 108.234 56.9805 105.833 52.8092C99.2887 41.4571 87.0887 34.3994 74.0092 34.3994C60.9297 34.3994 48.721 41.4483 42.1768 52.8004C39.7755 56.9717 36.1604 60.1397 31.7361 61.9789C17.9617 67.6902 9.06019 81.0135 9.06019 95.9297C9.06019 116.188 25.5349 132.679 45.7919 132.679C46.091 132.679 46.39 132.67 46.6891 132.661L47.34 132.644V132.679Z" fill="#191919"/>
<path d="M46.4258 133.084C46.4258 133.084 52.926 138.989 62.7334 138.734C72.5408 138.478 74.001 133.841 74.001 133.841L46.4258 133.084Z" fill="#2F7AD3"/>
<path d="M62.1175 139.138C52.6092 139.138 46.2233 133.436 46.153 133.383L45.3613 132.661L74.5374 133.453L74.379 133.955C74.3175 134.157 72.7166 138.865 62.7421 139.129C62.5309 139.129 62.3286 139.138 62.1175 139.138ZM47.6131 133.515C49.7153 135.064 55.2919 138.522 62.7245 138.328C70.1394 138.135 72.6375 135.372 73.3675 134.21L47.6131 133.515Z" fill="#191919"/>
<path d="M101.584 133.084C101.584 133.084 95.0838 138.989 85.2763 138.734C75.4689 138.478 74.0088 133.841 74.0088 133.841L101.584 133.084Z" fill="#2F7AD3"/>
<path d="M85.8837 139.138C85.6726 139.138 85.4703 139.138 85.2592 139.129C75.2846 138.865 73.6838 134.157 73.6222 133.955L73.4639 133.453L102.64 132.661L101.848 133.383C101.787 133.436 95.3921 139.138 85.8837 139.138ZM74.6425 134.219C75.3638 135.372 77.8618 138.144 85.2856 138.337C92.7357 138.531 98.2947 135.064 100.397 133.524L74.6425 134.219Z" fill="#191919"/>
<path d="M74.0002 134.598C74.0002 134.598 67.7727 141.207 74.0002 147.437C80.2277 141.207 74.0002 134.598 74.0002 134.598Z" fill="#2F7AD3"/>
<path d="M73.9999 148L73.7185 147.718C67.2886 141.294 73.6481 134.395 73.7097 134.325L73.9999 134.017L74.2902 134.325C74.3518 134.395 80.7112 141.285 74.2814 147.718L73.9999 148ZM73.9999 135.205C72.8828 136.569 69.2501 141.778 73.9999 146.856C78.7497 141.778 75.117 136.569 73.9999 135.205Z" fill="#191919"/>
<path d="M125.395 100.524C125.105 92.5602 122.097 87.0689 118.437 83.3112C114.418 79.1752 108.955 79.3336 103.124 79.1576C101.901 79.1224 100.758 78.6208 99.8429 77.8112C96.2542 74.6696 86.5699 70.2871 75.1879 70.2871C63.8588 70.2871 54.2185 74.652 50.5858 77.776C49.671 78.5592 48.5275 79.0344 47.3225 79.0256C40.9806 79.008 34.973 78.8584 30.6367 83.3112C26.9863 87.0689 23.9693 92.5602 23.6791 100.524C23.5471 104.062 24.0485 107.388 24.9545 110.468C29.3261 125.191 43.8569 135.161 60.0238 135.161H89.0415C105.217 135.161 119.739 125.2 124.111 110.468C125.034 107.388 125.527 104.062 125.395 100.524Z" fill="white"/>
<path d="M88.6459 135.548H59.637C43.1271 135.548 28.5523 125.278 24.1807 110.573C23.1956 107.265 22.7646 103.877 22.8877 100.506C23.1428 93.4661 25.5177 87.5876 29.9596 83.0292C34.296 78.5763 40.1805 78.6027 46.408 78.6203H46.9269C46.9357 78.6203 46.9357 78.6203 46.9445 78.6203C48.0088 78.6203 49.0731 78.2067 49.9351 77.4675C53.4799 74.4139 63.0323 69.8818 74.7924 69.8818C86.5965 69.8818 96.3424 74.5547 99.7112 77.5027C100.591 78.2683 101.673 78.7171 102.746 78.7435L103.968 78.7787C109.378 78.9283 114.48 79.0603 118.332 83.0204C122.765 87.5788 125.14 93.4573 125.404 100.497C125.527 103.868 125.087 107.256 124.111 110.565C119.74 125.278 105.156 135.548 88.6459 135.548ZM45.0622 79.4211C39.5032 79.4211 34.3136 79.6939 30.5226 83.5924C26.2302 88.0012 23.9256 93.7037 23.6793 100.541C23.5562 103.824 23.9872 107.124 24.946 110.353C29.212 124.724 43.4789 134.756 59.637 134.756H88.6547C104.813 134.756 119.08 124.724 123.346 110.353C124.305 107.124 124.727 103.824 124.612 100.541C124.366 93.7037 122.062 88.0012 117.769 83.5924C114.145 79.8699 109.193 79.7291 103.951 79.5883L102.719 79.5531C101.462 79.5179 100.204 78.9987 99.1834 78.1099C95.9026 75.2411 86.3766 70.6826 74.7924 70.6826C63.3225 70.6826 53.779 75.2147 50.4541 78.0747C49.4426 78.9459 48.1935 79.4211 46.9445 79.4211C46.9357 79.4211 46.9357 79.4211 46.9269 79.4211H46.408C45.9506 79.4211 45.5108 79.4211 45.0622 79.4211Z" fill="#191919"/>
<path d="M79.6032 104.308H69.136C68.9161 104.308 68.7402 104.132 68.7402 103.912C68.7402 103.692 68.9161 103.516 69.136 103.516H79.6032C79.8231 103.516 79.999 103.692 79.999 103.912C79.999 104.132 79.8231 104.308 79.6032 104.308Z" fill="#191919"/>
<path d="M68.9341 5.29722C68.7934 5.29722 68.6527 5.21802 68.5823 5.08602L67.2541 2.62199C67.1486 2.42839 67.2189 2.19079 67.4124 2.08518C67.6059 1.97958 67.8434 2.04998 67.949 2.24359L69.2772 4.70761C69.3827 4.90122 69.3124 5.13882 69.1188 5.24442C69.0661 5.27962 69.0045 5.29722 68.9341 5.29722Z" fill="#191919"/>
<path d="M80.3598 5.29721C80.2983 5.29721 80.2279 5.27961 80.1751 5.25321C79.9816 5.14761 79.9113 4.91 80.0168 4.7164L81.345 2.25238C81.4505 2.05877 81.688 1.98837 81.8815 2.09397C82.075 2.19958 82.1454 2.43718 82.0399 2.63078L80.7117 5.09481C80.6413 5.22681 80.5006 5.29721 80.3598 5.29721Z" fill="#191919"/>
<path d="M74.8362 3.33524C74.6164 3.33524 74.4404 3.15043 74.4404 2.93043L74.458 0.396004C74.458 0.176002 74.6339 0 74.8538 0C75.0737 0 75.2497 0.184802 75.2497 0.404804L75.2321 2.93923C75.2321 3.15923 75.0561 3.33524 74.8362 3.33524Z" fill="#191919"/>
<path d="M83.0697 23.3295L75.2237 30.1408C74.5728 30.704 73.5965 30.6952 72.9632 30.1144L65.2668 23.1359C57.5439 16.1574 67.3602 6.14294 74.265 14.3182C80.4221 5.77333 90.2208 16.5798 83.0697 23.3295Z" fill="#2F7AD3"/>
<path d="M74.0974 30.9504C73.5872 30.9504 73.0859 30.7656 72.6813 30.4048L64.9848 23.4263C62.5484 21.2263 61.5544 18.4455 62.2405 15.7966C62.865 13.4206 64.7825 11.5462 67.131 11.0094C69.5851 10.455 72.1535 11.423 74.2293 13.6846C75.9797 11.4758 78.1523 10.4638 80.3865 10.8334C82.7526 11.2294 84.8724 13.2094 85.6464 15.7614C86.4996 18.5599 85.6552 21.4199 83.3331 23.6111L83.3243 23.6199L75.4784 30.4312C75.0825 30.7832 74.59 30.9504 74.0974 30.9504ZM68.5296 11.6518C68.125 11.6518 67.7116 11.6958 67.307 11.7926C65.2487 12.259 63.5599 13.9134 63.0146 15.999C62.3988 18.3487 63.3136 20.8479 65.5214 22.8367L73.2178 29.8152C73.7104 30.2552 74.4492 30.264 74.9506 29.8328L82.7966 23.0303C84.8812 21.0591 85.6464 18.4983 84.89 15.999C84.1951 13.7286 82.3392 11.9686 80.2633 11.6254C78.2051 11.2822 76.1908 12.3206 74.5812 14.547L74.2821 14.9606L73.9567 14.5734C72.3294 12.6638 70.4471 11.6518 68.5296 11.6518Z" fill="#191919"/>
<path d="M77.2905 19.6944H75.4345C75.285 19.6944 75.1706 19.5712 75.1706 19.4304V17.5736C75.1706 17.424 75.0475 17.3096 74.9068 17.3096H73.1212C72.9717 17.3096 72.8573 17.4328 72.8573 17.5736V19.4304C72.8573 19.58 72.7342 19.6944 72.5934 19.6944H70.7375C70.588 19.6944 70.4736 19.8176 70.4736 19.9584V21.7448C70.4736 21.8944 70.5968 22.0088 70.7375 22.0088H72.5934C72.743 22.0088 72.8573 22.132 72.8573 22.2728V24.1296C72.8573 24.2792 72.9805 24.3936 73.1212 24.3936H74.9068C75.0563 24.3936 75.1706 24.2704 75.1706 24.1296V22.2728C75.1706 22.1232 75.2938 22.0088 75.4345 22.0088H77.2905C77.44 22.0088 77.5543 21.8856 77.5543 21.7448V19.9584C77.5543 19.8176 77.44 19.6944 77.2905 19.6944Z" fill="white"/>
<path d="M83.0776 20.6098C83.0161 20.6098 82.9457 20.5922 82.8841 20.5658C82.6906 20.4602 82.6202 20.2226 82.7258 20.029C84.1771 17.3626 82.0485 15.1714 81.9518 15.0746C81.7934 14.9162 81.7934 14.6698 81.9518 14.5114C82.1101 14.353 82.3564 14.353 82.5147 14.5114C82.5411 14.5378 85.1535 17.213 83.4207 20.4074C83.3591 20.5306 83.2184 20.6098 83.0776 20.6098Z" fill="#191919"/>
<path opacity="0.18" d="M105.789 111.685C111.293 110.571 115.371 107.767 114.896 105.424C114.422 103.08 109.576 102.084 104.072 103.198C98.5683 104.313 94.4909 107.117 94.965 109.46C95.4392 111.804 100.285 112.8 105.789 111.685Z" fill="#FF859C"/>
<path d="M102.502 110.335C103.569 110.119 104.257 109.071 104.039 107.994C103.821 106.918 102.78 106.22 101.713 106.436C100.647 106.652 99.9588 107.7 100.177 108.776C100.394 109.853 101.436 110.551 102.502 110.335Z" fill="white"/>
<path d="M101.717 106.429C102.781 106.209 103.828 106.913 104.048 107.986C104.268 109.06 103.582 110.116 102.509 110.327C101.444 110.547 100.398 109.843 100.178 108.77C99.9665 107.696 100.653 106.649 101.717 106.429ZM101.523 105.47C99.9314 105.795 98.8935 107.362 99.2189 108.972C99.5443 110.582 101.11 111.621 102.702 111.295C104.294 110.97 105.332 109.403 105.007 107.793C104.681 106.191 103.124 105.144 101.523 105.47Z" fill="#191919"/>
<path opacity="0.18" d="M52.8467 109.459C53.3209 107.116 49.2435 104.312 43.7396 103.197C38.2356 102.083 33.3894 103.079 32.9152 105.423C32.441 107.766 36.5184 110.57 42.0224 111.684C47.5263 112.799 52.3725 111.803 52.8467 109.459Z" fill="#FF859C"/>
<path d="M47.6315 108.769C47.8494 107.693 47.1614 106.645 46.0949 106.429C45.0284 106.213 43.9872 106.911 43.7694 107.987C43.5516 109.064 44.2396 110.112 45.3061 110.328C46.3726 110.544 47.4137 109.846 47.6315 108.769Z" fill="white"/>
<path d="M46.0994 106.429C47.1637 106.649 47.8586 107.696 47.6387 108.77C47.4188 109.843 46.3809 110.547 45.3078 110.327C44.2435 110.107 43.5486 109.06 43.7685 107.986C43.9884 106.913 45.0263 106.218 46.0994 106.429ZM46.2929 105.47C44.7008 105.144 43.1352 106.191 42.8097 107.793C42.4843 109.403 43.5222 110.97 45.1143 111.295C46.7063 111.621 48.272 110.574 48.5974 108.972C48.9229 107.37 47.885 105.795 46.2929 105.47Z" fill="#191919"/>
<path d="M91.6532 112.711C90.7648 111.312 88.9529 110.661 87.2904 111.154C84.0623 112.104 79.1366 112.588 75.7502 112.588H74.7387H72.1879H71.2115C67.8251 112.588 62.8642 112.104 59.6361 111.154C57.9649 110.661 56.1529 111.312 55.2733 112.711C54.1914 114.418 54.4377 116.583 55.8715 118.053C58.8621 121.115 67.8955 122.858 72.3462 122.858H74.7475H76.0845C80.5352 122.858 88.0733 121.115 91.0727 118.053C92.4888 116.583 92.7351 114.418 91.6532 112.711Z" fill="white"/>
<path d="M76.076 123.166H72.3465C68.1948 123.166 58.792 121.485 55.6519 118.264C54.1038 116.68 53.8487 114.383 55.0098 112.535C55.9773 111.004 57.9212 110.309 59.7332 110.846C63.0492 111.823 68.0101 112.271 71.2206 112.271H75.7593C78.9522 112.271 83.8868 111.823 87.2116 110.846C89.0236 110.309 90.9675 111.004 91.935 112.535C93.0961 114.383 92.841 116.68 91.2929 118.264C88.1616 121.467 80.4387 123.166 76.076 123.166ZM58.4842 111.303C57.2879 111.303 56.162 111.875 55.5375 112.879C54.5348 114.471 54.7547 116.46 56.1005 117.824C58.9152 120.702 67.5967 122.532 72.3465 122.532H76.076C80.2276 122.532 87.8713 120.851 90.8355 117.824C92.1725 116.46 92.4012 114.471 91.3985 112.879C90.5804 111.585 88.9356 111.004 87.3875 111.453C84.0099 112.447 78.9962 112.905 75.7593 112.905H71.2206C67.9661 112.905 62.9349 112.447 59.5573 111.453C59.1966 111.347 58.836 111.303 58.4842 111.303Z" fill="#191919"/>
<path d="M73.323 123.166C66.0487 123.166 60.1555 120.869 60.0939 120.843L59.8916 120.763V120.552C59.8916 118.291 66.8844 117.067 73.4549 117.067C79.9991 117.067 87.0622 118.449 87.0622 120.684V120.878L86.8951 120.966C86.7367 121.054 82.6378 123.166 73.323 123.166ZM60.5777 120.35C61.7563 120.772 67.0163 122.532 73.3318 122.532C81.3272 122.532 85.4789 120.913 86.4113 120.499C85.9451 119.294 81.0018 117.701 73.4725 117.701C65.8992 117.701 61.0879 119.179 60.5777 120.35Z" fill="#191919"/>
<path d="M73.323 123.166C66.0487 123.166 60.1555 120.869 60.0939 120.843L59.8916 120.763V120.552C59.8916 118.291 66.8844 117.067 73.4549 117.067C79.9991 117.067 87.0622 118.449 87.0622 120.684V120.878L86.8951 120.966C86.7367 121.054 82.6378 123.166 73.323 123.166ZM60.5777 120.35C61.7563 120.772 67.0163 122.532 73.3318 122.532C81.3272 122.532 85.4789 120.913 86.4113 120.499C85.9451 119.294 81.0018 117.701 73.4725 117.701C65.8992 117.701 61.0879 119.179 60.5777 120.35Z" fill="#191919"/>
<path d="M59.0377 103.005C59.1081 103.032 59.1873 103.032 59.2576 103.005C59.416 102.944 59.5039 102.768 59.4423 102.609C59.3896 102.46 58.079 99.0013 54.1912 97.7252C54.0241 97.6724 53.8481 97.7604 53.7954 97.9276C53.7426 98.0948 53.813 98.2797 53.9977 98.3237C57.5952 99.5117 58.853 102.803 58.8618 102.838C58.897 102.908 58.9586 102.979 59.0377 103.005Z" fill="#191919"/>
<path d="M51.1126 101.228C51.0422 101.184 50.9895 101.105 50.9631 101.017C50.9103 100.823 51.0246 100.63 51.2181 100.577C51.3941 100.533 55.5633 99.4944 59.3544 102.354C59.5127 102.478 59.5479 102.706 59.4247 102.865C59.3016 103.023 59.0729 103.076 58.9146 102.935C55.405 100.286 51.438 101.272 51.3941 101.281C51.2973 101.298 51.1918 101.281 51.1126 101.228Z" fill="#191919"/>
<path d="M88.6539 103.005C88.5835 103.032 88.5043 103.032 88.434 103.005C88.2756 102.944 88.1877 102.768 88.2493 102.609C88.302 102.46 89.6126 99.0013 93.5004 97.7252C93.6675 97.6724 93.8435 97.7604 93.8962 97.9276C93.949 98.0948 93.8786 98.2797 93.6939 98.3237C90.0964 99.5117 88.8386 102.803 88.8298 102.838C88.8034 102.908 88.733 102.979 88.6539 103.005Z" fill="#191919"/>
<path d="M96.5874 101.228C96.6577 101.184 96.7105 101.105 96.7369 101.017C96.7897 100.823 96.6753 100.63 96.4818 100.577C96.3059 100.533 92.1366 99.4944 88.3456 102.354C88.1873 102.478 88.1521 102.706 88.2752 102.865C88.3984 103.023 88.6271 103.076 88.7854 102.935C92.295 100.286 96.2619 101.272 96.3059 101.281C96.4026 101.298 96.4994 101.281 96.5874 101.228Z" fill="#191919"/>
<g opacity="0.5">
<g opacity="0.5">
<path opacity="0.5" d="M142.784 77.1772C142.459 77.1772 142.177 76.922 142.151 76.5964C141.491 67.9987 134.331 64.6635 134.252 64.6283C133.935 64.4875 133.795 64.1091 133.935 63.7923C134.076 63.4755 134.454 63.3347 134.771 63.4755C135.096 63.6163 142.687 67.1363 143.409 76.4996C143.435 76.8516 143.171 77.1508 142.828 77.1772C142.819 77.1772 142.802 77.1772 142.784 77.1772Z" fill="#191919"/>
<path opacity="0.5" d="M147.366 74.449C147.041 74.449 146.76 74.1938 146.733 73.8682C146.073 65.2617 140.796 63.0793 140.743 63.0529C140.418 62.9209 140.259 62.5601 140.391 62.2345C140.523 61.9089 140.884 61.7505 141.209 61.8825C141.456 61.9793 147.27 64.3905 147.991 73.7714C148.017 74.1234 147.753 74.4226 147.41 74.449C147.402 74.449 147.384 74.449 147.366 74.449Z" fill="#191919"/>
</g>
</g>
<g opacity="0.5">
<g opacity="0.5">
<path opacity="0.5" d="M5.21623 77.1772C5.19864 77.1772 5.18105 77.1772 5.16346 77.1772C4.81162 77.1508 4.55654 76.8428 4.58293 76.4996C5.30419 67.1363 12.8951 63.6163 13.2205 63.4755C13.5372 63.3347 13.9154 63.4755 14.0561 63.7923C14.1969 64.1091 14.0561 64.4875 13.7395 64.6283C13.6691 64.6635 6.50044 67.9987 5.84074 76.5964C5.82315 76.922 5.54168 77.1772 5.21623 77.1772Z" fill="#191919"/>
<path opacity="0.5" d="M0.633227 74.449C0.615636 74.449 0.598044 74.449 0.580452 74.449C0.228615 74.4226 -0.026466 74.1146 -7.82597e-05 73.7714C0.721186 64.3905 6.53528 61.9793 6.78157 61.8825C7.10702 61.7505 7.47645 61.9089 7.59959 62.2345C7.73153 62.5601 7.5732 62.9297 7.24775 63.0529C7.03665 63.1409 1.91743 65.3145 1.26653 73.8682C1.24015 74.1938 0.958676 74.449 0.633227 74.449Z" fill="#191919"/>
</g>
</g>
<path d="M95.374 104.818C95.374 104.818 97.0189 102.961 100.792 102.724L95.374 104.818Z" fill="white"/>
<path d="M95.3738 105.135C95.3034 105.135 95.2242 105.108 95.1627 105.055C95.0307 104.941 95.0219 104.739 95.1363 104.607C95.2066 104.527 96.9042 102.653 100.766 102.407C100.959 102.398 101.091 102.53 101.1 102.706C101.109 102.882 100.977 103.031 100.801 103.04C97.2209 103.269 95.62 105.011 95.6025 105.029C95.5497 105.091 95.4617 105.135 95.3738 105.135Z" fill="#191919"/>
<path d="M53.0921 104.817C53.0921 104.817 51.4473 102.96 47.6738 102.723L53.0921 104.817Z" fill="white"/>
<path d="M53.0918 105.134C53.0038 105.134 52.9159 105.099 52.8543 105.029C52.8367 105.011 51.2359 103.269 47.6559 103.04C47.48 103.031 47.3481 102.881 47.3569 102.705C47.3657 102.529 47.524 102.406 47.6911 102.406C51.5525 102.653 53.2501 104.527 53.3205 104.606C53.4348 104.738 53.426 104.932 53.2941 105.055C53.2413 105.108 53.1622 105.134 53.0918 105.134Z" fill="#191919"/>
</g>
<defs>
<clipPath id="clip0_544_94382">
<rect width="148" height="148" fill="white"/>
</clipPath>
</defs>
</svg>
