<svg width="149" height="149" viewBox="0 0 149 149" fill="none" xmlns="http://www.w3.org/2000/svg">
<g clip-path="url(#clip0_544_94385)">
<path d="M67.1356 26.5098V49.2228C67.1356 50.1996 66.3485 51.0004 65.3689 51.0004C64.3981 51.0004 63.6022 50.2084 63.6022 49.2228V26.5098" fill="#2F7AD3"/>
<path d="M65.3689 51.3964C64.1794 51.3964 63.2086 50.4196 63.2086 49.2228V26.5098H64.0045V49.2228C64.0045 49.9796 64.6168 50.5956 65.3689 50.5956C66.1211 50.5956 66.7333 49.9796 66.7333 49.2228V26.5098H67.5292V49.2228C67.5292 50.4196 66.5584 51.3964 65.3689 51.3964Z" fill="#191919"/>
<path d="M130.344 96.69C130.344 81.2106 120.933 67.9489 107.552 62.3696C103.249 60.5744 99.6889 57.4151 97.3625 53.3583C90.9865 42.235 79.048 34.7461 65.3777 34.7461C51.6986 34.7461 39.7688 42.235 33.3929 53.3583C31.0664 57.4151 27.5067 60.5744 23.2036 62.3696C9.82191 67.9489 0.411011 81.2106 0.411011 96.69C0.411011 117.203 16.9413 133.835 37.3287 133.835C37.7222 133.835 38.1071 133.818 38.5006 133.809V133.835H94.6162V133.809C114.444 133.184 130.344 116.807 130.344 96.69Z" fill="#2F7AD3"/>
<path d="M94.6075 134.232H38.1159V134.214C37.8447 134.223 37.5824 134.232 37.3112 134.232C16.7402 134.232 0 117.397 0 96.6905C0 81.4487 9.04356 67.8349 23.0375 62.0005C27.2794 60.2317 30.7341 57.178 33.0343 53.1652C39.6902 41.5667 52.0748 34.3594 65.369 34.3594C78.6632 34.3594 91.0478 41.5667 97.7036 53.1652C100.004 57.178 103.467 60.2405 107.701 62.0005C121.694 67.8349 130.738 81.4487 130.738 96.6905C130.738 106.511 126.995 115.795 120.199 122.836C113.508 129.77 104.569 133.792 95.0011 134.188V134.205L94.6075 134.232ZM38.8593 133.44H94.3189L94.59 133.413C114.418 132.788 129.951 116.658 129.951 96.6993C129.951 81.7831 121.1 68.4597 107.403 62.7485C103.004 60.9181 99.4091 57.7412 97.0214 53.57C90.5143 42.2179 78.3833 35.1602 65.3777 35.1602C52.3722 35.1602 40.2325 42.2091 33.7253 53.5612C31.3376 57.7324 27.7429 60.9005 23.3436 62.7397C9.64704 68.4509 0.795903 81.7743 0.795903 96.6905C0.795903 116.948 17.1775 133.44 37.32 133.44C37.6173 133.44 37.9147 133.431 38.2121 133.422L38.8593 133.404V133.44Z" fill="#191919"/>
<path d="M37.9496 133.844C37.9496 133.844 44.413 139.749 54.165 139.493C63.917 139.238 65.3689 134.601 65.3689 134.601L37.9496 133.844Z" fill="#2F7AD3"/>
<path d="M53.5528 139.899C44.0982 139.899 37.7485 134.196 37.6785 134.143L36.8914 133.422L65.9025 134.214L65.745 134.715C65.6838 134.918 64.092 139.626 54.1738 139.89C53.9639 139.89 53.7627 139.899 53.5528 139.899ZM39.1304 134.275C41.2207 135.824 46.7658 139.283 54.1563 139.089C61.5294 138.896 64.0133 136.132 64.7392 134.971L39.1304 134.275Z" fill="#191919"/>
<path d="M92.797 133.844C92.797 133.844 86.3335 139.749 76.5815 139.493C66.8296 139.238 65.3777 134.601 65.3777 134.601L92.797 133.844Z" fill="#2F7AD3"/>
<path d="M77.1851 139.899C76.9752 139.899 76.774 139.899 76.5641 139.89C66.6459 139.626 65.0541 134.918 64.9929 134.715L64.8354 134.214L93.8465 133.422L93.0594 134.143C92.9982 134.196 86.6397 139.899 77.1851 139.899ZM66.0074 134.979C66.7246 136.132 69.2085 138.904 76.5903 139.098C83.9983 139.292 89.5259 135.824 91.6163 134.284L66.0074 134.979Z" fill="#191919"/>
<path d="M65.3691 135.357C65.3691 135.357 59.1768 141.966 65.3691 148.197C71.5614 141.966 65.3691 135.357 65.3691 135.357Z" fill="#2F7AD3"/>
<path d="M65.369 148.761L65.0892 148.479C58.6957 142.055 65.0192 135.156 65.0804 135.085L65.369 134.777L65.6577 135.085C65.7189 135.156 72.0424 142.046 65.6489 148.479L65.369 148.761ZM65.369 135.965C64.2583 137.329 60.6461 142.539 65.369 147.617C70.092 142.539 66.4798 137.329 65.369 135.965Z" fill="#191919"/>
<path d="M115.939 101.282C115.651 93.318 112.66 87.8267 109.021 84.0691C105.024 79.933 99.5927 80.0914 93.794 79.9154C92.5783 79.8802 91.4413 79.3786 90.5317 78.569C86.9632 75.4274 77.3337 71.0449 66.0161 71.0449C54.751 71.0449 45.1652 75.4098 41.5531 78.5338C40.6434 79.317 39.5064 79.7922 38.3082 79.7834C32.0022 79.7658 26.0286 79.6162 21.7167 84.0691C18.087 87.8267 15.0871 93.318 14.7985 101.282C14.6673 104.82 15.1658 108.146 16.0667 111.226C20.4135 125.949 34.8622 135.919 50.9377 135.919H79.7914C95.8756 135.919 110.316 125.958 114.662 111.226C115.581 108.146 116.071 104.82 115.939 101.282Z" fill="white"/>
<path d="M79.7914 136.307H50.9465C34.5299 136.307 20.0375 126.037 15.6906 111.332C14.711 108.023 14.2825 104.635 14.4049 101.265C14.6586 94.2249 17.02 88.3464 21.4369 83.788C25.7487 79.3351 31.5999 79.3615 37.7922 79.3791H38.3083C38.317 79.3791 38.317 79.3791 38.3257 79.3791C39.384 79.3791 40.4423 78.9655 41.2994 78.2263C44.8242 75.1727 54.3225 70.6406 66.0162 70.6406C77.7535 70.6406 87.4443 75.3135 90.7941 78.2615C91.6687 79.0271 92.7445 79.4759 93.8115 79.5023L95.0273 79.5375C100.406 79.6871 105.479 79.8191 109.31 83.7792C113.718 88.3376 116.079 94.2161 116.342 101.256C116.464 104.627 116.027 108.015 115.056 111.323C110.709 126.037 96.208 136.307 79.7914 136.307ZM36.4541 80.1799C30.9265 80.1799 25.7662 80.4527 21.9966 84.3512C17.7285 88.76 15.437 94.4625 15.1921 101.3C15.0696 104.583 15.4982 107.883 16.4515 111.112C20.6934 125.483 34.8797 135.515 50.9465 135.515H79.8001C95.8669 135.515 110.053 125.483 114.295 111.112C115.248 107.883 115.668 104.583 115.555 101.3C115.31 94.4625 113.018 88.76 108.75 84.3512C105.147 80.6287 100.222 80.4879 95.0098 80.3471L93.7853 80.3119C92.5346 80.2767 91.2839 79.7575 90.2693 78.8687C87.007 75.9999 77.5349 71.4414 66.0162 71.4414C54.6111 71.4414 45.1215 75.9735 41.8155 78.8335C40.8097 79.7047 39.5677 80.1799 38.3257 80.1799C38.317 80.1799 38.317 80.1799 38.3083 80.1799H37.7922C37.3374 80.1799 36.9001 80.1799 36.4541 80.1799Z" fill="#191919"/>
<path d="M70.5729 105.437H60.1649C59.9463 105.437 59.7714 105.261 59.7714 105.041C59.7714 104.821 59.9463 104.645 60.1649 104.645H70.5729C70.7916 104.645 70.9665 104.821 70.9665 105.041C70.9665 105.261 70.7916 105.437 70.5729 105.437Z" fill="#191919"/>
<path d="M60.3312 6.05796C60.1913 6.05796 60.0513 5.97876 59.9814 5.84676L58.6607 3.38273C58.5557 3.18913 58.6257 2.95153 58.8181 2.84593C59.0105 2.74033 59.2467 2.81073 59.3516 3.00433L60.6723 5.46836C60.7773 5.66196 60.7073 5.89956 60.5149 6.00516C60.4624 6.04036 60.4012 6.05796 60.3312 6.05796Z" fill="#191919"/>
<path d="M71.6925 6.05697C71.6312 6.05697 71.5613 6.03937 71.5088 6.01297C71.3164 5.90737 71.2464 5.66977 71.3514 5.47617L72.672 3.01214C72.777 2.81854 73.0131 2.74814 73.2056 2.85374C73.398 2.95934 73.4679 3.19694 73.363 3.39055L72.0423 5.85457C71.9723 5.98657 71.8324 6.05697 71.6925 6.05697Z" fill="#191919"/>
<path d="M66.1999 4.095C65.9812 4.095 65.8063 3.9102 65.8063 3.6902L65.8238 1.15577C65.8238 0.935768 65.9987 0.759766 66.2173 0.759766C66.436 0.759766 66.6109 0.944568 66.6109 1.16457L66.5934 3.699C66.5934 3.919 66.4185 4.095 66.1999 4.095Z" fill="#191919"/>
<path d="M74.3863 24.0893L66.5847 30.9006C65.9375 31.4638 64.9666 31.455 64.3369 30.8742L56.684 23.8957C49.0049 16.9172 58.7656 6.9027 65.6314 15.078C71.7537 6.5331 81.4969 17.3396 74.3863 24.0893Z" fill="#2F7AD3"/>
<path d="M65.4652 31.7092C64.9579 31.7092 64.4594 31.5244 64.0571 31.1636L56.4042 24.1851C53.9815 21.9851 52.9932 19.2043 53.6754 16.5554C54.2963 14.1794 56.203 12.305 58.5382 11.7682C60.9784 11.2138 63.5323 12.1818 65.5964 14.4434C67.3369 12.2346 69.4972 11.2226 71.7187 11.5922C74.0715 11.9882 76.1793 13.9682 76.949 16.5202C77.7973 19.3187 76.9577 22.1787 74.6487 24.3699L74.64 24.3787L66.8384 31.19C66.4448 31.542 65.955 31.7092 65.4652 31.7092ZM59.9289 12.4106C59.5266 12.4106 59.1155 12.4546 58.7132 12.5514C56.6666 13.0178 54.9873 14.6722 54.445 16.7578C53.8328 19.1075 54.7424 21.6067 56.9377 23.5955L64.5906 30.574C65.0804 31.014 65.8151 31.0228 66.3136 30.5916L74.1152 23.7891C76.188 21.8179 76.949 19.2571 76.1968 16.7578C75.5058 14.4874 73.6604 12.7274 71.5963 12.3842C69.5497 12.041 67.5468 13.0794 65.9463 15.3058L65.6489 15.7194L65.3253 15.3322C63.7072 13.4226 61.8355 12.4106 59.9289 12.4106Z" fill="#191919"/>
<path d="M68.6401 20.4551H66.7947C66.646 20.4551 66.5323 20.3319 66.5323 20.1911V18.3343C66.5323 18.1847 66.4098 18.0703 66.2699 18.0703H64.4944C64.3457 18.0703 64.232 18.1935 64.232 18.3343V20.1911C64.232 20.3407 64.1096 20.4551 63.9696 20.4551H62.1242C61.9755 20.4551 61.8618 20.5783 61.8618 20.7191V22.5056C61.8618 22.6552 61.9843 22.7696 62.1242 22.7696H63.9696C64.1183 22.7696 64.232 22.8928 64.232 23.0336V24.8904C64.232 25.04 64.3545 25.1544 64.4944 25.1544H66.2699C66.4186 25.1544 66.5323 25.0312 66.5323 24.8904V23.0336C66.5323 22.884 66.6547 22.7696 66.7947 22.7696H68.6401C68.7888 22.7696 68.9025 22.6464 68.9025 22.5056V20.7191C68.9025 20.5783 68.7888 20.4551 68.6401 20.4551Z" fill="white"/>
<path d="M74.3951 21.3696C74.3338 21.3696 74.2639 21.352 74.2026 21.3256C74.0102 21.22 73.9403 20.9824 74.0452 20.7888C75.4883 18.1224 73.3718 15.9312 73.2755 15.8344C73.1181 15.6759 73.1181 15.4295 73.2755 15.2711C73.433 15.1127 73.6779 15.1127 73.8353 15.2711C73.8615 15.2975 76.4592 17.9728 74.7362 21.1672C74.6749 21.2904 74.535 21.3696 74.3951 21.3696Z" fill="#191919"/>
<path opacity="0.18" d="M96.2868 118.311C100.794 118.311 104.447 116.144 104.447 113.471C104.447 110.798 100.794 108.631 96.2868 108.631C91.78 108.631 88.1266 110.798 88.1266 113.471C88.1266 116.144 91.78 118.311 96.2868 118.311Z" fill="#FF859C"/>
<path opacity="0.18" d="M32.4396 118.311C36.9464 118.311 40.5998 116.144 40.5998 113.471C40.5998 110.798 36.9464 108.631 32.4396 108.631C27.9329 108.631 24.2794 110.798 24.2794 113.471C24.2794 116.144 27.9329 118.311 32.4396 118.311Z" fill="#FF859C"/>
<path d="M33.5242 116.711C34.4033 116.711 35.116 115.986 35.116 115.092C35.116 114.198 34.4033 113.473 33.5242 113.473C32.6451 113.473 31.9324 114.198 31.9324 115.092C31.9324 115.986 32.6451 116.711 33.5242 116.711Z" fill="white"/>
<path d="M33.5242 113.472C34.4076 113.472 35.116 114.193 35.116 115.091C35.116 115.989 34.3988 116.71 33.5242 116.71C32.6496 116.71 31.9324 115.989 31.9324 115.091C31.9236 114.193 32.6408 113.472 33.5242 113.472ZM33.5242 112.68C32.2123 112.68 31.1365 113.762 31.1365 115.091C31.1365 116.42 32.2035 117.502 33.5242 117.502C34.8361 117.502 35.9119 116.42 35.9119 115.091C35.9119 113.762 34.8361 112.68 33.5242 112.68Z" fill="#191919"/>
<path d="M96.6104 116.711C97.4895 116.711 98.2022 115.986 98.2022 115.092C98.2022 114.198 97.4895 113.473 96.6104 113.473C95.7312 113.473 95.0186 114.198 95.0186 115.092C95.0186 115.986 95.7312 116.711 96.6104 116.711Z" fill="white"/>
<path d="M96.6104 113.472C97.4937 113.472 98.2022 114.193 98.2022 115.091C98.2022 115.989 97.485 116.71 96.6104 116.71C95.727 116.71 95.0186 115.989 95.0186 115.091C95.0186 114.193 95.7357 113.472 96.6104 113.472ZM96.6104 112.68C95.2984 112.68 94.2227 113.762 94.2227 115.091C94.2227 116.42 95.2897 117.502 96.6104 117.502C97.9223 117.502 98.9981 116.42 98.9981 115.091C98.9981 113.762 97.931 112.68 96.6104 112.68Z" fill="#191919"/>
<path d="M47.4218 102.357C47.4218 104.311 46.1798 105.903 44.6492 105.903C43.1187 105.903 41.8767 104.319 41.8767 102.357C41.8767 100.395 43.1187 98.8105 44.6492 98.8105C46.1886 98.8105 47.4218 100.395 47.4218 102.357Z" fill="#191919"/>
<path d="M86.9633 102.357C86.9633 104.311 85.7213 105.903 84.1908 105.903C82.6602 105.903 81.4182 104.319 81.4182 102.357C81.4182 100.395 82.6602 98.8105 84.1908 98.8105C85.7301 98.8105 86.9633 100.395 86.9633 102.357Z" fill="#191919"/>
<path d="M50.9377 114.801C50.7715 114.801 50.6141 114.687 50.5704 114.519C50.5179 114.317 50.6404 114.106 50.8415 114.053C59.9288 111.615 69.5584 111.51 78.6981 113.754L79.8963 114.044C80.0975 114.097 80.2199 114.299 80.1762 114.502C80.1237 114.704 79.9226 114.836 79.7214 114.783L78.5232 114.493C69.5146 112.284 60.0075 112.381 51.0427 114.783C51.0077 114.801 50.9727 114.801 50.9377 114.801Z" fill="#191919"/>
<path d="M138.076 36.9629L129.645 47.171L133.388 47.9806L122.831 55.7775L142.694 48.1302L137.464 46.511L148.09 40.6765L138.076 36.9629Z" fill="#FFF1A1"/>
<path d="M120.348 57.1421L132.487 48.1836L128.954 47.418L137.954 36.5234L149 40.6155L138.435 46.4147L143.857 48.0956L120.348 57.1421ZM130.327 46.934L134.289 47.7964L125.315 54.4228L141.54 48.1836L136.502 46.6171L147.181 40.7563L138.19 37.4122L130.327 46.934Z" fill="#191919"/>
<path d="M134.166 58.5059L127.817 60.4859L130.519 62.6947L122.831 63.5835L134.744 65.2995L133.572 62.0523L140.84 62.7915L134.166 58.5059Z" fill="#FFF1A1"/>
<path d="M135.216 65.6862L120.374 63.5478L129.741 62.4654L127.161 60.3621L134.21 58.1621L142.126 63.2398L134.035 62.4126L135.216 65.6862ZM125.289 63.6182L134.263 64.9118L133.099 61.6821L139.554 62.3422L134.114 58.8485L128.473 60.6085L131.307 62.923L125.289 63.6182Z" fill="#191919"/>
<path d="M116.272 40.7654L115.563 47.4182L118.651 45.7902L116.42 53.2439L122.7 42.9214L119.272 42.719L122.831 36.2949L116.272 40.7654Z" fill="#FFF1A1"/>
<path d="M115.415 55.5048L118.135 46.4231L115.187 47.972L115.974 40.5887L123.75 35.291L119.788 42.4367L123.242 42.6391L115.415 55.5048ZM119.176 45.1559L117.426 50.9816L122.167 43.2023L118.756 42.9999L121.913 37.2974L116.569 40.9407L115.939 46.8543L119.176 45.1559Z" fill="#191919"/>
<path d="M80.4649 116.384C80.3512 116.384 80.2375 116.322 80.185 116.208C78.8731 113.488 80.5961 111.64 80.6136 111.623C80.736 111.5 80.9372 111.5 81.0596 111.614C81.1821 111.737 81.1908 111.931 81.0684 112.063C81.0071 112.124 79.634 113.62 80.7448 115.926C80.8235 116.084 80.7535 116.269 80.5961 116.348C80.5523 116.375 80.5086 116.384 80.4649 116.384Z" fill="#191919"/>
<path d="M50.4304 116.385C50.3867 116.385 50.3342 116.376 50.2905 116.35C50.1331 116.271 50.0719 116.086 50.1418 115.928C51.2701 113.604 49.8357 112.082 49.827 112.064C49.7045 111.941 49.7133 111.739 49.8357 111.615C49.9582 111.492 50.1593 111.501 50.2818 111.624C50.2993 111.642 52.031 113.49 50.7103 116.209C50.6578 116.324 50.5441 116.385 50.4304 116.385Z" fill="#191919"/>
<path d="M63.611 93.0723C63.4361 93.0723 63.2961 92.9315 63.2961 92.7555V86.3402C63.2961 86.1642 63.4361 86.0234 63.611 86.0234C63.7859 86.0234 63.9259 86.1642 63.9259 86.3402V92.7555C63.9259 92.9315 63.7859 93.0723 63.611 93.0723Z" fill="#191919"/>
<path d="M67.1357 93.0723C66.9607 93.0723 66.8208 92.9315 66.8208 92.7555V86.3402C66.8208 86.1642 66.9607 86.0234 67.1357 86.0234C67.3106 86.0234 67.4505 86.1642 67.4505 86.3402V92.7555C67.4505 92.9315 67.3106 93.0723 67.1357 93.0723Z" fill="#191919"/>
<path opacity="0.22" d="M65.9638 103.343C73.0161 103.343 78.7332 102.733 78.7332 101.979C78.7332 101.226 73.0161 100.615 65.9638 100.615C58.9114 100.615 53.1943 101.226 53.1943 101.979C53.1943 102.733 58.9114 103.343 65.9638 103.343Z" fill="#B3B3B3"/>
</g>
<defs>
<clipPath id="clip0_544_94385">
<rect width="149" height="148" fill="white" transform="translate(0 0.759766)"/>
</clipPath>
</defs>
</svg>
