<svg width="64" height="67" viewBox="0 0 64 67" fill="none" xmlns="http://www.w3.org/2000/svg">
<path d="M34.9823 11.5449V21.729C34.9823 22.1669 34.6293 22.526 34.1901 22.526C33.7548 22.526 33.3979 22.1709 33.3979 21.729V11.5449" fill="#2F7AD3"/>
<path d="M34.1942 22.7036C33.6609 22.7036 33.2256 22.2656 33.2256 21.729V11.5449H33.5825V21.729C33.5825 22.0683 33.857 22.3445 34.1942 22.3445C34.5315 22.3445 34.806 22.0683 34.806 21.729V11.5449H35.1628V21.729C35.1589 22.2656 34.7275 22.7036 34.1942 22.7036Z" fill="#1C1C1B"/>
<path d="M63.3277 43.0126C63.3277 36.072 59.1081 30.1257 53.1081 27.6241C51.1786 26.8191 49.5826 25.4026 48.5394 23.5836C45.6806 18.5961 40.3277 15.2383 34.1983 15.2383C28.0649 15.2383 22.7159 18.5961 19.8571 23.5836C18.8139 25.4026 17.2179 26.8191 15.2885 27.6241C9.28846 30.1257 5.06885 36.072 5.06885 43.0126C5.06885 52.2102 12.4806 59.6677 21.6218 59.6677C21.7983 59.6677 21.9708 59.6598 22.1473 59.6558V59.6677H47.3081V59.6558C56.1983 59.3757 63.3277 52.0326 63.3277 43.0126Z" fill="#2F7AD3"/>
<path d="M47.3 59.845H21.9706V59.8371C21.849 59.8411 21.7314 59.845 21.6098 59.845C12.3863 59.845 4.88037 52.2928 4.88037 43.0124C4.88037 36.1783 8.93527 30.0742 15.2098 27.4581C17.1117 26.665 18.6608 25.2958 19.6921 23.4966C22.6765 18.296 28.2294 15.0645 34.1902 15.0645C40.151 15.0645 45.7039 18.296 48.6882 23.4966C49.7196 25.2958 51.2725 26.669 53.1706 27.4581C59.4451 30.0742 63.5 36.1783 63.5 43.0124C63.5 47.4158 61.8216 51.5786 58.7745 54.7352C55.7745 57.8445 51.7667 59.6477 47.4765 59.8253V59.8332L47.3 59.845ZM22.3039 59.4899H47.1706L47.2921 59.4781C56.1823 59.1979 63.147 51.9653 63.147 43.0163C63.147 36.3282 59.1784 30.3543 53.0372 27.7935C51.0647 26.9728 49.4529 25.5484 48.3823 23.6781C45.4647 18.588 40.0255 15.4235 34.1941 15.4235C28.3627 15.4235 22.9235 18.5841 20.0019 23.6741C18.9314 25.5444 17.3235 26.9649 15.347 27.7896C9.20586 30.3504 5.23723 36.3243 5.23723 43.0124C5.23723 52.0955 12.5823 59.4899 21.6137 59.4899C21.747 59.4899 21.8804 59.486 22.0137 59.482L22.3039 59.4741V59.4899Z" fill="#1C1C1B"/>
<path d="M21.896 59.6719C21.896 59.6719 24.794 62.3195 29.1666 62.2051C33.5391 62.0906 34.1901 60.0112 34.1901 60.0112L21.896 59.6719Z" fill="#2F7AD3"/>
<path d="M28.892 62.3865C24.6528 62.3865 21.8057 59.8297 21.7743 59.806L21.4214 59.4824L34.4292 59.8375L34.3586 60.0625C34.3312 60.1532 33.6175 62.2642 29.1704 62.3826C29.0802 62.3826 28.9861 62.3865 28.892 62.3865ZM22.4253 59.8652C23.3626 60.5596 25.8488 62.1103 29.1626 62.0235C32.4684 61.9367 33.5822 60.6977 33.9077 60.1769L22.4253 59.8652Z" fill="#1C1C1B"/>
<path d="M46.4885 59.6719C46.4885 59.6719 43.5904 62.3195 39.2179 62.2051C34.8453 62.0906 34.1943 60.0112 34.1943 60.0112L46.4885 59.6719Z" fill="#2F7AD3"/>
<path d="M39.4923 62.3865C39.3982 62.3865 39.308 62.3865 39.2139 62.3826C34.7668 62.2642 34.0531 60.1532 34.0257 60.0625L33.9551 59.8375L46.9629 59.4824L46.61 59.806C46.5786 59.8297 43.7316 62.3865 39.4923 62.3865ZM34.4766 60.1808C34.7982 60.6977 35.9119 61.9406 39.2217 62.0274C42.5433 62.1143 45.0217 60.5596 45.959 59.8691L34.4766 60.1808Z" fill="#1C1C1B"/>
<path d="M34.1944 60.3496C34.1944 60.3496 31.418 63.3129 34.1944 66.1065C36.967 63.3129 34.1944 60.3496 34.1944 60.3496Z" fill="#2F7AD3"/>
<path d="M34.1943 66.3597L34.0688 66.2334C31.2022 63.353 34.0374 60.2595 34.0649 60.2279L34.1943 60.0898L34.3237 60.2279C34.3512 60.2595 37.1865 63.3491 34.3198 66.2334L34.1943 66.3597ZM34.1943 60.6225C33.6963 61.2341 32.0767 63.57 34.1943 65.8467C36.308 63.57 34.6923 61.2341 34.1943 60.6225Z" fill="#1C1C1B"/>
<path d="M56.8686 45.0733C56.7392 41.5024 55.398 39.0402 53.7666 37.3554C51.9745 35.5009 49.5392 35.5719 46.9392 35.493C46.3941 35.4772 45.8843 35.2523 45.4764 34.8893C43.8764 33.4806 39.5588 31.5156 34.4843 31.5156C29.4333 31.5156 25.1353 33.4727 23.5156 34.8735C23.1078 35.2246 22.598 35.4377 22.0607 35.4338C19.2333 35.4259 16.5549 35.3588 14.6215 37.3554C12.9941 39.0402 11.649 41.5024 11.5196 45.0733C11.4607 46.6595 11.6843 48.151 12.0882 49.532C14.0372 56.1333 20.5156 60.6039 27.7235 60.6039H40.6607C47.8725 60.6039 54.347 56.1372 56.296 49.532C56.7039 48.151 56.9235 46.6595 56.8686 45.0733Z" fill="white"/>
<path d="M40.6608 60.7773H27.7235C20.3628 60.7773 13.8647 56.1726 11.9157 49.5792C11.4765 48.0956 11.2843 46.5765 11.3392 45.0653C11.453 41.9087 12.5118 39.2729 14.4922 37.229C16.4255 35.2324 19.049 35.2442 21.8255 35.2521H22.0569C22.0608 35.2521 22.0608 35.2521 22.0647 35.2521C22.5392 35.2521 23.0137 35.0667 23.3981 34.7352C24.9784 33.3661 29.2373 31.334 34.4804 31.334C39.7432 31.334 44.0883 33.4292 45.5902 34.751C45.9824 35.0943 46.4647 35.2955 46.9432 35.3074L47.4883 35.3232C49.9 35.3902 52.1745 35.4494 53.8922 37.225C55.8686 39.2689 56.9275 41.9047 57.0451 45.0613C57.1 46.5726 56.9039 48.0917 56.4686 49.5753C54.5196 56.1726 48.0216 60.7773 40.6608 60.7773ZM21.2294 35.6112C18.751 35.6112 16.4373 35.7335 14.7471 37.4815C12.8333 39.4583 11.8059 42.0152 11.6961 45.0811C11.6412 46.5528 11.8333 48.0325 12.2608 49.4806C14.1628 55.924 20.5235 60.4222 27.7275 60.4222H40.6647C47.8686 60.4222 54.2294 55.924 56.1314 49.4806C56.5588 48.0325 56.7471 46.5528 56.6961 45.0811C56.5863 42.0152 55.5588 39.4583 53.6451 37.4815C52.0294 35.8124 49.8216 35.7493 47.4843 35.6862L46.9353 35.6704C46.3745 35.6546 45.8137 35.4218 45.3588 35.0233C43.8961 33.737 39.649 31.693 34.4843 31.693C29.3706 31.693 25.1157 33.7251 23.6333 35.0075C23.1824 35.3981 22.6255 35.6112 22.0686 35.6112C22.0647 35.6112 22.0647 35.6112 22.0608 35.6112H21.8294C21.6255 35.6112 21.4255 35.6112 21.2294 35.6112Z" fill="#1C1C1B"/>
<path d="M36.5272 46.9352H31.8606C31.7625 46.9352 31.6841 46.8563 31.6841 46.7576C31.6841 46.659 31.7625 46.5801 31.8606 46.5801H36.5272C36.6253 46.5801 36.7037 46.659 36.7037 46.7576C36.7037 46.8563 36.6253 46.9352 36.5272 46.9352Z" fill="#1C1C1B"/>
<path d="M31.9349 2.37626C31.8722 2.37626 31.8095 2.34075 31.7781 2.28156L31.1859 1.17675C31.1389 1.08994 31.1702 0.983406 31.2565 0.936056C31.3428 0.888707 31.4487 0.920273 31.4957 1.00708L32.0879 2.1119C32.1349 2.1987 32.1036 2.30524 32.0173 2.35259C31.9898 2.36837 31.9624 2.37626 31.9349 2.37626Z" fill="#1C1C1B"/>
<path d="M37.0254 2.37622C36.9979 2.37622 36.9705 2.36833 36.943 2.35649C36.8568 2.30915 36.8254 2.20261 36.8724 2.1158L37.4646 1.01099C37.5117 0.924179 37.6175 0.892613 37.7038 0.939963C37.7901 0.987312 37.8215 1.09385 37.7744 1.18065L37.1822 2.28547C37.1509 2.34466 37.0921 2.37622 37.0254 2.37622Z" fill="#1C1C1B"/>
<path d="M34.5661 1.49545C34.5622 1.49545 34.5622 1.49545 34.5661 1.49545C34.4681 1.49545 34.3896 1.41259 34.3896 1.31394L34.3975 0.17756C34.3975 0.0789154 34.4759 0 34.574 0C34.672 0 34.7504 0.0828612 34.7504 0.181506L34.7426 1.31789C34.7426 1.41653 34.6602 1.49545 34.5661 1.49545Z" fill="#1C1C1B"/>
<path d="M38.2332 10.4617L34.7351 13.5157C34.4449 13.7682 34.0096 13.7643 33.7273 13.5039L30.2959 10.3749C26.8528 7.24586 31.2253 2.75557 34.3037 6.4212C37.0567 2.58985 41.4214 7.43526 38.2332 10.4617Z" fill="#2F7AD3"/>
<path d="M34.2373 13.8777C34.0099 13.8777 33.7863 13.7948 33.606 13.6331L30.1746 10.5041C29.0883 9.51763 28.6452 8.27076 28.9511 7.08309C29.2295 6.01773 30.0844 5.17728 31.1314 4.93659C32.2256 4.688 33.3707 5.12204 34.2962 6.1361C35.0765 5.14571 36.0452 4.69195 37.0412 4.85767C38.0962 5.03523 39.0413 5.92303 39.3863 7.0673C39.7667 8.32206 39.3903 9.60443 38.355 10.5869L38.3511 10.5909L34.853 13.6449C34.6765 13.8027 34.4569 13.8777 34.2373 13.8777ZM31.755 5.22463C31.5746 5.22463 31.3903 5.24436 31.2099 5.28776C30.2922 5.49688 29.5393 6.23869 29.2962 7.17384C29.0216 8.22736 29.4295 9.34796 30.4138 10.2397L33.8452 13.3687C34.0648 13.566 34.3942 13.5699 34.6177 13.3766L38.1158 10.3265C39.0452 9.44266 39.3863 8.29444 39.0491 7.17384C38.7393 6.15583 37.9118 5.36667 36.9863 5.21279C36.0687 5.0589 35.1707 5.52451 34.453 6.52279L34.3197 6.70824L34.1746 6.53462C33.4491 5.67839 32.606 5.22463 31.755 5.22463Z" fill="#1C1C1B"/>
<path d="M35.6569 8.83102H34.8295C34.7628 8.83102 34.7118 8.77578 34.7118 8.71265V7.88009C34.7118 7.81301 34.6569 7.76172 34.5942 7.76172H33.7942C33.7275 7.76172 33.6765 7.81696 33.6765 7.88009V8.71265C33.6765 8.77973 33.6216 8.83102 33.5589 8.83102H32.7314C32.6648 8.83102 32.6138 8.88626 32.6138 8.9494V9.75039C32.6138 9.81747 32.6687 9.86876 32.7314 9.86876H33.5589C33.6255 9.86876 33.6765 9.924 33.6765 9.98713V10.8197C33.6765 10.8868 33.7314 10.9381 33.7942 10.9381H34.5902C34.6569 10.9381 34.7079 10.8828 34.7079 10.8197V9.98713C34.7079 9.92006 34.7628 9.86876 34.8255 9.86876H35.653C35.7197 9.86876 35.7706 9.81352 35.7706 9.75039V8.9494C35.7785 8.88626 35.7236 8.83102 35.6569 8.83102Z" fill="white"/>
<path d="M38.2375 9.24081C38.2101 9.24081 38.1787 9.23292 38.1512 9.22109C38.065 9.17374 38.0336 9.0672 38.0807 8.98039C38.7277 7.78482 37.7787 6.80233 37.7356 6.75892C37.665 6.6879 37.665 6.57742 37.7356 6.50639C37.8061 6.43537 37.916 6.43537 37.9865 6.50639C37.9983 6.51823 39.163 7.71775 38.3905 9.15006C38.363 9.2053 38.3003 9.24081 38.2375 9.24081Z" fill="#1C1C1B"/>
<path opacity="0.18" d="M48.0529 51.4771C50.0736 51.4771 51.7117 50.5054 51.7117 49.3069C51.7117 48.1083 50.0736 47.1367 48.0529 47.1367C46.0322 47.1367 44.394 48.1083 44.394 49.3069C44.394 50.5054 46.0322 51.4771 48.0529 51.4771Z" fill="#FF859C"/>
<path opacity="0.18" d="M19.4293 51.4771C21.45 51.4771 23.0882 50.5054 23.0882 49.3069C23.0882 48.1083 21.45 47.1367 19.4293 47.1367C17.4086 47.1367 15.7705 48.1083 15.7705 49.3069C15.7705 50.5054 17.4086 51.4771 19.4293 51.4771Z" fill="#FF859C"/>
<path d="M19.912 50.7548C20.3061 50.7548 20.6257 50.4297 20.6257 50.0288C20.6257 49.6278 20.3061 49.3027 19.912 49.3027C19.5178 49.3027 19.1982 49.6278 19.1982 50.0288C19.1982 50.4297 19.5178 50.7548 19.912 50.7548Z" fill="white"/>
<path d="M19.9119 49.3063C20.308 49.3063 20.6256 49.6299 20.6256 50.0324C20.6256 50.4348 20.3041 50.7584 19.9119 50.7584C19.5158 50.7584 19.1982 50.4348 19.1982 50.0324C19.1982 49.6299 19.5158 49.3063 19.9119 49.3063ZM19.9119 48.9473C19.3237 48.9473 18.8413 49.4326 18.8413 50.0284C18.8413 50.6242 19.3197 51.1095 19.9119 51.1095C20.5001 51.1095 20.9825 50.6242 20.9825 50.0284C20.9825 49.4326 20.5001 48.9473 19.9119 48.9473Z" fill="#1C1C1B"/>
<path d="M48.202 50.7548C48.5962 50.7548 48.9157 50.4297 48.9157 50.0288C48.9157 49.6278 48.5962 49.3027 48.202 49.3027C47.8078 49.3027 47.4883 49.6278 47.4883 50.0288C47.4883 50.4297 47.8078 50.7548 48.202 50.7548Z" fill="white"/>
<path d="M48.2019 49.3063C48.598 49.3063 48.9157 49.6299 48.9157 50.0324C48.9157 50.4348 48.5941 50.7584 48.2019 50.7584C47.8059 50.7584 47.4882 50.4348 47.4882 50.0324C47.4843 49.6299 47.8059 49.3063 48.2019 49.3063ZM48.2019 48.9473C47.6137 48.9473 47.1313 49.4326 47.1313 50.0284C47.1313 50.6242 47.6098 51.1095 48.2019 51.1095C48.7902 51.1095 49.2725 50.6242 49.2725 50.0284C49.2725 49.4326 48.7902 48.9473 48.2019 48.9473Z" fill="#1C1C1B"/>
<path opacity="0.22" d="M12.3938 40.2476L12.684 39.494C13.2252 38.4326 13.9193 37.5487 14.684 36.8306C16.6173 35.0076 19.3036 35.0747 22.135 35.0826C22.6683 35.0826 23.1703 34.8893 23.5781 34.5736C25.1977 33.2991 29.4958 31.5156 34.5467 31.5156C39.6213 31.5156 43.9389 33.3031 45.5389 34.5854C45.9467 34.9129 46.4526 35.1181 46.9938 35.1339C49.5977 35.2089 52.0369 35.1418 53.833 36.8306L53.8644 36.8582C55.335 38.2471 56.2526 40.0503 56.4722 41.9719L56.8409 45.2232H11.3311L11.4997 43.8343C11.6487 42.6151 11.9507 41.4116 12.3938 40.2476Z" fill="#D2D2D1"/>
<path d="M26.7311 46.0626C26.7311 46.9307 26.2487 47.637 25.6565 47.637C25.0605 47.637 24.582 46.9307 24.582 46.0626C24.582 45.1946 25.0644 44.4883 25.6565 44.4883C26.2487 44.4883 26.7311 45.1906 26.7311 46.0626Z" fill="white"/>
<path d="M25.6567 47.8064C24.9704 47.8064 24.4136 47.0252 24.4136 46.0624C24.4136 45.0996 24.9704 44.3184 25.6567 44.3184C26.343 44.3184 26.9038 45.0996 26.9038 46.0624C26.8998 47.0252 26.343 47.8064 25.6567 47.8064ZM25.6567 44.6577C25.1665 44.6577 24.7508 45.3009 24.7508 46.0624C24.7508 46.8239 25.1665 47.4671 25.6567 47.4671C26.1548 47.4671 26.5626 46.8358 26.5626 46.0624C26.5626 45.2851 26.1548 44.6577 25.6567 44.6577Z" fill="#1C1C1B"/>
<path d="M43.0133 46.0626C43.0133 46.9307 42.5309 47.637 41.9388 47.637C41.3427 47.637 40.8643 46.9307 40.8643 46.0626C40.8643 45.1946 41.3466 44.4883 41.9388 44.4883C42.5309 44.4883 43.0133 45.1906 43.0133 46.0626Z" fill="white"/>
<path d="M41.935 47.8064C41.2488 47.8064 40.6919 47.0252 40.6919 46.0624C40.6919 45.0996 41.2488 44.3184 41.935 44.3184C42.6213 44.3184 43.1821 45.0996 43.1821 46.0624C43.1821 47.0252 42.6213 47.8064 41.935 47.8064ZM41.935 44.6577C41.4448 44.6577 41.0291 45.3009 41.0291 46.0624C41.0291 46.8239 41.4448 47.4671 41.935 47.4671C42.4331 47.4671 42.8409 46.8358 42.8409 46.0624C42.8448 45.2851 42.437 44.6577 41.935 44.6577Z" fill="#1C1C1B"/>
<g opacity="0.3">
<g opacity="0.3">
<path opacity="0.3" d="M0.668627 29.5949C0.57451 29.5949 0.5 29.5199 0.5 29.4253V14.0486C0.5 13.9539 0.57451 13.8789 0.668627 13.8789C0.762745 13.8789 0.837255 13.9539 0.837255 14.0486V29.4253C0.837255 29.5199 0.762745 29.5949 0.668627 29.5949Z" fill="#2F7AD3"/>
</g>
<g opacity="0.3">
<path opacity="0.3" d="M3.33513 27.298C3.24101 27.298 3.1665 27.2231 3.1665 27.1284V11.7517C3.1665 11.657 3.24101 11.582 3.33513 11.582C3.42925 11.582 3.50376 11.657 3.50376 11.7517V27.1284C3.50376 27.2231 3.42925 27.298 3.33513 27.298Z" fill="#2F7AD3"/>
</g>
<g opacity="0.3">
<path opacity="0.3" d="M6.00164 25.0012C5.90752 25.0012 5.83301 24.9262 5.83301 24.8315V9.45482C5.83301 9.36013 5.90752 9.28516 6.00164 9.28516C6.09575 9.28516 6.17026 9.36013 6.17026 9.45482V24.8315C6.17026 24.9262 6.09183 25.0012 6.00164 25.0012Z" fill="#2F7AD3"/>
</g>
<g opacity="0.3">
<path opacity="0.3" d="M11.3317 26.6907C11.2376 26.6907 11.1631 26.6157 11.1631 26.521V11.1404C11.1631 11.0457 11.2376 10.9707 11.3317 10.9707C11.4258 10.9707 11.5003 11.0457 11.5003 11.1404V26.517C11.5003 26.6117 11.4258 26.6907 11.3317 26.6907Z" fill="#2F7AD3"/>
</g>
<g opacity="0.3">
<path opacity="0.3" d="M8.66472 28.552C8.5706 28.552 8.49609 28.477 8.49609 28.3823V13.0017C8.49609 12.907 8.5706 12.832 8.66472 12.832C8.75884 12.832 8.83335 12.907 8.83335 13.0017V28.3784C8.83727 28.4731 8.75884 28.552 8.66472 28.552Z" fill="#2F7AD3"/>
</g>
</g>
<path d="M49.5428 43.005C49.1546 43.005 48.8369 42.642 48.8369 42.1922C48.8369 42.0502 48.8722 41.9042 48.9389 41.7779C48.9742 41.7069 49.0604 41.6793 49.1271 41.7187C49.1977 41.7542 49.2251 41.841 49.1859 41.9081C49.1428 41.9949 49.1193 42.0936 49.1193 42.1922C49.1193 42.4842 49.3075 42.7209 49.5428 42.7209C49.7781 42.7209 49.9663 42.4842 49.9663 42.1922C49.9663 42.0936 49.9428 41.9949 49.8957 41.9081C49.8604 41.8371 49.8879 41.7542 49.9546 41.7148C50.0212 41.6793 50.1075 41.7069 50.1428 41.774C50.2095 41.9002 50.2448 42.0462 50.2448 42.1883C50.2487 42.642 49.931 43.005 49.5428 43.005Z" fill="#1C1C1B"/>
<path d="M46.6136 40.2343C46.2254 40.2343 45.9077 39.8713 45.9077 39.4215C45.9077 39.2755 45.943 39.1334 46.0097 39.0071C46.045 38.9361 46.1312 38.9124 46.2018 38.948C46.2724 38.9835 46.296 39.0703 46.2607 39.1413C46.2136 39.2281 46.1901 39.3267 46.1901 39.4254C46.1901 39.7174 46.3783 39.9541 46.6136 39.9541C46.845 39.9541 47.0371 39.7174 47.0371 39.4254C47.0371 39.3267 47.0136 39.2281 46.9665 39.1413C46.9312 39.0703 46.9587 38.9874 47.0254 38.948C47.0959 38.9124 47.1783 38.9401 47.2175 39.0071C47.2842 39.1334 47.3195 39.2794 47.3195 39.4215C47.3195 39.8713 47.0018 40.2343 46.6136 40.2343Z" fill="#1C1C1B"/>
<path d="M16.7547 44.6269C16.3665 44.6269 16.0488 44.2638 16.0488 43.814C16.0488 43.668 16.0841 43.526 16.1508 43.3997C16.1861 43.3287 16.2724 43.305 16.3429 43.3405C16.4135 43.376 16.4371 43.4629 16.4018 43.5339C16.3547 43.6207 16.3312 43.7193 16.3312 43.818C16.3312 44.11 16.5194 44.3467 16.7547 44.3467C16.99 44.3467 17.1782 44.11 17.1782 43.818C17.1782 43.7193 17.1547 43.6207 17.1116 43.5339C17.0763 43.4629 17.1037 43.38 17.1704 43.3445C17.241 43.309 17.3233 43.3366 17.3586 43.4037C17.4253 43.5299 17.4606 43.6759 17.4606 43.818C17.4606 44.2638 17.1429 44.6269 16.7547 44.6269Z" fill="#1C1C1B"/>
<path d="M52.0565 41.6347C51.6682 41.6347 51.3506 41.2717 51.3506 40.8218C51.3506 40.6758 51.3859 40.5338 51.4525 40.4075C51.4878 40.3365 51.5741 40.3128 51.6408 40.3483C51.7114 40.3839 51.7349 40.4707 51.6996 40.5417C51.6525 40.6285 51.629 40.7271 51.629 40.8258C51.629 41.1178 51.8173 41.3545 52.0526 41.3545C52.2878 41.3545 52.4761 41.1178 52.4761 40.8258C52.4761 40.7271 52.4525 40.6285 52.4055 40.5417C52.3702 40.4707 52.3976 40.3878 52.4643 40.3483C52.531 40.3128 52.6173 40.3405 52.6525 40.4075C52.7192 40.5338 52.7545 40.6798 52.7545 40.8218C52.7624 41.2677 52.4447 41.6347 52.0565 41.6347Z" fill="#1C1C1B"/>
<path d="M40.2802 53.394H28.1037C28.0096 53.394 27.9351 53.3191 27.9351 53.2244C27.9351 53.1297 28.0096 53.0547 28.1037 53.0547H40.2762C40.3704 53.0547 40.4449 53.1297 40.4449 53.2244C40.4449 53.3191 40.3743 53.394 40.2802 53.394Z" fill="#1C1C1B"/>
</svg>
