<svg width="252" height="20" viewBox="0 0 252 20" fill="none" xmlns="http://www.w3.org/2000/svg">
<g clip-path="url(#clip0_430_58465)">
<path d="M26.4598 0H34.5498L36.4798 9.74H36.5398L44.1898 0H51.8898L46.6998 19.36H40.4398L42.9798 9.91H42.9198L36.0598 19.36H32.2698L30.1898 9.47H30.1298L27.4398 19.36H21.2598L26.4598 0Z" fill="#121C3E"/>
<path d="M54.1002 0H60.5502L55.3602 19.36H48.9102L54.1002 0Z" fill="#121C3E"/>
<path d="M26.04 0H17.97L1.87 12.4L0 19.36H6.14L7.57 14.02L10.6 11.91L14.52 19.36H21.17L15.28 8.38L26.04 0Z" fill="#121C3E"/>
<path d="M15.7997 0H5.18969L2.42969 10.3L15.7997 0Z" fill="#B3222A"/>
<path d="M90.5401 4.29005H88.5001V0.300049H83.3701V15.27H88.5001V6.54005H90.5401V4.29005Z" fill="#221E1F"/>
<path d="M82.6505 7.34C82.6505 6.05 81.8005 4.87 80.4105 3.96H82.2205V1.72H76.0005V0.130005H70.8705V1.72H64.3305L66.4705 3.97001C65.0705 4.88 64.2305 6.06 64.2305 7.35C64.2305 10.21 68.3505 12.53 73.4405 12.53C78.5205 12.52 82.6505 10.2 82.6505 7.34ZM69.9805 7.34C69.9805 5.82 71.5305 4.59 73.4405 4.59C75.3505 4.59 76.8905 5.82 76.8905 7.34C76.8905 8.86 75.3405 10.09 73.4405 10.09C71.5305 10.09 69.9805 8.86 69.9805 7.34Z" fill="#221E1F"/>
<path d="M70.7609 13.23H65.6309V16.85C65.6309 18.09 66.5909 19.1 67.7709 19.1H88.5009V16.85H70.7609V13.23Z" fill="#221E1F"/>
<path d="M180.53 13.2301H175.4V16.8501C175.4 18.0901 176.36 19.1001 177.53 19.1001H198.59V16.8501H180.52V13.2301H180.53Z" fill="#221E1F"/>
<path d="M193.471 0.300049V2.22005H190.451L192.581 4.47005H193.471V6.13005H190.561C190.601 5.92005 190.62 5.71005 190.62 5.50005C190.62 2.64005 187.011 0.330049 182.571 0.330049C178.121 0.330049 174.521 2.65005 174.521 5.50005C174.521 8.35005 178.131 10.67 182.571 10.67C186.641 10.67 190 8.73005 190.54 6.22005L192.59 8.37005H193.48V14.41H198.611V0.300049H193.471ZM182.561 8.24005C180.891 8.24005 179.54 7.01005 179.54 5.49005C179.54 3.97005 180.891 2.74005 182.561 2.74005C184.231 2.74005 185.581 3.97005 185.581 5.49005C185.581 7.01005 184.231 8.24005 182.561 8.24005Z" fill="#221E1F"/>
<path d="M241.84 16.4301V10.6001H235.97V16.4301H224.95L227.48 19.0901H251.43V16.4301H241.84Z" fill="#221E1F"/>
<path d="M237.831 2.54005H240.581L248.641 12.07H251.981L243.481 2.11005L245.201 0.300049H236.331H233.311L225.851 12.07H231.901L237.831 2.54005Z" fill="#221E1F"/>
<path d="M172.641 4.29005H170.601V0.300049H165.471V11.95H170.601V6.54005H172.641V4.29005Z" fill="#221E1F"/>
<path d="M146.47 6.95C146.47 9.59 150.41 11.73 155.26 11.73C160.12 11.73 164.06 9.59 164.06 6.95C164.06 5.82 163.34 4.78 162.13 3.96H164.21V1.72H157.83V0.130005H152.7V1.72H146.32L148.44 3.94C147.21 4.76 146.47 5.81 146.47 6.95ZM155.27 9.5C153.45 9.5 151.97 8.36 151.97 6.95C151.97 5.54 153.45 4.41 155.27 4.41C157.09 4.41 158.57 5.55 158.57 6.95C158.57 8.36 157.09 9.5 155.27 9.5Z" fill="#221E1F"/>
<path d="M168.46 13.23H146.84L148.98 15.48H165.47V19.1H170.6V15.48C170.6 14.23 169.64 13.23 168.46 13.23Z" fill="#221E1F"/>
<path d="M225.181 9.82004H222.751C223.601 9.81004 224.291 9.08004 224.291 8.18004V2.54004C224.291 1.30004 223.331 0.290039 222.151 0.290039H200.361L202.491 2.54004H219.151V8.18004C219.151 9.08004 218.461 9.81004 217.611 9.82004H199.971L202.111 12.07H210.381V19.09H215.511V12.07H225.181V9.82004Z" fill="#221E1F"/>
<path d="M116.6 9.12V6.88H91.4004L93.5304 9.13H102.2V12.55H92.0304L94.1604 14.8H110.83V19.1H115.96V14.8C115.96 13.56 115 12.55 113.82 12.55H107.34V9.12H116.6Z" fill="#221E1F"/>
<path d="M110.83 2.54004V5.23004C110.83 6.14004 110.13 6.87004 109.27 6.87004H114.4C115.26 6.87004 115.96 6.14004 115.96 5.23004V2.54004C115.96 1.30004 115 0.290039 113.82 0.290039H92.0303L94.1603 2.54004H110.83Z" fill="#221E1F"/>
<path d="M128.071 12.5201C133.161 12.5201 137.281 9.76005 137.281 6.35005C137.281 2.94005 133.161 0.180054 128.071 0.180054C122.981 0.180054 118.861 2.94005 118.861 6.35005C118.861 9.76005 122.991 12.5201 128.071 12.5201ZM128.071 2.81005C130.131 2.81005 131.811 4.40005 131.811 6.36005C131.811 8.32005 130.141 9.91005 128.071 9.91005C126.011 9.91005 124.341 8.32005 124.341 6.36005C124.341 4.40005 126.011 2.81005 128.071 2.81005Z" fill="#221E1F"/>
<path d="M138.311 0.300049V10.46C138.311 12.4 136.811 13.96 134.971 13.96H117.711L119.851 16.21H135.801C136.801 16.21 137.701 15.74 138.311 15V19.09H143.441V0.300049H138.311Z" fill="#221E1F"/>
</g>
<defs>
<clipPath id="clip0_430_58465">
<rect width="251.98" height="19.36" fill="white"/>
</clipPath>
</defs>
</svg>
