<svg width="220" height="24" viewBox="0 0 220 24" fill="none" xmlns="http://www.w3.org/2000/svg">
<path d="M32.9416 0H43.0077L45.4169 12.0831H45.4884L55.0298 0H64.6189L58.1546 24H50.3545L53.5032 12.2967H53.4316L44.8921 24H40.1691L37.5691 11.7507H37.4976L34.1581 24H26.4773L32.9416 0Z" fill="#121C3E"/>
<path d="M67.362 0H75.4006L68.9363 24H60.8978L67.362 0Z" fill="#121C3E"/>
<path d="M32.4168 0H22.3745L2.31378 15.3591L0 24H7.63309L9.4221 17.3769L13.1909 14.7418L18.0809 24H26.358L19.0112 10.3739L32.4168 0Z" fill="#121C3E"/>
<path d="M19.6791 0H6.46427L3.02938 12.7715L19.6791 0Z" fill="#B91C3B"/>
<path d="M78.1199 15.6439H80.1713V18.2789L82.342 15.6439H85.0851L82.6521 18.2552L85.1805 22.6231H82.6521L81.2447 19.7507L80.1713 20.9139V22.6231H78.1199V15.6439Z" fill="#1C1C1A"/>
<path d="M85.1328 19.1335C85.1328 17.9941 85.4429 17.1157 86.0392 16.4748C86.6356 15.8338 87.4943 15.5252 88.5677 15.5252C89.665 15.5252 90.5237 15.8338 91.12 16.451C91.7164 17.0683 92.0265 17.9466 92.0265 19.0623C92.0265 19.8694 91.8833 20.5341 91.6448 21.0564C91.3824 21.5786 91.0008 21.9822 90.4998 22.2671C89.9989 22.5519 89.3787 22.6944 88.6631 22.6944C87.9237 22.6944 87.2796 22.5757 86.8026 22.3145C86.3016 22.0534 85.92 21.6736 85.6099 21.1276C85.2759 20.6291 85.1328 19.9644 85.1328 19.1335ZM87.1842 19.1335C87.1842 19.8457 87.3035 20.3442 87.5659 20.6528C87.8044 20.9614 88.1622 21.1039 88.5916 21.1039C89.0448 21.1039 89.3787 20.9614 89.6173 20.6528C89.8558 20.3442 89.9751 19.822 89.9751 19.0386C89.9751 18.3976 89.8558 17.8991 89.5934 17.6142C89.331 17.3056 88.9971 17.1632 88.5677 17.1632C88.1622 17.1632 87.8283 17.3056 87.5659 17.6142C87.3035 17.9228 87.1842 18.4451 87.1842 19.1335Z" fill="#1C1C1A"/>
<path d="M93.0283 22.6231V15.6439H96.4632C97.1072 15.6439 97.5843 15.6914 97.9182 15.8101C98.2522 15.9288 98.5146 16.1424 98.7293 16.451C98.9439 16.7596 99.0394 17.1395 99.0394 17.5905C99.0394 17.9703 98.9678 18.3027 98.8008 18.5875C98.6338 18.8724 98.4192 19.0861 98.1568 19.276C97.9898 19.3947 97.7274 19.4896 97.4412 19.5608C97.6797 19.6558 97.8705 19.727 97.966 19.822C98.0375 19.8932 98.1568 20.0119 98.2999 20.2018C98.443 20.3917 98.5384 20.5341 98.5861 20.6291L99.588 22.6469H97.2742L96.1769 20.5104C96.0338 20.2255 95.9146 20.0593 95.7953 19.9644C95.6522 19.8457 95.4852 19.7982 95.2944 19.7982H95.1035V22.6231H93.0283ZM95.9384 18.4688C96.0338 18.4688 96.2247 18.4451 96.487 18.3739C96.6302 18.3501 96.7256 18.2789 96.821 18.1602C96.9164 18.0415 96.9403 17.8991 96.9403 17.7567C96.9403 17.543 96.8687 17.3531 96.7256 17.2344C96.5825 17.1157 96.3201 17.0445 95.9623 17.0445H95.0558V18.4688H95.9384Z" fill="#1C1C1A"/>
<path d="M100.065 15.6439H105.599V17.1395H102.14V18.2552H105.337V19.6795H102.14V21.0564H105.694V22.6231H100.065V15.6439Z" fill="#1C1C1A"/>
<path d="M110.728 21.4837H108.39L108.056 22.6231H105.957L108.461 15.6439H110.728L113.208 22.6231H111.061L110.728 21.4837ZM110.274 19.9644L109.559 17.4481L108.819 19.9644H110.274Z" fill="#1C1C1A"/>
<path d="M116.643 15.6439H119.362L120.412 19.8932L121.462 15.6439H124.157V22.6231H122.463V17.3056L121.151 22.6231H119.625L118.313 17.3056V22.6231H116.643V15.6439Z" fill="#1C1C1A"/>
<path d="M125.278 15.6439H130.812V17.1395H127.353V18.2552H130.55V19.6795H127.353V21.0564H130.908V22.6231H125.278V15.6439Z" fill="#1C1C1A"/>
<path d="M131.885 15.6439H134.939C135.535 15.6439 136.036 15.7389 136.394 15.905C136.775 16.0712 137.062 16.3323 137.324 16.6409C137.563 16.9496 137.73 17.3294 137.849 17.7567C137.968 18.184 138.016 18.635 138.016 19.1098C138.016 19.8694 137.944 20.4392 137.777 20.8427C137.61 21.2463 137.396 21.6024 137.109 21.8872C136.823 22.1721 136.513 22.3383 136.179 22.4332C135.726 22.5519 135.32 22.6231 134.963 22.6231H131.909V15.6439H131.885ZM133.937 17.2107V21.0089H134.438C134.867 21.0089 135.177 20.9614 135.368 20.8665C135.559 20.7715 135.702 20.5816 135.797 20.3442C135.893 20.0831 135.941 19.7033 135.941 19.1335C135.941 18.3976 135.821 17.8991 135.607 17.6142C135.368 17.3294 134.986 17.2107 134.462 17.2107H133.937Z" fill="#1C1C1A"/>
<path d="M139.018 15.6439H141.093V22.6231H139.018V15.6439Z" fill="#1C1C1A"/>
<path d="M146.842 19.7507L148.654 20.3205C148.535 20.8427 148.344 21.2938 148.082 21.6499C147.82 22.0059 147.486 22.2671 147.104 22.457C146.722 22.6469 146.221 22.7181 145.625 22.7181C144.909 22.7181 144.313 22.5994 143.836 22.3858C143.383 22.1721 142.977 21.7685 142.643 21.2226C142.309 20.6766 142.142 19.9644 142.142 19.0861C142.142 17.9229 142.429 17.0445 143.025 16.4273C143.621 15.8101 144.432 15.5015 145.506 15.5015C146.341 15.5015 147.009 15.6914 147.486 16.0475C147.963 16.4036 148.321 16.9496 148.559 17.6855L146.746 18.1128C146.675 17.8991 146.603 17.7567 146.555 17.6617C146.436 17.4956 146.293 17.3769 146.126 17.2819C145.959 17.1869 145.768 17.1395 145.577 17.1395C145.1 17.1395 144.766 17.3294 144.504 17.7329C144.313 18.0178 144.218 18.4926 144.218 19.1098C144.218 19.8694 144.337 20.4154 144.552 20.7003C144.79 20.9852 145.1 21.1276 145.506 21.1276C145.911 21.1276 146.198 21.0089 146.388 20.7715C146.603 20.5341 146.746 20.2018 146.842 19.7507Z" fill="#1C1C1A"/>
<path d="M153.568 21.4837H151.231L150.897 22.6231H148.798L151.302 15.6439H153.568L156.049 22.6231H153.902L153.568 21.4837ZM153.139 19.9644L152.423 17.4481L151.684 19.9644H153.139Z" fill="#1C1C1A"/>
<path d="M156.574 15.6439H158.625V20.8902H161.845V22.5994H156.574V15.6439Z" fill="#1C1C1A"/>
<path d="M165.614 15.6439H167.689V22.6231H165.614V15.6439Z" fill="#1C1C1A"/>
<path d="M169.025 15.6439H170.934L173.438 19.4896V15.6439H175.37V22.6231H173.438L170.957 18.7774V22.6231H169.025V15.6439Z" fill="#1C1C1A"/>
<path d="M176.253 20.3205L178.209 20.2018C178.257 20.5341 178.328 20.7953 178.471 20.9614C178.662 21.2226 178.972 21.365 179.354 21.365C179.64 21.365 179.879 21.2938 180.022 21.1513C180.189 21.0089 180.26 20.8427 180.26 20.6528C180.26 20.4629 180.189 20.3205 180.046 20.178C179.902 20.0356 179.545 19.8932 178.996 19.7745C178.09 19.5608 177.446 19.276 177.064 18.9199C176.682 18.5638 176.491 18.1128 176.491 17.5668C176.491 17.2107 176.587 16.8783 176.778 16.546C176.968 16.2374 177.279 15.9763 177.66 15.7864C178.066 15.5964 178.614 15.5015 179.306 15.5015C180.165 15.5015 180.809 15.6677 181.262 16C181.715 16.3323 181.978 16.8546 182.049 17.5668L180.117 17.6855C180.069 17.3769 179.95 17.1395 179.783 17.0208C179.616 16.8783 179.401 16.8071 179.091 16.8071C178.853 16.8071 178.662 16.8546 178.543 16.9733C178.424 17.092 178.352 17.2107 178.352 17.3531C178.352 17.4718 178.4 17.5668 178.495 17.6617C178.59 17.7567 178.829 17.8516 179.187 17.9229C180.093 18.1365 180.737 18.3264 181.119 18.5401C181.501 18.7537 181.787 19.0148 181.978 19.3234C182.145 19.6321 182.24 19.9644 182.24 20.3442C182.24 20.7953 182.121 21.1988 181.882 21.5786C181.644 21.9585 181.31 22.2433 180.88 22.4332C180.451 22.6231 179.926 22.7181 179.282 22.7181C178.161 22.7181 177.374 22.4807 176.921 22.0297C176.539 21.6024 176.301 21.0089 176.253 20.3205Z" fill="#1C1C1A"/>
<path d="M182.693 15.6439H188.943V17.3531H186.844V22.5994H184.792V17.3531H182.693V15.6439Z" fill="#1C1C1A"/>
<path d="M189.802 15.6439H191.877V22.6231H189.802V15.6439Z" fill="#1C1C1A"/>
<path d="M192.736 15.6439H198.985V17.3531H196.886V22.5994H194.835V17.3531H192.736V15.6439Z" fill="#1C1C1A"/>
<path d="M204.09 15.6439H206.141V19.7982C206.141 20.2018 206.07 20.6053 205.95 20.9614C205.831 21.3175 205.64 21.6499 205.378 21.911C205.115 22.1958 204.829 22.3858 204.567 22.4807C204.161 22.6231 203.684 22.7181 203.136 22.7181C202.802 22.7181 202.468 22.6944 202.086 22.6469C201.704 22.5994 201.37 22.5045 201.132 22.362C200.87 22.2196 200.631 22.0297 200.416 21.7685C200.202 21.5074 200.059 21.2463 199.987 20.9614C199.868 20.5104 199.796 20.1306 199.796 19.7745V15.6439H201.848V19.8932C201.848 20.273 201.943 20.5816 202.158 20.7715C202.348 20.9852 202.635 21.1039 202.993 21.1039C203.35 21.1039 203.613 20.9852 203.827 20.7953C204.018 20.5816 204.137 20.2967 204.137 19.8932V15.6439H204.09Z" fill="#1C1C1A"/>
<path d="M206.881 15.6439H213.13V17.3531H211.031V22.5994H208.98V17.3531H206.881V15.6439Z" fill="#1C1C1A"/>
<path d="M213.894 15.6439H219.428V17.1395H215.969V18.2552H219.165V19.6795H215.969V21.0564H219.523V22.6231H213.894V15.6439Z" fill="#1C1C1A"/>
<path d="M109.797 3.46588H108.414V0.759644H104.907V10.9436H108.414V5.0089H109.797V3.46588Z" fill="#1C1C1A"/>
<path d="M104.406 5.5549C104.406 4.67656 103.834 3.86944 102.88 3.25223H104.12V1.73294H99.8742V0.64095H96.3678V1.7092H91.9072L93.3622 3.22849C92.4081 3.8457 91.8356 4.65282 91.8356 5.53116C91.8356 7.47775 94.6503 9.04451 98.1329 9.04451C101.592 9.06825 104.406 7.50148 104.406 5.5549ZM95.7714 5.5549C95.7714 4.51039 96.821 3.67953 98.1329 3.67953C99.4449 3.67953 100.494 4.51039 100.494 5.5549C100.494 6.57567 99.4449 7.43027 98.1329 7.43027C96.821 7.40653 95.7714 6.57567 95.7714 5.5549Z" fill="#1C1C1A"/>
<path d="M96.2962 9.54303H92.7898V12.0119C92.7898 12.8427 93.4338 13.5312 94.2448 13.5312H108.39V12.0119H96.2724V9.54303H96.2962Z" fill="#1C1C1A"/>
<path d="M171.22 9.54303H167.713V12.0119C167.713 12.8427 168.357 13.5312 169.168 13.5312H183.552V12.0119H171.22V9.54303Z" fill="#1C1C1A"/>
<path d="M180.046 0.759644V2.06528H177.994L179.449 3.58457H180.046V4.7003H178.066C178.09 4.55786 178.113 4.41543 178.113 4.273C178.113 2.32641 175.657 0.759644 172.627 0.759644C169.598 0.759644 167.117 2.32641 167.117 4.273C167.117 6.21959 169.574 7.78635 172.627 7.78635C175.394 7.78635 177.708 6.45697 178.066 4.77151L179.473 6.24332H180.069V10.3501H183.576V0.759644H180.046ZM172.603 6.17211C171.458 6.17211 170.552 5.34125 170.552 4.29674C170.552 3.27596 171.482 2.42137 172.603 2.42137C173.748 2.42137 174.655 3.25223 174.655 4.29674C174.679 5.31751 173.748 6.17211 172.603 6.17211Z" fill="#1C1C1A"/>
<path d="M213.083 11.727V7.76261H209.075V11.727H201.537L203.279 13.5312H219.618V11.727H213.083Z" fill="#1C1C1A"/>
<path d="M210.339 2.27893H212.224L217.71 8.75964H220L214.18 1.99407L215.372 0.759644H207.238L202.158 8.75964H206.284L210.339 2.27893Z" fill="#1C1C1A"/>
<path d="M165.829 3.46588H164.445V0.759644H160.939V8.68843H164.445V5.0089H165.829V3.46588Z" fill="#1C1C1A"/>
<path d="M147.987 5.29377C147.987 7.09792 150.682 8.54599 153.998 8.54599C157.313 8.54599 160.009 7.09792 160.009 5.29377C160.009 4.53412 159.508 3.82196 158.697 3.27596H160.104V1.73294H155.739V0.64095H152.232V1.7092H147.867L149.322 3.20475C148.487 3.79822 147.987 4.51039 147.987 5.29377ZM153.974 7.00297C152.733 7.00297 151.732 6.21958 151.732 5.27003C151.732 4.32047 152.733 3.53709 153.974 3.53709C155.214 3.53709 156.216 4.32047 156.216 5.27003C156.24 6.24332 155.214 7.00297 153.974 7.00297Z" fill="#1C1C1A"/>
<path d="M162.99 9.54303H148.225L149.68 11.0623H160.939V13.5312H164.445V11.0861C164.445 10.2315 163.801 9.54303 162.99 9.54303Z" fill="#1C1C1A"/>
<path d="M201.704 7.24036H200.035C200.607 7.24036 201.084 6.74184 201.084 6.12463V2.27893C201.084 1.42433 200.44 0.759644 199.629 0.759644H184.745L186.2 2.27893H197.578V6.12463C197.578 6.74184 197.101 7.21662 196.528 7.24036H184.482L185.937 8.75964H191.567V13.5312H195.073V8.75964H201.681V7.24036H201.704Z" fill="#1C1C1A"/>
<path d="M127.592 6.76558V5.22255H110.394L111.849 6.74184H117.764V9.06825H110.823L112.278 10.5875H123.656V13.5312H127.163V10.6113C127.163 9.75668 126.518 9.09199 125.707 9.09199H121.271V6.76558H127.592Z" fill="#1C1C1A"/>
<path d="M123.656 2.27893V4.10683C123.656 4.72404 123.179 5.22255 122.583 5.22255H126.089C126.685 5.22255 127.139 4.72404 127.139 4.10683V2.27893C127.139 1.42433 126.495 0.759644 125.684 0.759644H110.799L112.254 2.27893H123.656Z" fill="#1C1C1A"/>
<path d="M135.416 9.06825C138.898 9.06825 141.689 7.19288 141.689 4.89021C141.689 2.58754 138.875 0.712166 135.416 0.712166C131.933 0.712166 129.119 2.58754 129.119 4.89021C129.119 7.19288 131.933 9.06825 135.416 9.06825ZM135.416 2.46884C136.823 2.46884 137.968 3.53709 137.968 4.86647C137.968 6.19585 136.823 7.2641 135.416 7.2641C134.008 7.2641 132.863 6.19585 132.863 4.86647C132.863 3.53709 134.008 2.46884 135.416 2.46884Z" fill="#1C1C1A"/>
<path d="M142.405 0.759644V7.66766C142.405 8.97329 141.379 10.0415 140.115 10.0415H128.331L129.786 11.5608H140.664C141.355 11.5608 141.952 11.2522 142.381 10.7537V13.5312H145.887V0.759644H142.405Z" fill="#1C1C1A"/>
<path d="M81.8172 1.68546V3.48961H82.3181V1.68546H83.4154V7.05045H82.3181V4.41543H81.8172V7.05045H80.7676V5.95846L80.052 6.59941C79.7658 6.48071 79.5273 6.33828 79.3364 6.17211C79.1933 6.05341 79.0741 5.91098 78.9786 5.76855C78.9071 5.91098 78.7878 6.05341 78.6208 6.17211C78.43 6.33828 78.1915 6.48071 77.9052 6.59941L77.1896 5.93472C77.5474 5.76855 77.8337 5.53116 78.0006 5.24629C78.2153 4.91395 78.3346 4.46291 78.3346 3.91691V2.5638H77.6906V1.73294H80.1952V2.5638H79.5511V3.91691C79.5511 4.48665 79.6465 4.91395 79.8612 5.27003C80.052 5.5549 80.3383 5.79228 80.6961 5.95846V1.68546H81.8172Z" fill="#1C1C1A"/>
<path d="M88.2576 1.73294V2.65875H86.0631V3.8457H88.6154V1.66172H90.0943V2.9911H90.7145V3.89318H90.0943V5.48368H88.6154V4.74777H85.4906C85.2044 4.74777 84.9658 4.67656 84.8227 4.55786C84.6796 4.43917 84.608 4.24926 84.608 4.01187V1.73294H88.2576ZM86.5879 6.12463H90.142V7.02671H86.0154C85.7292 7.02671 85.4906 6.95549 85.3475 6.8368C85.2044 6.69436 85.1328 6.52819 85.1328 6.2908V5.1276H86.6117V6.12463H86.5879Z" fill="#1C1C1A"/>
<path d="M79.1933 8.23739V8.61721H79.8612V8.23739H81.2924V9.06825H81.841V8.16617H83.32V11.0386H81.841V9.99406H81.2924V10.8724H78.6685C78.3823 10.8724 78.1438 10.8012 78.0006 10.6825C77.8575 10.5638 77.7621 10.3739 77.7621 10.1365V8.23739H79.1933ZM79.5988 11.2285V11.4896H81.8649V11.2285H83.3438V13.5312H79.0263C78.7401 13.5312 78.5016 13.4599 78.3584 13.3412C78.2153 13.2226 78.1438 13.0326 78.1438 12.7953V11.2285H79.5988ZM79.1933 9.49555V9.99406H79.8612V9.49555H79.1933ZM79.5988 12.3442V12.7003H81.8649V12.3442H79.5988Z" fill="#1C1C1A"/>
<path d="M87.8283 8.59347C88.1622 8.87834 88.3292 9.23442 88.3292 9.66172C88.3292 10.089 88.1622 10.4451 87.8283 10.73C87.4705 11.0623 86.9695 11.2285 86.3732 11.2285C85.753 11.2285 85.2759 11.0623 84.9181 10.73C84.5842 10.4451 84.4411 10.089 84.4411 9.66172C84.4411 9.23442 84.608 8.87834 84.9181 8.59347C85.2759 8.26113 85.7769 8.09496 86.3732 8.09496C86.9695 8.09496 87.4705 8.26113 87.8283 8.59347ZM86.4448 12.6291H90.2136V13.5312H85.8723C85.5622 13.5312 85.3475 13.4599 85.2044 13.3412C85.0613 13.2226 84.9658 13.0326 84.9658 12.7953V11.6083H86.4448V12.6291ZM85.9438 9.11573C85.8484 9.25816 85.8007 9.44807 85.8007 9.66172C85.8007 9.87537 85.8484 10.0653 85.9438 10.2077C86.0392 10.3739 86.1824 10.4451 86.3732 10.4451C86.564 10.4451 86.7071 10.3739 86.8026 10.2077C86.898 10.0653 86.9457 9.89911 86.9457 9.66172C86.9457 9.44807 86.898 9.25816 86.8026 9.11573C86.7071 8.97329 86.5402 8.87834 86.3732 8.87834C86.1824 8.87834 86.0392 8.94956 85.9438 9.11573ZM90.1659 8.16617V11.9881H88.687V8.16617H90.1659Z" fill="#1C1C1A"/>
</svg>
