<svg width="107" height="35" viewBox="0 0 107 35" fill="none" xmlns="http://www.w3.org/2000/svg">
<g clip-path="url(#clip0_8_6105)">
<path d="M46.6698 0H60.9298L64.3298 17.19H64.4298L77.9498 0H91.5398L82.3798 34.16H71.3398L75.8098 17.5H75.7098L63.5998 34.16H56.9198L53.2498 16.72H53.1498L48.4098 34.16H37.5098L46.6698 0Z" fill="white"/>
<path d="M95.4393 0H106.819L97.6593 34.16H86.2793L95.4393 0Z" fill="white"/>
<path d="M45.94 0H31.69L3.29 21.88L0 34.16H10.83L13.35 24.73L18.7 21L25.62 34.16H37.35L26.95 14.78L45.94 0Z" fill="white"/>
<path d="M27.8793 0H9.1593L4.2793 18.17L27.8793 0Z" fill="white"/>
</g>
<defs>
<clipPath id="clip0_8_6105">
<rect width="106.82" height="34.16" fill="white"/>
</clipPath>
</defs>
</svg>
